<?xml version="1.0" encoding="UTF-8"?>
<svg version="1.1" xmlns="http://www.w3.org/2000/svg" width="500" height="500">
<path d="M0 0 C17.55247071 13.34692895 26.02674948 32.57416304 29.17382812 54.10351562 C30.21761634 62.10589195 30.43970646 70.00002912 30.1875 78.0625 C30.17348145 78.83190918 30.15946289 79.60131836 30.14501953 80.39404297 C29.54581557 112.12714338 21.73416201 145.06706983 -0.8125 168.5 C-27.23652014 193.5741863 -65.78560465 199.70966826 -100.84765625 199.34375 C-110.13689053 199.09025746 -118.8687224 197.50408307 -127.8125 195.0625 C-128.83972168 194.78962158 -128.83972168 194.78962158 -129.88769531 194.51123047 C-144.56009144 190.49301919 -156.51043552 183.1622172 -167.8125 173.0625 C-168.44542969 172.52367187 -169.07835937 171.98484375 -169.73046875 171.4296875 C-178.01097426 163.88817447 -184.5471666 152.73255408 -187.8125 142.0625 C-188.10898438 141.11503906 -188.40546875 140.16757812 -188.7109375 139.19140625 C-193.72219091 120.77849807 -191.13298188 100.1722233 -182.8125 83.0625 C-182.40515625 82.1859375 -181.9978125 81.309375 -181.578125 80.40625 C-175.3597526 67.9695052 -165.4991212 59.58311048 -154.59277344 51.39892578 C-151.75317986 49.26728354 -148.93971477 47.10182437 -146.125 44.9375 C-145.58625244 44.5240332 -145.04750488 44.11056641 -144.49243164 43.68457031 C-136.54151923 37.56755392 -128.8772186 31.1469054 -121.3125 24.5625 C-88.93396647 -3.61588252 -88.93396647 -3.61588252 -68.8125 -10.9375 C-67.51505859 -11.42089844 -67.51505859 -11.42089844 -66.19140625 -11.9140625 C-43.71877713 -18.89395021 -18.81683206 -13.21780187 0 0 Z M-117.8125 45.0625 C-117.8125 46.7125 -117.8125 48.3625 -117.8125 50.0625 C-121.1125 50.0625 -124.4125 50.0625 -127.8125 50.0625 C-128.8025 51.733125 -128.8025 51.733125 -129.8125 53.4375 C-130.18375 54.06398438 -130.555 54.69046875 -130.9375 55.3359375 C-131.96318348 57.03722667 -131.96318348 57.03722667 -131.8125 59.0625 C-131.1525 59.0625 -130.4925 59.0625 -129.8125 59.0625 C-129.125 62.3125 -129.125 62.3125 -128.8125 66.0625 C-129.79981742 67.40525169 -130.79844743 68.73982273 -131.8125 70.0625 C-130.96178101 73.23336167 -129.64155734 75.318914 -127.8125 78.0625 C-124.3125 78.22916667 -124.3125 78.22916667 -120.8125 78.0625 C-117.79922434 79.56913783 -117.20193382 82.09416411 -115.8125 85.0625 C-111.76204751 85.56306958 -111.76204751 85.56306958 -107.8125 85.0625 C-106.28773592 83.3631121 -105.26390133 81.58616083 -104.109375 79.62109375 C-102.8125 78.0625 -102.8125 78.0625 -99 77.625 C-97.948125 77.769375 -96.89625 77.91375 -95.8125 78.0625 C-95.8125 77.4025 -95.8125 76.7425 -95.8125 76.0625 C-94.8225 75.7325 -93.8325 75.4025 -92.8125 75.0625 C-92.13576553 71.65929066 -92.13576553 71.65929066 -91.8125 68.0625 C-92.4725 67.4025 -93.1325 66.7425 -93.8125 66.0625 C-93.25694444 61.50694444 -93.25694444 61.50694444 -91.8125 60.0625 C-92.14761422 55.37040621 -92.14761422 55.37040621 -94 51.125 C-95.89368781 49.80964025 -95.89368781 49.80964025 -98.8125 50.0625 C-101.8125 50.0625 -101.8125 50.0625 -103.625 48.75 C-104.8125 47.0625 -104.8125 47.0625 -105.8125 44.0625 C-110.03789566 41.94980217 -114.00850662 42.52650441 -117.8125 45.0625 Z " fill="#5372FC" transform="translate(329.8125,156.9375)"/>
<path d="M0 0 C0.90094391 0.04343536 1.80188782 0.08687073 2.73013306 0.13162231 C4.64524783 0.2249987 6.56023546 0.32101359 8.47509766 0.41943359 C11.36726092 0.56790983 14.25971655 0.70854479 17.15234375 0.84765625 C26.46372417 1.30406683 35.75750349 1.80336902 45.0390625 2.6953125 C45.3690625 3.6853125 45.6990625 4.6753125 46.0390625 5.6953125 C42.0790625 8.0053125 38.1190625 10.3153125 34.0390625 12.6953125 C37.14101016 15.02177324 39.89931888 16.77859087 43.2890625 18.5703125 C46.80701238 20.46858881 50.30221301 22.38215719 53.7265625 24.4453125 C54.69142578 25.02539062 54.69142578 25.02539062 55.67578125 25.6171875 C56.35060547 26.15085937 56.35060547 26.15085937 57.0390625 26.6953125 C57.0390625 27.3553125 57.0390625 28.0153125 57.0390625 28.6953125 C58.09287109 29.02789062 58.09287109 29.02789062 59.16796875 29.3671875 C62.68782305 30.99541942 65.20692931 33.29776531 67.9765625 35.9453125 C68.50217773 36.43894287 69.02779297 36.93257324 69.56933594 37.44116211 C71.06627637 38.85202614 72.55336264 40.27263278 74.0390625 41.6953125 C75.08513672 42.67951172 75.08513672 42.67951172 76.15234375 43.68359375 C77.49428734 44.97429367 78.77616417 46.32717264 80.0390625 47.6953125 C80.0390625 48.3553125 80.0390625 49.0153125 80.0390625 49.6953125 C80.6990625 49.6953125 81.3590625 49.6953125 82.0390625 49.6953125 C107.37767815 78.03742785 117.88107485 116.70456568 115.91894531 153.97705078 C114.16537699 178.67779189 104.91394045 207.50589959 89.0390625 226.6953125 C88.3790625 226.6953125 87.7190625 226.6953125 87.0390625 226.6953125 C86.82121094 227.39269531 86.60335937 228.09007812 86.37890625 228.80859375 C84.70196374 232.42159818 82.31608663 235.03062292 79.6015625 237.8828125 C78.79803345 238.73601074 78.79803345 238.73601074 77.97827148 239.60644531 C52.76040036 266.09059446 18.72702087 283.68252539 -18.23535156 284.76171875 C-29.65866029 285.02462574 -40.6977908 284.78152704 -51.9609375 282.6953125 C-52.60385742 282.5823584 -53.24677734 282.4694043 -53.90917969 282.35302734 C-66.70587294 280.03397595 -78.23768432 275.22505682 -89.9609375 269.6953125 C-90.61642578 269.3869043 -91.27191406 269.07849609 -91.94726562 268.76074219 C-104.84706688 262.56572237 -115.60647444 253.45276147 -125.9609375 243.6953125 C-126.92580078 242.79232422 -126.92580078 242.79232422 -127.91015625 241.87109375 C-129.30721311 240.52614158 -130.64270849 239.11761222 -131.9609375 237.6953125 C-131.9609375 237.0353125 -131.9609375 236.3753125 -131.9609375 235.6953125 C-132.6209375 235.6953125 -133.2809375 235.6953125 -133.9609375 235.6953125 C-158.98824976 206.48828618 -170.06056242 169.14602081 -167.2734375 131.1328125 C-166.1006977 117.30481537 -163.26816134 104.77140956 -157.71582031 92.00756836 C-156.46665488 88.97987033 -155.78349858 87.26687055 -156.7734375 84.078125 C-157.1653125 83.29179687 -157.5571875 82.50546875 -157.9609375 81.6953125 C-158.61892032 76.43910091 -158.62672678 72.05154992 -156.2734375 67.2578125 C-151.45420813 61.91758537 -147.24899313 59.07391279 -139.9609375 58.6953125 C-133.94184358 59.63335311 -129.81983595 61.90092351 -125.9609375 66.6953125 C-123.0812459 71.43058003 -123.46865059 76.31922693 -123.9609375 81.6953125 C-125.72401746 86.98455237 -128.57248862 89.49540186 -132.9609375 92.6953125 C-135.97584307 93.70028102 -138.00275442 93.79866553 -141.1484375 93.7578125 C-141.99833252 93.7467749 -142.84822754 93.7357373 -143.72387695 93.72436523 C-144.46210693 93.71477783 -145.20033691 93.70519043 -145.9609375 93.6953125 C-159.03934403 127.38744768 -158.65529455 163.22824256 -144.42578125 196.5390625 C-142.47566114 200.74092131 -140.39545635 204.75505078 -137.9609375 208.6953125 C-137.10628906 210.0875 -137.10628906 210.0875 -136.234375 211.5078125 C-133.87500861 215.28279872 -131.57066906 218.9511604 -128.74609375 222.3984375 C-126.9609375 224.6953125 -126.9609375 224.6953125 -126.9609375 226.6953125 C-126.3009375 226.6953125 -125.6409375 226.6953125 -124.9609375 226.6953125 C-123.234375 228.375 -123.234375 228.375 -121.3359375 230.5703125 C-120.70429688 231.28960937 -120.07265625 232.00890625 -119.421875 232.75 C-117.9609375 234.6953125 -117.9609375 234.6953125 -117.9609375 236.6953125 C-117.13335937 237.0665625 -117.13335937 237.0665625 -116.2890625 237.4453125 C-113.50957043 238.93765724 -111.1794668 240.73203773 -108.7109375 242.6953125 C-107.81890625 243.3965625 -106.926875 244.0978125 -106.0078125 244.8203125 C-104.99460937 245.7484375 -104.99460937 245.7484375 -103.9609375 246.6953125 C-103.9609375 247.3553125 -103.9609375 248.0153125 -103.9609375 248.6953125 C-103.22077393 248.96738525 -102.48061035 249.23945801 -101.71801758 249.51977539 C-99.11679884 250.62885785 -97.1309677 251.856495 -94.84765625 253.50390625 C-89.7577444 256.96546653 -84.44979371 259.40976154 -78.7734375 261.7578125 C-77.73695068 262.18827881 -76.70046387 262.61874512 -75.63256836 263.06225586 C-50.64955833 273.07024159 -24.21670538 275.45680246 2.0390625 269.6953125 C2.76416016 269.5396582 3.48925781 269.38400391 4.23632812 269.22363281 C27.69427074 263.99102852 47.7834374 252.22565738 65.0390625 235.6953125 C65.72355469 235.06238281 66.40804687 234.42945313 67.11328125 233.77734375 C91.25316297 210.77568828 102.45504754 177.88163065 104.22265625 145.3125 C104.93756866 111.75367031 92.51410523 78.93896371 69.5078125 54.47265625 C68.0390625 52.6953125 68.0390625 52.6953125 68.0390625 50.6953125 C67.47445312 50.45167969 66.90984375 50.20804688 66.328125 49.95703125 C63.61217182 48.46001269 61.66627012 46.63897313 59.4140625 44.5078125 C49.87644761 35.82969197 39.58757252 30.21166034 28.0390625 24.6953125 C28.26722656 25.50355469 28.49539063 26.31179687 28.73046875 27.14453125 C29.01792969 28.21316406 29.30539062 29.28179687 29.6015625 30.3828125 C30.03662109 31.96642578 30.03662109 31.96642578 30.48046875 33.58203125 C31.04031017 36.70226632 30.88597014 38.67224484 30.0390625 41.6953125 C26.05884369 39.53462229 23.06655926 37.06880889 20.0390625 33.6953125 C20.0390625 33.0353125 20.0390625 32.3753125 20.0390625 31.6953125 C19.50893555 31.48970703 18.97880859 31.28410156 18.43261719 31.07226562 C15.04085566 29.12106866 12.47855663 26.41986868 9.7421875 23.6640625 C9.14855408 23.07234253 8.55492065 22.48062256 7.94329834 21.87097168 C6.69362532 20.62265669 5.44646258 19.37182427 4.20166016 18.11865234 C2.28898298 16.19523253 0.36583131 14.28275151 -1.55859375 12.37109375 C-2.77147548 11.15689111 -3.98373702 9.94206857 -5.1953125 8.7265625 C-6.06237823 7.86556946 -6.06237823 7.86556946 -6.94696045 6.98718262 C-10.9609375 2.92524684 -10.9609375 2.92524684 -10.9609375 0.6953125 C-7.56361719 -1.00334766 -3.71749587 -0.1954178 0 0 Z M-153.3359375 70.5703125 C-154.69717843 75.19853167 -154.51057006 79.15947416 -152.3359375 83.4453125 C-150.08957571 86.92052029 -147.99626794 88.47709954 -143.9609375 89.6953125 C-139.354201 89.88251204 -135.967871 89.31661189 -132.0234375 86.8828125 C-128.34920617 82.98590049 -127.49761752 80.20801441 -127.640625 74.72265625 C-128.29583964 70.57562699 -130.74746502 67.77711031 -133.796875 65.05859375 C-141.33557199 60.3094868 -148.61592788 64.13393575 -153.3359375 70.5703125 Z " fill="#2DF22F" transform="translate(272.9609375,95.3046875)"/>
<path d="M0 0 C3.582906 -0.14533755 7.16505417 -0.23407931 10.75 -0.3125 C11.76578125 -0.35439453 12.7815625 -0.39628906 13.828125 -0.43945312 C21.32625219 -0.56277759 21.32625219 -0.56277759 24.65625 2.21875 C25.96670815 4.9310936 26.57167115 6.82549176 26.75 9.8125 C26.80671875 10.60269531 26.8634375 11.39289063 26.921875 12.20703125 C26.94765625 12.79871094 26.9734375 13.39039063 27 14 C28.75376953 14.02126953 28.75376953 14.02126953 30.54296875 14.04296875 C32.09118457 14.08988438 33.63936044 14.13813169 35.1875 14.1875 C36.34088867 14.19620117 36.34088867 14.19620117 37.51757812 14.20507812 C41.82975988 14.37164309 43.55573032 14.64674588 47.05078125 17.42578125 C49 20 49 20 49 22 C49.66 22 50.32 22 51 22 C53.8352113 27.5522888 54.37952295 31.80112515 54 38 C53.34 38 52.68 38 52 38 C51.71125 38.61875 51.4225 39.2375 51.125 39.875 C50 42 50 42 48 44 C47.33278464 46.91440699 47.33278464 46.91440699 48 50 C48.99 50.598125 49.98 51.19625 51 51.8125 C54 54 54 54 54.50390625 56.03515625 C54.62884966 61.02456323 53.765345 64.74562308 51 69 C50.01 69.495 50.01 69.495 49 70 C48.525625 70.969375 48.05125 71.93875 47.5625 72.9375 C46 76 46 76 43 78 C40.25669947 78.11691821 37.6118767 78.14186461 34.875 78.0625 C32.24542421 78.00076213 29.6313113 77.97939689 27 78 C25.14607854 79.85392146 25.76455796 82.42453037 25.671875 84.89453125 C24.59239595 88.27731735 23.06012271 89.23305098 20 91 C16.65399913 91.62302032 13.3962158 91.64961026 10 91.625 C8.66582031 91.67333984 8.66582031 91.67333984 7.3046875 91.72265625 C1.01672399 91.73204127 1.01672399 91.73204127 -1.72729492 89.75634766 C-4.32065907 86.83358721 -4.99676252 85.04014475 -5.3125 81.125 C-5.209375 80.09375 -5.10625 79.0625 -5 78 C-6.134375 78.165 -7.26875 78.33 -8.4375 78.5 C-9.95771658 78.67220152 -11.47860664 78.83852541 -13 79 C-13.76699219 79.103125 -14.53398437 79.20625 -15.32421875 79.3125 C-18.66995139 79.58515733 -21.00029824 79.74700553 -23.76171875 77.68359375 C-28.49476505 72.35444591 -32.64870725 65.79396172 -33.3125 58.625 C-32.94884973 54.40665686 -31.95115008 52.95115008 -29 50 C-28.01 49.505 -28.01 49.505 -27 49 C-27 47.02 -27 45.04 -27 43 C-27.598125 42.773125 -28.19625 42.54625 -28.8125 42.3125 C-31.68011113 40.59193332 -32.62059949 39.03468112 -34 36 C-34.7998176 30.62979609 -33.02341711 28.3191673 -30 24 C-28.85984884 21.36668018 -27.93662361 18.71620848 -27 16 C-26.34 16 -25.68 16 -25 16 C-25 15.34 -25 14.68 -25 14 C-19.54045091 12.1801503 -13.50982274 12.62254432 -8 14 C-7.91363281 13.38511719 -7.82726562 12.77023438 -7.73828125 12.13671875 C-6.57291293 5.43317807 -6.57291293 5.43317807 -3.4375 3.0625 C-2.2309375 2.5365625 -2.2309375 2.5365625 -1 2 C-0.67 1.34 -0.34 0.68 0 0 Z " fill="#E86A28" transform="translate(230,243)"/>
<path d="M0 0 C1.15113281 -0.01417969 2.30226563 -0.02835938 3.48828125 -0.04296875 C6.53967524 0.17685084 8.24883265 0.3687337 10.6875 2.1875 C11.4375 5.8125 11.4375 5.8125 11.6875 9.1875 C12.43515625 9.12949219 13.1828125 9.07148438 13.953125 9.01171875 C22.08163809 8.63933922 22.08163809 8.63933922 25.3125 11.5625 C27.5359896 15.80734379 28.03062792 18.29792714 27.6875 23.1875 C27.171875 23.6825 26.65625 24.1775 26.125 24.6875 C25.650625 25.1825 25.17625 25.6775 24.6875 26.1875 C24.87887484 31.23315002 24.87887484 31.23315002 27.6875 35.1875 C28.18834649 39.52816955 27.95327689 41.7091016 25.8125 45.5625 C23.51802492 48.39685156 22.83041964 49.03573526 19.3046875 49.50390625 C18.39976562 49.58511719 17.49484375 49.66632813 16.5625 49.75 C15.65242188 49.83378906 14.74234375 49.91757813 13.8046875 50.00390625 C13.10601562 50.06449219 12.40734375 50.12507813 11.6875 50.1875 C11.625625 51.13625 11.56375 52.085 11.5 53.0625 C10.6875 56.1875 10.6875 56.1875 8.625 57.5625 C3.23460157 58.70939328 -2.45650957 59.18678821 -7.3125 56.1875 C-8.88188028 53.27293662 -9.3125 51.50808331 -9.3125 48.1875 C-9.98796875 48.21070313 -10.6634375 48.23390625 -11.359375 48.2578125 C-12.25140625 48.27585938 -13.1434375 48.29390625 -14.0625 48.3125 C-15.38507813 48.34730469 -15.38507813 48.34730469 -16.734375 48.3828125 C-19.46104489 48.1762466 -21.03501979 47.67821432 -23.3125 46.1875 C-24.0625 44.0625 -24.0625 44.0625 -24.3125 42.1875 C-25.3025 42.1875 -26.2925 42.1875 -27.3125 42.1875 C-27.5 38.875 -27.5 38.875 -27.3125 35.1875 C-26.3331121 34.16730427 -25.33354551 33.16600195 -24.3125 32.1875 C-23.8125 29.1875 -23.8125 29.1875 -24.3125 26.1875 C-24.828125 25.713125 -25.34375 25.23875 -25.875 24.75 C-27.3125 23.1875 -27.3125 23.1875 -27.375 19.9375 C-26.05916212 15.2933663 -24.48347219 11.832709 -20.3125 9.1875 C-16.82676823 8.90178428 -13.70484944 9.3896945 -10.3125 10.1875 C-10.3125 9.1975 -10.3125 8.2075 -10.3125 7.1875 C-9.6525 7.1875 -8.9925 7.1875 -8.3125 7.1875 C-8.168125 6.218125 -8.02375 5.24875 -7.875 4.25 C-6.91203585 -0.99280481 -4.96525662 0.02761544 0 0 Z " fill="#14C160" transform="translate(285.3125,191.8125)"/>
<path d="M0 0 C0.66 0 1.32 0 2 0 C4.20914 3.31371 4.22481553 4.3446021 4.125 8.1875 C4.10695313 9.08855469 4.08890625 9.98960937 4.0703125 10.91796875 C4.04710937 11.60503906 4.02390625 12.29210937 4 13 C3.34 13 2.68 13 2 13 C1.34 14.98 0.68 16.96 0 19 C1.32 19.66 2.64 20.32 4 21 C4.25 28.625 4.25 28.625 2 32 C1.773125 32.94875 1.54625 33.8975 1.3125 34.875 C-0.27714764 38.65987532 -2.01734122 39.752695 -5.44140625 41.82421875 C-7.31785162 43.00871371 -7.31785162 43.00871371 -8 46 C-5.03 46.33 -2.06 46.66 1 47 C1.66 48.98 2.32 50.96 3 53 C3.928125 52.9175 4.85625 52.835 5.8125 52.75 C9 53 9 53 10.875 54.625 C12.26828383 57.56637697 12.21931821 59.78333296 12 63 C11.34 63 10.68 63 10 63 C10.495 63.8353125 10.495 63.8353125 11 64.6875 C12.18664572 67.43161823 12.44406789 69.03954738 12 72 C10.3125 74.3125 10.3125 74.3125 8 76 C5.25 76.25 5.25 76.25 3 76 C2.34 77.32 1.68 78.64 1 80 C-1.64 80 -4.28 80 -7 80 C-7.66 78.68 -8.32 77.36 -9 76 C-9.721875 76.061875 -10.44375 76.12375 -11.1875 76.1875 C-14.74971535 75.95001898 -16.31987321 75.38233493 -19 73 C-20.19702616 69.06457154 -20.29966874 65.89900622 -19 62 C-19.66 62 -20.32 62 -21 62 C-21.33 63.32 -21.66 64.64 -22 66 C-22.33 66 -22.66 66 -23 66 C-23.12117188 66.65226562 -23.24234375 67.30453125 -23.3671875 67.9765625 C-25.83211679 80.83211679 -25.83211679 80.83211679 -29 84 C-29.38079379 87.61754103 -28.84651134 89.88401212 -27 93 C-32.875 90.125 -32.875 90.125 -34 89 C-34.41410115 86.0322751 -34.53774091 83.88887769 -32.953125 81.26953125 C-31.625 79.625 -31.625 79.625 -29 77 C-28.34 77 -27.68 77 -27 77 C-27.11458693 75.56163249 -27.24209116 74.12429034 -27.375 72.6875 C-27.44460938 71.88699219 -27.51421875 71.08648437 -27.5859375 70.26171875 C-27.89564426 67.72775559 -27.89564426 67.72775559 -30 65 C-30 63.68 -30 62.36 -30 61 C-30.66 61 -31.32 61 -32 61 C-32.556875 60.030625 -33.11375 59.06125 -33.6875 58.0625 C-35.84780853 55.25673343 -37.00747955 54.99878051 -40.59375 54.4140625 C-43.29541209 54.22050377 -45.99150318 54.15176315 -48.69921875 54.10546875 C-52 54 -52 54 -54 53 C-54.4140625 50.93359375 -54.4140625 50.93359375 -54.625 48.4375 C-54.73714844 47.19806641 -54.73714844 47.19806641 -54.8515625 45.93359375 C-54.90054687 45.29550781 -54.94953125 44.65742188 -55 44 C-52.03 43.505 -52.03 43.505 -49 43 C-48.67 43.99 -48.34 44.98 -48 46 C-49.98 46.495 -49.98 46.495 -52 47 C-52 47.99 -52 48.98 -52 50 C-51.01 50 -50.02 50 -49 50 C-49 50.66 -49 51.32 -49 52 C-47.515 51.505 -47.515 51.505 -46 51 C-43.77425665 50.77548542 -41.54418481 50.59217122 -39.3125 50.4375 C-38.13300781 50.35371094 -36.95351563 50.26992187 -35.73828125 50.18359375 C-34.83464844 50.12300781 -33.93101562 50.06242187 -33 50 C-33.30679687 49.41734375 -33.61359375 48.8346875 -33.9296875 48.234375 C-35.35601822 45.25677947 -36.14341568 42.18159889 -37 39 C-37.75925781 39.05800781 -38.51851563 39.11601562 -39.30078125 39.17578125 C-42.26602282 39.31039014 -45.051159 39.35177632 -48 39 C-50.25 36.75 -50.25 36.75 -51 34 C-50.6875 31.6875 -50.6875 31.6875 -50 30 C-49.67 31.32 -49.34 32.64 -49 34 C-44.38 34.66 -39.76 35.32 -35 36 C-34.34895833 38.05078125 -33.69791667 40.1015625 -33.046875 42.15234375 C-32.16366925 44.15947872 -32.16366925 44.15947872 -30.13671875 44.74609375 C-24.97264127 45.35974098 -20.0439444 45.2609861 -15 44 C-15.020625 43.030625 -15.04125 42.06125 -15.0625 41.0625 C-15 38 -15 38 -14 37 C-12.35892758 36.79160985 -10.71143707 36.63248275 -9.0625 36.5 C-5.39442535 36.24785057 -5.39442535 36.24785057 -2 35 C1.06351224 30.99386861 1.54407111 27.98731848 1 23 C0.03886134 21.63838689 -0.95884159 20.30144802 -2 19 C-2.375 16.4375 -2.375 16.4375 -2 14 C-1.505 13.54625 -1.01 13.0925 -0.5 12.625 C1.36288916 10.94551538 1.36288916 10.94551538 1.25 7.5625 C1.05961139 4.84946236 0.82235644 2.56986388 0 0 Z " fill="#5474F0" transform="translate(311,204)"/>
<path d="M0 0 C2.1640625 1.00390625 2.1640625 1.00390625 5.2890625 3.19140625 C5.7840625 4.67640625 5.7840625 4.67640625 6.2890625 6.19140625 C7.2790625 6.52140625 8.2690625 6.85140625 9.2890625 7.19140625 C10.39884151 10.52074327 10.42207787 13.06368933 10.4140625 16.56640625 C10.41792969 18.24863281 10.41792969 18.24863281 10.421875 19.96484375 C10.23150073 24.58981858 10.01842713 27.27449072 7.1015625 30.94140625 C4.02079314 33.40602173 2.17288664 33.92044178 -1.7109375 34.19140625 C-1.7109375 34.85140625 -1.7109375 35.51140625 -1.7109375 36.19140625 C-6.94438346 37.93588824 -12.59051185 37.86994246 -17.8359375 36.19140625 C-18.4546875 35.86140625 -19.0734375 35.53140625 -19.7109375 35.19140625 C-19.7109375 34.53140625 -19.7109375 33.87140625 -19.7109375 33.19140625 C-20.2884375 32.94390625 -20.8659375 32.69640625 -21.4609375 32.44140625 C-25.19691113 30.36586534 -27.35485065 28.25966681 -28.7109375 24.19140625 C-28.85713265 21.9028898 -28.93185086 19.60940309 -28.9609375 17.31640625 C-28.98671875 16.10210937 -29.0125 14.8878125 -29.0390625 13.63671875 C-28.55156548 8.51800008 -26.28965294 5.21609741 -22.4609375 1.87890625 C-16.07784515 -2.69564327 -7.27932421 -2.17121054 0 0 Z " fill="#5370F9" transform="translate(249.7109375,271.80859375)"/>
<path d="M0 0 C0.66 0.33 1.32 0.66 2 1 C2.4140625 3.94140625 2.4140625 3.94140625 2.625 7.5625 C2.69976562 8.76003906 2.77453125 9.95757812 2.8515625 11.19140625 C2.90054688 12.11824219 2.94953125 13.04507813 3 14 C7.83243556 7.98197727 7.83243556 7.98197727 11 1 C12.32 1.33 13.64 1.66 15 2 C14.34 2.66 13.68 3.32 13 4 C13.23864442 9.03505052 13.23864442 9.03505052 16 13 C16.50084649 17.34066955 16.26577689 19.5216016 14.125 23.375 C11.83052492 26.20935156 11.14291964 26.84823526 7.6171875 27.31640625 C6.71226562 27.39761719 5.80734375 27.47882813 4.875 27.5625 C3.50988281 27.68818359 3.50988281 27.68818359 2.1171875 27.81640625 C1.41851562 27.87699219 0.71984375 27.93757813 0 28 C-0.0928125 29.423125 -0.0928125 29.423125 -0.1875 30.875 C-1 34 -1 34 -3.0625 35.375 C-8.45289843 36.52189328 -14.14400957 36.99928821 -19 34 C-20.56938028 31.08543662 -21 29.32058331 -21 26 C-21.67546875 26.02320313 -22.3509375 26.04640625 -23.046875 26.0703125 C-24.38492187 26.09738281 -24.38492187 26.09738281 -25.75 26.125 C-26.63171875 26.14820313 -27.5134375 26.17140625 -28.421875 26.1953125 C-31.14652094 25.98889993 -32.70069441 25.44219837 -35 24 C-37.53734319 20.57458669 -37.37601557 17.13617129 -37 13 C-35.625 11.0625 -35.625 11.0625 -34 10 C-33.34 10 -32.68 10 -32 10 C-31.34 7.03 -30.68 4.06 -30 1 C-29.34 1.33 -28.68 1.66 -28 2 C-28 2.66 -28 3.32 -28 4 C-27.34 4 -26.68 4 -26 4 C-25.91363281 4.60328125 -25.82726562 5.2065625 -25.73828125 5.828125 C-25.01140493 9.96265085 -24.57697577 12.39265708 -21.625 15.5 C-16.81457575 18.24881386 -11.46401749 18.91717436 -6 18 C-3.06026719 15.64581624 -3.06026719 15.64581624 -1 13 C-0.34 13 0.32 13 1 13 C0.67 8.71 0.34 4.42 0 0 Z " fill="#14C25E" transform="translate(297,214)"/>
<path d="M0 0 C2.64 0 5.28 0 8 0 C8.66 1.32 9.32 2.64 10 4 C11.3921875 3.87625 11.3921875 3.87625 12.8125 3.75 C16 4 16 4 17.875 5.625 C19.26828383 8.56637697 19.21931821 10.78333296 19 14 C18.34 14 17.68 14 17 14 C17.33 14.556875 17.66 15.11375 18 15.6875 C19.18664572 18.43161823 19.44406789 20.03954738 19 23 C17.3125 25.3125 17.3125 25.3125 15 27 C12.25 27.25 12.25 27.25 10 27 C9.34 28.32 8.68 29.64 8 31 C5.36 31 2.72 31 0 31 C-0.66 29.68 -1.32 28.36 -2 27 C-2.763125 27.061875 -3.52625 27.12375 -4.3125 27.1875 C-7 27 -7 27 -8.875 25.9375 C-10.66429381 22.85593844 -9.72326369 20.37523055 -9 17 C-8.67 16.01 -8.34 15.02 -8 14 C-8.99 13.67 -9.98 13.34 -11 13 C-10.25 7.25 -10.25 7.25 -8 5 C-4.375 4.875 -4.375 4.875 -1 5 C-0.67 3.35 -0.34 1.7 0 0 Z " fill="#EAD784" transform="translate(304,253)"/>
<path d="M0 0 C3.28394217 2.68686178 5.40718797 4.60549592 6.2890625 8.8359375 C6.51001894 16.00697837 6.51001894 16.00697837 4.49609375 19.30078125 C1.4804284 22.23248376 -1.43098507 23.66447398 -5.625 24.0625 C-10.49544085 23.68527136 -13.89192699 21.59475902 -17.55078125 18.453125 C-20.08311138 15.16982801 -20.13851248 12.59501951 -19.7578125 8.5546875 C-18.86570554 4.50589436 -17.12884988 2.12884988 -14.25 -0.75 C-9.30483121 -2.58154399 -4.62470412 -2.4902253 0 0 Z " fill="#5073F6" transform="translate(292.25,209.75)"/>
<path d="M0 0 C3.582906 -0.14533755 7.16505417 -0.23407931 10.75 -0.3125 C11.76578125 -0.35439453 12.7815625 -0.39628906 13.828125 -0.43945312 C21.39500069 -0.56390832 21.39500069 -0.56390832 24.703125 2.51953125 C25.13109375 3.33808594 25.5590625 4.15664062 26 5 C25.67 5.66 25.34 6.32 25 7 C24.401875 6.360625 23.80375 5.72125 23.1875 5.0625 C19.29838998 1.39562484 15.12229913 1.78623849 10.0625 1.75 C8.98838867 1.7190625 8.98838867 1.7190625 7.89257812 1.6875 C4.768325 1.66433594 2.3895708 1.80802852 -0.43359375 3.19921875 C-2.41362953 5.47551924 -2.71371908 7.09165169 -3.125 10.0625 C-3.80789022 14.80789022 -3.80789022 14.80789022 -6 17 C-7.75279578 16.99170274 -9.50701592 16.9723026 -11.25683594 16.86987305 C-17.34423311 16.36407436 -17.34423311 16.36407436 -22.99609375 18.15234375 C-24.49066783 19.87897843 -24.49066783 19.87897843 -26 23 C-26.598125 23.78375 -27.19625 24.5675 -27.8125 25.375 C-29.85390196 29.88757274 -29.56700432 34.29898703 -28 39 C-27.34 39.2475 -26.68 39.495 -26 39.75 C-24 41 -24 41 -23.125 44.375 C-22.95604396 49.27472527 -22.95604396 49.27472527 -25 52 C-26.051875 52.5878125 -26.051875 52.5878125 -27.125 53.1875 C-29.43437847 55.41989918 -29.33900516 56.23871678 -29.4375 59.375 C-29.26265396 63.37703168 -28.37056511 65.71767907 -26 69 C-25.4740625 70.3303125 -25.4740625 70.3303125 -24.9375 71.6875 C-24.11696579 74.1427942 -24.11696579 74.1427942 -22 76 C-18.59628802 76.11851881 -15.25404647 76.04214134 -11.85351562 75.921875 C-6.30042425 75.79971717 -6.30042425 75.79971717 -3 78 C-2.48828125 80.3828125 -2.48828125 80.3828125 -2.3125 83.125 C-2.24675781 84.03507812 -2.18101562 84.94515625 -2.11328125 85.8828125 C-2.07589844 86.58148438 -2.03851563 87.28015625 -2 88 C-3.48828125 86.73046875 -3.48828125 86.73046875 -5 85 C-5.1875 81.3125 -5.1875 81.3125 -5 78 C-6.134375 78.165 -7.26875 78.33 -8.4375 78.5 C-9.95771658 78.67220152 -11.47860664 78.83852541 -13 79 C-13.76699219 79.103125 -14.53398437 79.20625 -15.32421875 79.3125 C-18.66995139 79.58515733 -21.00029824 79.74700553 -23.76171875 77.68359375 C-28.49476505 72.35444591 -32.64870725 65.79396172 -33.3125 58.625 C-32.94884973 54.40665686 -31.95115008 52.95115008 -29 50 C-28.01 49.505 -28.01 49.505 -27 49 C-27 47.02 -27 45.04 -27 43 C-27.598125 42.773125 -28.19625 42.54625 -28.8125 42.3125 C-31.68011113 40.59193332 -32.62059949 39.03468112 -34 36 C-34.7998176 30.62979609 -33.02341711 28.3191673 -30 24 C-28.85984884 21.36668018 -27.93662361 18.71620848 -27 16 C-26.34 16 -25.68 16 -25 16 C-25 15.34 -25 14.68 -25 14 C-19.54045091 12.1801503 -13.50982274 12.62254432 -8 14 C-7.91363281 13.38511719 -7.82726562 12.77023438 -7.73828125 12.13671875 C-6.57291293 5.43317807 -6.57291293 5.43317807 -3.4375 3.0625 C-2.2309375 2.5365625 -2.2309375 2.5365625 -1 2 C-0.67 1.34 -0.34 0.68 0 0 Z " fill="#AB6E83" transform="translate(230,243)"/>
<path d="M0 0 C-26.77740864 22.3145072 -66.44732158 26.89394775 -100 25 C-110.20854939 23.82965571 -120.26440499 21.24519834 -130 18 C-130 17.67 -130 17.34 -130 17 C-125.31054029 16.73947446 -121.65950437 16.96352736 -117.1875 18.4375 C-107.4879422 21.59029216 -97.19071951 21.16134657 -87.09033203 21.13037109 C-84.97551543 21.12493709 -82.86090455 21.13038844 -80.74609375 21.13671875 C-79.3932287 21.13605911 -78.04036378 21.13478032 -76.6875 21.1328125 C-75.47449219 21.13168457 -74.26148438 21.13055664 -73.01171875 21.12939453 C-69.95007332 21.13625497 -69.95007332 21.13625497 -67 20 C-65.67596781 19.81328192 -64.34678138 19.6614399 -63.015625 19.53515625 C-62.24476563 19.45716797 -61.47390625 19.37917969 -60.6796875 19.29882812 C-59.07574904 19.14281803 -57.47158334 18.98912466 -55.8671875 18.83789062 C-51.01570076 18.34226532 -46.66355388 17.41373143 -42 16 C-39.0625 15.875 -39.0625 15.875 -37 16 C-37 15.34 -37 14.68 -37 14 C-36.41734375 13.99742187 -35.8346875 13.99484375 -35.234375 13.9921875 C-27.57766089 13.63102174 -21.48888164 11.03016207 -15 7 C-14.67 6.34 -14.34 5.68 -14 5 C-11.67843403 4.59270772 -9.3431213 4.25561323 -7 4 C-7 2.68 -7 1.36 -7 0 C-3.98968256 -0.93423645 -3.13349732 -1.04449911 0 0 Z " fill="#6F86F1" transform="translate(322,331)"/>
<path d="M0 0 C3.16771848 2.58589264 4.64793729 4.04492835 5.3671875 8.0390625 C5.49125018 11.71958878 5.35200102 15.08799873 3 18 C-0.66597834 20.03665463 -3.85500511 20.59214213 -8 20 C-10.92354342 18.17108563 -13.43371681 16.13256637 -15 13 C-14.91255632 11.12137125 -14.75824458 9.24544819 -14.5625 7.375 C-14.40974609 5.87066406 -14.40974609 5.87066406 -14.25390625 4.3359375 C-14.17011719 3.56507813 -14.08632812 2.79421875 -14 2 C-9.24025709 -0.07819761 -5.15478203 -1.04400649 0 0 Z " fill="#5571F2" transform="translate(223,211)"/>
<path d="M0 0 C0.66 0.33 1.32 0.66 2 1 C-1.73736174 7.95433134 -5.74661276 11.57713719 -12.70703125 15.296875 C-15.23926648 16.82549415 -15.23926648 16.82549415 -15.82421875 19.703125 C-15.91123047 20.84007812 -15.91123047 20.84007812 -16 22 C-16.86625 22.12375 -16.86625 22.12375 -17.75 22.25 C-20.13441936 22.83913749 -20.13441936 22.83913749 -21.6875 24.875 C-24.13141439 27.12075917 -25.37978194 27.5170677 -28.5 28.375 C-33.15220587 29.74015549 -34.56528463 31.78606956 -37 36 C-37.99 36 -38.98 36 -40 36 C-40.0825 36.5775 -40.165 37.155 -40.25 37.75 C-41.53032253 41.59096758 -44.10323759 43.49693816 -47.5625 45.4375 C-50.40953044 47.26251952 -51.32900264 49.11373183 -53 52 C-54.485 52.495 -54.485 52.495 -56 53 C-57.22445284 54.62948064 -57.22445284 54.62948064 -58.1875 56.5625 C-59.0846875 58.2640625 -59.0846875 58.2640625 -60 60 C-60.66 60 -61.32 60 -62 60 C-57.46596207 44.5707366 -43.64954806 34.81696102 -31.27124023 25.6809082 C-20.42438421 17.66388948 -9.93083239 9.13084867 0 0 Z " fill="#8B9CF2" transform="translate(210,180)"/>
<path d="M0 0 C1.37562854 1.28965176 2.70766393 2.62689293 4 4 C4 4.66 4 5.32 4 6 C5.6396875 5.690625 5.6396875 5.690625 7.3125 5.375 C11 5 11 5 14 7 C15.1875 9.625 15.1875 9.625 16 12 C20.05102865 12.49790839 20.05102865 12.49790839 24 12 C26.17596146 9.93774674 27.60042821 7.63765454 29 5 C31.31 5.33 33.62 5.66 36 6 C36 5.34 36 4.68 36 4 C36.99 3.67 37.98 3.34 39 3 C39.3125 5.1875 39.3125 5.1875 39 8 C37.35 9.65 35.7 11.3 34 13 C46.375 12.505 46.375 12.505 59 12 C58.67 14.31 58.34 16.62 58 19 C56 17.625 56 17.625 54 16 C54 15.34 54 14.68 54 14 C46.74 14 39.48 14 32 14 C31.67 14.99 31.34 15.98 31 17 C30.34 17 29.68 17 29 17 C28.67 16.34 28.34 15.68 28 15 C27.02417969 15.05800781 26.04835937 15.11601562 25.04296875 15.17578125 C23.77066406 15.22089844 22.49835938 15.26601562 21.1875 15.3125 C19.29064453 15.39951172 19.29064453 15.39951172 17.35546875 15.48828125 C14 15 14 15 12.05078125 12.60546875 C11 10 11 10 11 8 C9.88625 8.2784375 9.88625 8.2784375 8.75 8.5625 C5.99998276 9.00000274 4.55050874 9.05538293 2 8 C0 5 0 5 -1 2 C-0.67 1.34 -0.34 0.68 0 0 Z " fill="#5A70ED" transform="translate(198,229)"/>
<path d="M0 0 C1.56041016 -0.03867188 1.56041016 -0.03867188 3.15234375 -0.078125 C6.4298597 0.29142042 7.75792102 0.92383245 10.0625 3.25 C10.8125 6.4375 10.8125 6.4375 11.0625 9.25 C12.09310547 9.19779297 12.09310547 9.19779297 13.14453125 9.14453125 C14.04558594 9.11746094 14.94664062 9.09039062 15.875 9.0625 C16.76832031 9.02769531 17.66164063 8.99289063 18.58203125 8.95703125 C21.47897515 9.29918998 22.28805028 10.00393573 24.0625 12.25 C23.7325 12.91 23.4025 13.57 23.0625 14.25 C22.4025 13.59 21.7425 12.93 21.0625 12.25 C18.40007179 11.78709779 18.40007179 11.78709779 15.4375 11.625 C14.43460937 11.55023438 13.43171875 11.47546875 12.3984375 11.3984375 C11.62757813 11.34945312 10.85671875 11.30046875 10.0625 11.25 C9.794375 10.115625 9.52625 8.98125 9.25 7.8125 C8.6621875 6.0490625 8.6621875 6.0490625 8.0625 4.25 C4.64017028 3.10922343 1.97576783 3.15184883 -1.625 3.1875 C-2.80449219 3.19652344 -3.98398437 3.20554688 -5.19921875 3.21484375 C-6.10285156 3.22644531 -7.00648438 3.23804688 -7.9375 3.25 C-8.5975 5.23 -9.2575 7.21 -9.9375 9.25 C-10.5975 9.25 -11.2575 9.25 -11.9375 9.25 C-11.9375 10.24 -11.9375 11.23 -11.9375 12.25 C-12.58976562 12.1571875 -13.24203125 12.064375 -13.9140625 11.96875 C-19.29977784 11.47018013 -19.29977784 11.47018013 -23.9375 13.85546875 C-26.91606089 17.67174989 -28.45470337 20.29485807 -27.9375 25.25 C-27.4425 25.724375 -26.9475 26.19875 -26.4375 26.6875 C-24.9375 28.25 -24.9375 28.25 -24.75 31.4375 C-24.811875 32.365625 -24.87375 33.29375 -24.9375 34.25 C-26.4225 34.745 -26.4225 34.745 -27.9375 35.25 C-28.2675 37.56 -28.5975 39.87 -28.9375 42.25 C-29.2675 42.25 -29.5975 42.25 -29.9375 42.25 C-30.125 39.4375 -30.125 39.4375 -29.9375 36.25 C-28.9375 35.25 -27.9375 34.25 -26.9375 33.25 C-26.93906224 30.65882687 -26.93906224 30.65882687 -27.9375 28.25 C-28.9275 27.59 -29.9175 26.93 -30.9375 26.25 C-33.40507744 22.74344259 -33.09798725 19.42266844 -32.9375 15.25 C-31.82375 15.023125 -30.71 14.79625 -29.5625 14.5625 C-25.77711627 13.64376342 -25.77711627 13.64376342 -24.5 10.625 C-24.314375 9.84125 -24.12875 9.0575 -23.9375 8.25 C-23.25042969 8.18941406 -22.56335938 8.12882813 -21.85546875 8.06640625 C-20.95441406 7.98261719 -20.05335938 7.89882812 -19.125 7.8125 C-17.78501953 7.69068359 -17.78501953 7.69068359 -16.41796875 7.56640625 C-13.81006441 7.31510233 -13.81006441 7.31510233 -10.9375 6.25 C-10.6075 5.425 -10.2775 4.6 -9.9375 3.75 C-9.6075 2.925 -9.2775 2.1 -8.9375 1.25 C-5.7609489 0.19114963 -3.33761989 0.04950734 0 0 Z " fill="#3693B8" transform="translate(286.9375,189.75)"/>
<path d="M0 0 C0.66 0 1.32 0 2 0 C4.20914 3.31371 4.22481553 4.3446021 4.125 8.1875 C4.10695313 9.08855469 4.08890625 9.98960937 4.0703125 10.91796875 C4.04710937 11.60503906 4.02390625 12.29210937 4 13 C3.34 13 2.68 13 2 13 C1.34 14.98 0.68 16.96 0 19 C1.32 19.66 2.64 20.32 4 21 C4.6006222 27.72696865 3.35565212 31.77321745 -1 37 C-4.20380017 39.13586678 -5.01939967 39.23132175 -8.6875 39.125 C-9.49574219 39.10695312 -10.30398438 39.08890625 -11.13671875 39.0703125 C-11.75160156 39.04710937 -12.36648438 39.02390625 -13 39 C-13.66 41.31 -14.32 43.62 -15 46 C-18.60993172 47.13480527 -21.9842327 47.10015767 -25.75 47.0625 C-26.92046875 47.05347656 -28.0909375 47.04445312 -29.296875 47.03515625 C-30.18890625 47.02355469 -31.0809375 47.01195312 -32 47 C-32.66 45.68 -33.32 44.36 -34 43 C-34.66 43 -35.32 43 -36 43 C-36.33 41.68 -36.66 40.36 -37 39 C-37.75925781 39.05800781 -38.51851563 39.11601562 -39.30078125 39.17578125 C-42.26602282 39.31039014 -45.051159 39.35177632 -48 39 C-50.25 36.75 -50.25 36.75 -51 34 C-50.6875 31.6875 -50.6875 31.6875 -50 30 C-49.67 31.32 -49.34 32.64 -49 34 C-44.38 34.66 -39.76 35.32 -35 36 C-34.34895833 38.05078125 -33.69791667 40.1015625 -33.046875 42.15234375 C-32.16366925 44.15947872 -32.16366925 44.15947872 -30.13671875 44.74609375 C-24.97264127 45.35974098 -20.0439444 45.2609861 -15 44 C-15.020625 43.030625 -15.04125 42.06125 -15.0625 41.0625 C-15 38 -15 38 -14 37 C-12.35892758 36.79160985 -10.71143707 36.63248275 -9.0625 36.5 C-5.39442535 36.24785057 -5.39442535 36.24785057 -2 35 C1.06351224 30.99386861 1.54407111 27.98731848 1 23 C0.03886134 21.63838689 -0.95884159 20.30144802 -2 19 C-2.375 16.4375 -2.375 16.4375 -2 14 C-1.505 13.54625 -1.01 13.0925 -0.5 12.625 C1.36288916 10.94551538 1.36288916 10.94551538 1.25 7.5625 C1.05961139 4.84946236 0.82235644 2.56986388 0 0 Z " fill="#3497B3" transform="translate(311,204)"/>
<path d="M0 0 C1.34245892 2.68491785 1.02549373 5.0850533 0.9375 8.02734375 C0.91266984 10.2147211 0.91266984 10.2147211 2 13 C2.66 13.2475 3.32 13.495 4 13.75 C6 15 6 15 6.875 18.375 C7.04395604 23.27472527 7.04395604 23.27472527 5 26 C4.29875 26.391875 3.5975 26.78375 2.875 27.1875 C0.56562153 29.41989918 0.66099484 30.23871678 0.5625 33.375 C0.73734604 37.37703168 1.62943489 39.71767907 4 43 C4.350625 43.886875 4.70125 44.77375 5.0625 45.6875 C5.88303421 48.1427942 5.88303421 48.1427942 8 50 C11.40371198 50.11851881 14.74595353 50.04214134 18.14648438 49.921875 C23.69957575 49.79971717 23.69957575 49.79971717 27 52 C27.51171875 54.3828125 27.51171875 54.3828125 27.6875 57.125 C27.75324219 58.03507812 27.81898438 58.94515625 27.88671875 59.8828125 C27.92410156 60.58148438 27.96148437 61.28015625 28 62 C26.51171875 60.73046875 26.51171875 60.73046875 25 59 C24.8125 55.3125 24.8125 55.3125 25 52 C23.2984375 52.2475 23.2984375 52.2475 21.5625 52.5 C20.04228342 52.67220152 18.52139336 52.83852541 17 53 C16.23300781 53.103125 15.46601563 53.20625 14.67578125 53.3125 C11.33004861 53.58515733 8.99970176 53.74700553 6.23828125 51.68359375 C1.50523495 46.35444591 -2.64870725 39.79396172 -3.3125 32.625 C-2.94884973 28.40665686 -1.95115008 26.95115008 1 24 C1.66 23.67 2.32 23.34 3 23 C2.75992144 17.96903498 2.75992144 17.96903498 -0.0625 14.0625 C-2.27714 11.70498 -2.31198961 11.1104221 -2.375 8 C-2.22511432 4.91004913 -1.74850342 2.62275513 0 0 Z " fill="#BB6E6B" transform="translate(200,269)"/>
<path d="M0 0 C0.90094391 0.04343536 1.80188782 0.08687073 2.73013306 0.13162231 C4.64524783 0.2249987 6.56023546 0.32101359 8.47509766 0.41943359 C11.36726092 0.56790983 14.25971655 0.70854479 17.15234375 0.84765625 C26.46372417 1.30406683 35.75750349 1.80336902 45.0390625 2.6953125 C45.5340625 4.1803125 45.5340625 4.1803125 46.0390625 5.6953125 C40.0990625 9.1603125 40.0990625 9.1603125 34.0390625 12.6953125 C35.3590625 13.6853125 36.6790625 14.6753125 38.0390625 15.6953125 C39.05707607 16.67696844 40.0637428 17.67122682 41.0390625 18.6953125 C39.5801199 18.21800412 38.12192754 17.73840208 36.6640625 17.2578125 C35.85195313 16.99097656 35.03984375 16.72414063 34.203125 16.44921875 C32.0390625 15.6953125 32.0390625 15.6953125 30.0390625 14.6953125 C31.30096388 10.90960836 32.58762065 10.47699679 35.9765625 8.5078125 C36.87246094 7.97800781 37.76835937 7.44820313 38.69140625 6.90234375 C41.0390625 5.6953125 41.0390625 5.6953125 43.0390625 5.6953125 C43.0390625 5.0353125 43.0390625 4.3753125 43.0390625 3.6953125 C42.03230469 3.70691406 41.02554688 3.71851562 39.98828125 3.73046875 C31.38393826 3.79676756 22.83983206 3.6242778 14.25268555 3.05102539 C6.80617283 2.58535895 -0.43478411 2.6953125 -7.9609375 2.6953125 C1.2790625 11.9353125 10.5190625 21.1753125 20.0390625 30.6953125 C16.15467746 30.6953125 15.09108644 29.10894734 12.43013 26.47756958 C11.83314804 25.87137787 11.23616608 25.26518616 10.62109375 24.640625 C9.69522713 23.71550613 9.69522713 23.71550613 8.75065613 22.771698 C7.44678303 21.4654829 6.14660574 20.15556981 4.84985352 18.84228516 C2.85785222 16.82667676 0.8528558 14.82472767 -1.15429688 12.82421875 C-2.4174614 11.55547825 -3.67985782 10.28597245 -4.94140625 9.015625 C-5.54446091 8.41348175 -6.14751556 7.8113385 -6.7688446 7.19094849 C-10.9609375 2.92632114 -10.9609375 2.92632114 -10.9609375 0.6953125 C-7.56361719 -1.00334766 -3.71749587 -0.1954178 0 0 Z " fill="#C0FBC1" transform="translate(272.9609375,95.3046875)"/>
<path d="M0 0 C0.96164063 0.09925781 1.92328125 0.19851562 2.9140625 0.30078125 C5.375 0.6875 5.375 0.6875 7.375 1.6875 C7.045 2.6775 6.715 3.6675 6.375 4.6875 C5.385 4.3575 4.395 4.0275 3.375 3.6875 C-1.279797 3.3821182 -1.279797 3.3821182 -5.625 4.6875 C-6.28055119 7.21483235 -6.28055119 7.21483235 -6.625 9.6875 C-10.03062852 10.46592938 -13.13265756 10.78728121 -16.625 10.6875 C-17.945 13.3275 -19.265 15.9675 -20.625 18.6875 C-19.965 18.6875 -19.305 18.6875 -18.625 18.6875 C-16.625 21.6875 -16.625 21.6875 -16.75 24.0625 C-17.80332848 27.22248545 -19.43060155 29.20995336 -21.625 31.6875 C-21.295 28.0575 -20.965 24.4275 -20.625 20.6875 C-21.285 20.6875 -21.945 20.6875 -22.625 20.6875 C-23.07874191 15.01572615 -22.27583143 12.0899732 -18.625 7.6875 C-17.965 7.6875 -17.305 7.6875 -16.625 7.6875 C-16.625 7.0275 -16.625 6.3675 -16.625 5.6875 C-14.645 5.3575 -12.665 5.0275 -10.625 4.6875 C-10.295 3.6975 -9.965 2.7075 -9.625 1.6875 C-6.38402425 -0.5989418 -3.8501674 -0.4306791 0 0 Z " fill="#8FA3E4" transform="translate(218.625,197.3125)"/>
<path d="M0 0 C0.33 0 0.66 0 1 0 C3.609896 11.68118501 4.26073053 23.05077541 4 35 C3.98743164 35.77666016 3.97486328 36.55332031 3.96191406 37.35351562 C3.70855807 50.62109687 1.98465782 63.07573755 -1 76 C-1.33 76 -1.66 76 -2 76 C-2.08576823 71.44856567 -1.80471212 67.23577834 -1.0625 62.75 C3.10510153 35.16421861 3.10510153 35.16421861 0 8 C-0.12781786 5.32605036 -0.04391871 2.67904143 0 0 Z " fill="#B4BFEF" transform="translate(356,200)"/>
<path d="M0 0 C0.66 0.33 1.32 0.66 2 1 C1.01 1.825 0.02 2.65 -1 3.5 C-5.42674542 8.49827359 -4.49348655 14.47115034 -4.2109375 20.74609375 C-4.14132813 21.81988281 -4.07171875 22.89367187 -4 24 C-3.360625 24.268125 -2.72125 24.53625 -2.0625 24.8125 C0 26 0 26 1 29 C1.99 29.33 2.98 29.66 4 30 C4.33 31.32 4.66 32.64 5 34 C9.62 34 14.24 34 19 34 C14.74959711 36.83360193 10.98846654 36.41305774 6 36 C2.875 35 2.875 35 1 34 C1 33.34 1 32.68 1 32 C0.4225 31.7525 -0.155 31.505 -0.75 31.25 C-4.48597363 29.17445909 -6.64391315 27.06826056 -8 23 C-8.14619515 20.71148355 -8.22091336 18.41799684 -8.25 16.125 C-8.28867188 14.30355469 -8.28867188 14.30355469 -8.328125 12.4453125 C-7.846008 7.38308402 -6.11242947 4.95720675 -2.3125 1.6875 C-1.549375 1.130625 -0.78625 0.57375 0 0 Z " fill="#906DA1" transform="translate(229,273)"/>
<path d="M0 0 C3.375 0.9375 3.375 0.9375 5.375 3.9375 C5.75 6.9375 5.75 6.9375 5.375 9.9375 C3.12327097 12.53564888 1.72482295 12.89466454 -1.6875 13.3125 C-4.625 12.9375 -4.625 12.9375 -6.5 11.8125 C-8.17968045 9.01303259 -8.08242277 7.13945936 -7.625 3.9375 C-5.31085172 0.32742869 -4.32918251 -0.07464108 0 0 Z " fill="#737EBC" transform="translate(309.625,262.0625)"/>
<path d="M0 0 C1.65 0 3.3 0 5 0 C5.38218767 1.65614657 5.71395102 3.32457024 6 5 C5 6 5 6 3.15234375 6.09765625 C1.1015625 6.06510417 -0.94921875 6.03255208 -3 6 C-3.36181089 8.29047223 -3.71423224 10.58242945 -4.0625 12.875 C-4.35833984 14.78925781 -4.35833984 14.78925781 -4.66015625 16.7421875 C-5.28280729 19.88238542 -5.28280729 19.88238542 -4 22 C-5.98 22 -7.96 22 -10 22 C-9.98839844 21.25234375 -9.97679687 20.5046875 -9.96484375 19.734375 C-9.95582031 18.74953125 -9.94679688 17.7646875 -9.9375 16.75 C-9.92589844 15.77546875 -9.91429687 14.8009375 -9.90234375 13.796875 C-9.98804423 11.34241322 -10.29293934 9.33831086 -11 7 C-10.34 7 -9.68 7 -9 7 C-9 6.34 -9 5.68 -9 5 C-6.03 4.01 -3.06 3.02 0 2 C0 1.34 0 0.68 0 0 Z " fill="#F7DD65" transform="translate(306,255)"/>
<path d="M0 0 C0.69867188 -0.00708984 1.39734375 -0.01417969 2.1171875 -0.02148438 C6.57706532 0.03321224 9.40842176 0.79291993 13 3.4375 C12.34 3.7675 11.68 4.0975 11 4.4375 C10.34 4.1075 9.68 3.7775 9 3.4375 C6.12089412 3.20475791 3.25853505 3.01777243 0.375 2.875 C-0.42679688 2.83181641 -1.22859375 2.78863281 -2.0546875 2.74414062 C-4.0362511 2.63798543 -6.01810271 2.53723145 -8 2.4375 C-8.12375 3.076875 -8.2475 3.71625 -8.375 4.375 C-8.684375 5.3959375 -8.684375 5.3959375 -9 6.4375 C-9.99 6.9325 -9.99 6.9325 -11 7.4375 C-11.65555119 9.96483235 -11.65555119 9.96483235 -12 12.4375 C-11.34 12.4375 -10.68 12.4375 -10 12.4375 C-10 11.4475 -10 10.4575 -10 9.4375 C-9.34 9.4375 -8.68 9.4375 -8 9.4375 C-8 10.7575 -8 12.0775 -8 13.4375 C-9.4540625 14.118125 -9.4540625 14.118125 -10.9375 14.8125 C-14.07079582 16.09536221 -14.07079582 16.09536221 -15 18.4375 C-15.78503906 18.40269531 -16.57007813 18.36789062 -17.37890625 18.33203125 C-23.79387548 18.16673756 -28.33905967 18.360902 -34 21.4375 C-34.66 21.7675 -35.32 22.0975 -36 22.4375 C-34.697001 19.53080992 -33.60798895 17.31031511 -31 15.4375 C-28.40240075 15.29849803 -26.01789375 15.29102543 -23.4375 15.4375 C-20.89925393 15.58076883 -18.55322656 15.57951028 -16 15.4375 C-13.84124327 12.19936491 -13.73232983 10.28974456 -13.63671875 6.47265625 C-11.64870639 0.11833454 -5.72352117 -0.16368003 0 0 Z " fill="#D56D48" transform="translate(240,243.5625)"/>
<path d="M0 0 C0.33 0 0.66 0 1 0 C1.19259356 5.48891649 0.78859394 9.73358452 -1 15 C-1.268125 15.886875 -1.53625 16.77375 -1.8125 17.6875 C-3.90085391 21.75429446 -6.84146992 23.57441752 -11.0625 25.125 C-12.031875 25.41375 -13.00125 25.7025 -14 26 C-15.34721283 26.63815344 -16.68747118 27.29325371 -18 28 C-21 24.25 -21 24.25 -21 22 C-22.65 22.33 -24.3 22.66 -26 23 C-26.33 25.64 -26.66 28.28 -27 31 C-27.66 31 -28.32 31 -29 31 C-29.1953125 24.9453125 -29.1953125 24.9453125 -29 23 C-27 21 -27 21 -23.4453125 20.9453125 C-21.27499938 21.02153422 -19.10928422 21.12592777 -16.94140625 21.25390625 C-13.37037219 21.36570658 -11.45159806 21.34704803 -8.5703125 19.1328125 C-7.10725752 17.14567812 -5.97099876 15.26566378 -5 13 C-4.34 13 -3.68 13 -3 13 C-1.41744803 8.67435795 -0.54855348 4.571279 0 0 Z " fill="#806DB9" transform="translate(284,299)"/>
<path d="M0 0 C0.66 0.33 1.32 0.66 2 1 C-1.73736174 7.95433134 -5.74661276 11.57713719 -12.70703125 15.296875 C-15.23926648 16.82549415 -15.23926648 16.82549415 -15.82421875 19.703125 C-15.88222656 20.46109375 -15.94023437 21.2190625 -16 22 C-16.86625 22.12375 -16.86625 22.12375 -17.75 22.25 C-20.16524413 22.86285107 -20.16524413 22.86285107 -21.9375 25 C-24.30854261 27.29919283 -25.77231982 27.64136887 -29 28 C-26.66707795 21.95644603 -22.82404501 18.99039407 -17.875 15.125 C-16.34139719 13.89714455 -14.80883669 12.66798606 -13.27734375 11.4375 C-12.54112793 10.8496875 -11.80491211 10.261875 -11.04638672 9.65625 C-7.24054465 6.57597887 -3.60755673 3.30949649 0 0 Z " fill="#5D74EE" transform="translate(210,180)"/>
<path d="M0 0 C1.39482079 -0.08204828 2.79108728 -0.13966204 4.1875 -0.1875 C5.35345703 -0.23970703 5.35345703 -0.23970703 6.54296875 -0.29296875 C9.754592 0.0899752 11.43317699 1.03321353 14 3 C18.28812335 9.27870556 21.04868679 15.39702077 20 23 C19.08833145 26.51643585 18.56707742 28.43292258 16 31 C15.61920621 34.61754103 16.15348866 36.88401212 18 40 C12.125 37.125 12.125 37.125 11 36 C10.58589885 33.0322751 10.46225909 30.88887769 12.046875 28.26953125 C13.375 26.625 13.375 26.625 16 24 C16.66 24 17.32 24 18 24 C17.88541307 22.56163249 17.75790884 21.12429034 17.625 19.6875 C17.55539062 18.88699219 17.48578125 18.08648437 17.4140625 17.26171875 C17.10435574 14.72775559 17.10435574 14.72775559 15 12 C15 10.68 15 9.36 15 8 C14.34 8 13.68 8 13 8 C12.29875 7.030625 11.5975 6.06125 10.875 5.0625 C9.26858982 3.01227679 8.41793009 2.1232855 5.89453125 1.37890625 C3.93853371 1.15387998 1.96776872 1.06670402 0 1 C0 0.67 0 0.34 0 0 Z " fill="#796DC2" transform="translate(266,257)"/>
<path d="M0 0 C-11.27152936 6.15387736 -27.66289075 5.28307762 -40.125 5.3125 C-41.77544312 5.32047607 -41.77544312 5.32047607 -43.45922852 5.32861328 C-50.80616683 5.26542573 -57.79346615 4.41490387 -65 3 C-65 2.67 -65 2.34 -65 2 C-63.68281982 2.00523682 -62.36563965 2.01047363 -61.00854492 2.01586914 C-56.12769244 2.03395149 -51.24684293 2.04544389 -46.3659668 2.05493164 C-44.25235496 2.05996444 -42.13874662 2.0667912 -40.02514648 2.07543945 C-36.98941182 2.08755104 -33.95372314 2.09323881 -30.91796875 2.09765625 C-29.97100632 2.10281754 -29.02404388 2.10797882 -28.04838562 2.11329651 C-27.16769913 2.11337204 -26.28701263 2.11344757 -25.37963867 2.11352539 C-24.60464523 2.115746 -23.82965179 2.11796661 -23.03117371 2.12025452 C-20.79559412 2.07609077 -20.79559412 2.07609077 -18 1 C-12.01039381 0.22745525 -6.03540497 -0.13412011 0 0 Z " fill="#C7CEF3" transform="translate(275,351)"/>
<path d="M0 0 C-9.896555 8.24712917 -21.56353959 13.41154353 -33.6875 17.5 C-34.44144043 17.75523437 -35.19538086 18.01046875 -35.97216797 18.2734375 C-39.73758465 19.48299161 -43.03557973 20.31277477 -47 20 C-46.34 19.34 -45.68 18.68 -45 18 C-44.01 18 -43.02 18 -42 18 C-42 17.34 -42 16.68 -42 16 C-40.35 16 -38.7 16 -37 16 C-37 15.34 -37 14.68 -37 14 C-36.41734375 13.99742187 -35.8346875 13.99484375 -35.234375 13.9921875 C-27.57766089 13.63102174 -21.48888164 11.03016207 -15 7 C-14.67 6.34 -14.34 5.68 -14 5 C-11.67843403 4.59270772 -9.3431213 4.25561323 -7 4 C-7 2.68 -7 1.36 -7 0 C-3.98968256 -0.93423645 -3.13349732 -1.04449911 0 0 Z " fill="#B3BDF0" transform="translate(322,331)"/>
<path d="M0 0 C2 1.125 2 1.125 4 3 C4.125 6.1171875 4.125 6.1171875 4 9 C5.75376953 9.02126953 5.75376953 9.02126953 7.54296875 9.04296875 C9.09118457 9.08988438 10.63936044 9.13813169 12.1875 9.1875 C12.95642578 9.19330078 13.72535156 9.19910156 14.51757812 9.20507812 C18.82975988 9.37164309 20.55573032 9.64674588 24.05078125 12.42578125 C26 15 26 15 26 17 C26.66 17 27.32 17 28 17 C27.67 18.32 27.34 19.64 27 21 C27 20.34 27 19.68 27 19 C26.360625 18.71125 25.72125 18.4225 25.0625 18.125 C23 17 23 17 22 15 C21.01 14.67 20.02 14.34 19 14 C19 13.34 19 12.68 19 12 C14.65815798 12.18464366 14.65815798 12.18464366 11 14 C8.125 14.3125 8.125 14.3125 5 14 C1.51067433 10.99196063 1.47973727 7.39759165 1 3 C0.67 2.01 0.34 1.02 0 0 Z " fill="#D36E44" transform="translate(253,248)"/>
<path d="M0 0 C0.33 0 0.66 0 1 0 C1.125 7.625 1.125 7.625 0 11 C-0.08378628 13.2838517 -0.10729915 15.570101 -0.09765625 17.85546875 C-0.0962413 18.51710526 -0.09482635 19.17874176 -0.09336853 19.86042786 C-0.08777996 21.96949828 -0.07522965 24.07846177 -0.0625 26.1875 C-0.05748352 27.61913909 -0.05292087 29.05077985 -0.04882812 30.48242188 C-0.0378143 33.98831588 -0.02055755 37.4941475 0 41 C0.99 41 1.98 41 3 41 C3.33 44.96 3.66 48.92 4 53 C-3.84357925 42.54189434 -4.21071819 26.63669223 -3 14 C-2.31275437 9.26026369 -1.24848278 4.62235888 0 0 Z " fill="#BFC8EF" transform="translate(142,254)"/>
<path d="M0 0 C1.5625 1.1875 1.5625 1.1875 3 3 C2.6875 5.6875 2.6875 5.6875 2 8 C-0.31 8.66 -2.62 9.32 -5 10 C-5.33 11.32 -5.66 12.64 -6 14 C-7.98 14 -9.96 14 -12 14 C-12.66 12.02 -13.32 10.04 -14 8 C-13.32453125 7.92523438 -12.6490625 7.85046875 -11.953125 7.7734375 C-6.76588911 7.1596108 -6.76588911 7.1596108 -2.4453125 4.53125 C-1.22851915 2.72539431 -1.22851915 2.72539431 0 0 Z " fill="#F8DD67" transform="translate(318,269)"/>
<path d="M0 0 C2.08304538 -0.05418326 4.16649768 -0.09287551 6.25 -0.125 C7.99023438 -0.15980469 7.99023438 -0.15980469 9.765625 -0.1953125 C12.85166412 -0.00895748 14.54173503 0.15630127 17 2 C17.75 5.625 17.75 5.625 18 9 C18.74765625 8.94199219 19.4953125 8.88398438 20.265625 8.82421875 C28.36218679 8.45330296 28.36218679 8.45330296 31.625 11.25 C32.78058593 13.56117185 33.62293284 15.45479667 34 18 C33.01 18 32.02 18 31 18 C31 16.35 31 14.7 31 13 C29.35 13.33 27.7 13.66 26 14 C25.67 13.01 25.34 12.02 25 11 C23.1128125 10.8453125 23.1128125 10.8453125 21.1875 10.6875 C18.58705417 10.35611575 17.21441901 10.14071247 15 8.6875 C14 7 14 7 14 3 C6.45952096 1.92140138 6.45952096 1.92140138 -1 3 C-0.67 2.01 -0.34 1.02 0 0 Z " fill="#22B47C" transform="translate(279,192)"/>
<path d="M0 0 C0.18304688 0.63421875 0.36609375 1.2684375 0.5546875 1.921875 C1.91099877 4.35599986 1.91099877 4.35599986 5.2578125 4.828125 C6.53398437 4.96734375 7.81015625 5.1065625 9.125 5.25 C10.40632813 5.39953125 11.68765625 5.5490625 13.0078125 5.703125 C13.99523437 5.80109375 14.98265625 5.8990625 16 6 C16.17015625 6.56589844 16.3403125 7.13179687 16.515625 7.71484375 C16.75796875 8.44832031 17.0003125 9.18179688 17.25 9.9375 C17.48203125 10.66839844 17.7140625 11.39929688 17.953125 12.15234375 C18.83612829 14.15871484 18.83612829 14.15871484 20.859375 14.74609375 C25.58780696 15.30694791 30.43085645 15.52304785 35 14 C35 14.66 35 15.32 35 16 C31.57767028 17.14077657 28.91326783 17.09815117 25.3125 17.0625 C23.54326172 17.04896484 23.54326172 17.04896484 21.73828125 17.03515625 C20.83464844 17.02355469 19.93101562 17.01195312 19 17 C18.34 15.68 17.68 14.36 17 13 C16.34 13 15.68 13 15 13 C14.67 11.68 14.34 10.36 14 9 C13.24074219 9.05800781 12.48148437 9.11601562 11.69921875 9.17578125 C8.7341428 9.31038262 5.94863121 9.3522701 3 9 C-0.05032323 5.86252467 0 4.40147041 0 0 Z " fill="#329BAA" transform="translate(260,234)"/>
<path d="M0 0 C12.2964227 6.80502552 19.43256984 20.40770502 24.0625 33.25 C25 37 25 37 24 40 C23.66226562 39.14535156 23.32453125 38.29070312 22.9765625 37.41015625 C22.53054688 36.30542969 22.08453125 35.20070312 21.625 34.0625 C20.96371094 32.40927734 20.96371094 32.40927734 20.2890625 30.72265625 C19.28958568 27.88769814 19.28958568 27.88769814 17 27 C16.31060191 24.67328146 15.64533078 22.33932406 15 20 C13.27773504 16.75150023 13.27773504 16.75150023 10 16 C9.6596875 14.453125 9.6596875 14.453125 9.3125 12.875 C8.24985128 8.31407408 5.258505 6.26328591 1.6796875 3.48046875 C0.84824219 2.74763672 0.84824219 2.74763672 0 2 C0 1.34 0 0.68 0 0 Z " fill="#BDC5EE" transform="translate(331,159)"/>
<path d="M0 0 C3.375 0.75 3.375 0.75 7 2 C8.25 4.0625 8.25 4.0625 9 6 C9.99 6.33 10.98 6.66 12 7 C13.10977901 10.32933702 13.13301537 12.87228308 13.125 16.375 C13.12757813 17.49648438 13.13015625 18.61796875 13.1328125 19.7734375 C12.93098906 24.67655994 12.80343101 27.11818547 9.4375 30.8125 C8.633125 31.534375 7.82875 32.25625 7 33 C6.34 32.67 5.68 32.34 5 32 C5.66 31.34 6.32 30.68 7 30 C7.71408334 28.01643517 8.38617742 26.01684563 9 24 C9.66 24 10.32 24 11 24 C11 19.38 11 14.76 11 10 C10.34 10 9.68 10 9 10 C8.773125 9.21625 8.54625 8.4325 8.3125 7.625 C6.66171907 4.32343815 5.38223927 4.18378375 2 3 C1.34 2.01 0.68 1.02 0 0 Z " fill="#946C9E" transform="translate(247,272)"/>
<path d="M0 0 C1.670625 0.061875 1.670625 0.061875 3.375 0.125 C2.715 0.785 2.055 1.445 1.375 2.125 C0.055 2.125 -1.265 2.125 -2.625 2.125 C-2.625 2.785 -2.625 3.445 -2.625 4.125 C-3.285 4.125 -3.945 4.125 -4.625 4.125 C-4.29757812 4.66640625 -3.97015625 5.2078125 -3.6328125 5.765625 C-2.40835233 8.63219067 -2.42607854 10.7702987 -2.5 13.875 C-2.51804687 14.85984375 -2.53609375 15.8446875 -2.5546875 16.859375 C-2.58949219 17.98085938 -2.58949219 17.98085938 -2.625 19.125 C0.015 19.455 2.655 19.785 5.375 20.125 C5.705 21.445 6.035 22.765 6.375 24.125 C8.355 24.455 10.335 24.785 12.375 25.125 C12.375 25.455 12.375 25.785 12.375 26.125 C9.735 26.125 7.095 26.125 4.375 26.125 C3.715 24.805 3.055 23.485 2.375 22.125 C1.611875 22.186875 0.84875 22.24875 0.0625 22.3125 C-2.625 22.125 -2.625 22.125 -4.5 21.0625 C-6.28929381 17.98093844 -5.34826369 15.50023055 -4.625 12.125 C-4.295 11.135 -3.965 10.145 -3.625 9.125 C-4.615 8.795 -5.605 8.465 -6.625 8.125 C-5.59036145 0.19277108 -5.59036145 0.19277108 0 0 Z " fill="#E3D698" transform="translate(299.625,257.875)"/>
<path d="M0 0 C0.33 0.99 0.66 1.98 1 3 C-0.32 3.33 -1.64 3.66 -3 4 C-3 4.99 -3 5.98 -3 7 C-2.01 7 -1.02 7 0 7 C0 7.66 0 8.32 0 9 C0.99 8.67 1.98 8.34 3 8 C5.06145107 7.931009 7.12501401 7.91532273 9.1875 7.9375 C10.81751953 7.95103516 10.81751953 7.95103516 12.48046875 7.96484375 C13.31191406 7.97644531 14.14335937 7.98804688 15 8 C14.67 9.32 14.34 10.64 14 12 C13.67 11.67 13.34 11.34 13 11 C9.59967346 10.93975058 6.2140947 10.97998967 2.81445312 11.0390625 C-2.79971717 11.10014142 -2.79971717 11.10014142 -5 10 C-5.4140625 7.93359375 -5.4140625 7.93359375 -5.625 5.4375 C-5.69976562 4.61121094 -5.77453125 3.78492188 -5.8515625 2.93359375 C-5.90054687 2.29550781 -5.94953125 1.65742188 -6 1 C-3 0 -3 0 0 0 Z " fill="#5B70EA" transform="translate(262,247)"/>
<path d="M0 0 C4.43354127 8.86708254 4.17843596 19.67733771 4.1875 29.4375 C4.1887085 30.67886719 4.1887085 30.67886719 4.18994141 31.9453125 C4.14378488 37.04099275 3.72391851 41.95573582 3 47 C2.67 47 2.34 47 2 47 C1.34 31.49 0.68 15.98 0 0 Z " fill="#BAFBBB" transform="translate(385,208)"/>
<path d="M0 0 C3.08724139 1.54362069 4.71039204 2.37505652 6.1875 5.5625 C6.455625 6.366875 6.72375 7.17125 7 8 C8.95220454 10.40691896 8.95220454 10.40691896 12.58984375 10.125 C14.7763603 10.07681231 16.9608242 9.99917509 19.14648438 9.921875 C24.69957575 9.79971717 24.69957575 9.79971717 28 12 C28.51171875 14.3828125 28.51171875 14.3828125 28.6875 17.125 C28.75324219 18.03507812 28.81898438 18.94515625 28.88671875 19.8828125 C28.92410156 20.58148438 28.96148437 21.28015625 29 22 C27.51171875 20.73046875 27.51171875 20.73046875 26 19 C25.8125 15.3125 25.8125 15.3125 26 12 C24.865625 12.165 23.73125 12.33 22.5625 12.5 C21.04228342 12.67220152 19.52139336 12.83852541 18 13 C17.23300781 13.103125 16.46601563 13.20625 15.67578125 13.3125 C12.25210454 13.59150931 9.97537388 13.77181759 7.203125 11.578125 C5.65850539 9.78881318 4.31625878 7.96173183 3 6 C2.38125 5.236875 1.7625 4.47375 1.125 3.6875 C0 2 0 2 0 0 Z " fill="#B16E7C" transform="translate(199,309)"/>
<path d="M0 0 C3.582906 -0.14533755 7.16505417 -0.23407931 10.75 -0.3125 C11.76578125 -0.35439453 12.7815625 -0.39628906 13.828125 -0.43945312 C21.39500069 -0.56390832 21.39500069 -0.56390832 24.703125 2.51953125 C25.13109375 3.33808594 25.5590625 4.15664062 26 5 C25.67 5.66 25.34 6.32 25 7 C24.401875 6.360625 23.80375 5.72125 23.1875 5.0625 C19.33986596 1.43473076 15.14541596 1.72450374 10.125 1.625 C9.41730469 1.58761719 8.70960938 1.55023438 7.98046875 1.51171875 C4.04314503 1.44573008 2.23815133 1.81448589 -0.8984375 4.2578125 C-2.73845716 6.65873035 -3.85787372 8.39954773 -4.75 11.25 C-6 15 -6 15 -7 16 C-8.66617115 16.04063832 -10.33388095 16.042721 -12 16 C-11.35933594 15.76152344 -10.71867188 15.52304687 -10.05859375 15.27734375 C-7.81615172 14.19515548 -7.81615172 14.19515548 -7.34765625 11.94140625 C-7.25355469 11.15636719 -7.15945312 10.37132812 -7.0625 9.5625 C-6.29792212 5.22525819 -6.29792212 5.22525819 -3.4375 3.0625 C-2.2309375 2.5365625 -2.2309375 2.5365625 -1 2 C-0.67 1.34 -0.34 0.68 0 0 Z " fill="#7E6CB9" transform="translate(230,243)"/>
<path d="M0 0 C1.37562854 1.28965176 2.70766393 2.62689293 4 4 C4 4.66 4 5.32 4 6 C5.6396875 5.690625 5.6396875 5.690625 7.3125 5.375 C11 5 11 5 14 7 C15.1875 9.625 15.1875 9.625 16 12 C20.0303028 12.34646126 20.0303028 12.34646126 24 12 C26.5404226 9.66169042 26.5404226 9.66169042 28 7 C27.25 11.75 27.25 11.75 25 14 C20.33229909 14.69934195 16.27729838 14.91235599 12.375 12.125 C11 10 11 10 11 8 C9.88625 8.2784375 9.88625 8.2784375 8.75 8.5625 C5.99998276 9.00000274 4.55050874 9.05538293 2 8 C0 5 0 5 -1 2 C-0.67 1.34 -0.34 0.68 0 0 Z " fill="#AEBEEC" transform="translate(198,229)"/>
<path d="M0 0 C0.99 0 1.98 0 3 0 C3 2.64 3 5.28 3 8 C5.46278801 8 6.85224119 7.14547137 9 6 C9.33 8.31 9.66 10.62 10 13 C14.62 13 19.24 13 24 13 C24 13.33 24 13.66 24 14 C20.72963272 14.14510162 17.46008993 14.23399373 14.1875 14.3125 C12.7943457 14.3753418 12.7943457 14.3753418 11.37304688 14.43945312 C8.82764538 14.485399 6.50363797 14.46508903 4 14 C1.19158392 11.02391729 0.61180443 8.19817941 0.3125 4.1875 C0.24675781 3.39730469 0.18101562 2.60710937 0.11328125 1.79296875 C0.07589844 1.20128906 0.03851563 0.60960937 0 0 Z " fill="#D96E41" transform="translate(226,320)"/>
<path d="M0 0 C0.66 0.33 1.32 0.66 2 1 C0 4 0 4 -3 5 C-4.14270927 6.41158204 -5.28371373 7.82459455 -6.4140625 9.24609375 C-10.6140272 13.8908823 -16.36726423 18.2689766 -22 21 C-22.66 20.67 -23.32 20.34 -24 20 C-16.34606601 12.857504 -8.285131 6.38695257 0 0 Z " fill="#A2AEEE" transform="translate(236,159)"/>
<path d="M0 0 C1.32 0.33 2.64 0.66 4 1 C2.7625 2.0209375 2.7625 2.0209375 1.5 3.0625 C-1.2743316 5.79709578 -1.2743316 5.79709578 -1.5 9.375 C-0.53550289 16.36760407 2.40841981 20.87284996 6.6953125 26.30078125 C8 28 8 28 9 30 C5.16129726 28.43608407 2.69027637 26.1265374 0 23 C-0.8125 20.1875 -0.8125 20.1875 -1 18 C-1.66 18 -2.32 18 -3 18 C-4.67479795 12.97560615 -4.23615622 8.09914442 -3 3 C-2.34 3 -1.68 3 -1 3 C-0.67 2.01 -0.34 1.02 0 0 Z " fill="#656EDB" transform="translate(199,292)"/>
<path d="M0 0 C2.91952568 0.01748219 5.72297885 0.13944633 8.625 0.375 C9.42679688 0.43171875 10.22859375 0.4884375 11.0546875 0.546875 C13.03715498 0.68847982 15.01869051 0.84302259 17 1 C17 1.66 17 2.32 17 3 C17.598125 2.835 18.19625 2.67 18.8125 2.5 C21 2 21 2 24 2 C23.67 4.64 23.34 7.28 23 10 C20 9 20 9 18 6 C11.69698773 2.35825958 5.15710575 2.31211439 -2 2 C-1.34 1.34 -0.68 0.68 0 0 Z " fill="#CC6E4F" transform="translate(236,269)"/>
<path d="M0 0 C0.5878125 0.48984375 1.175625 0.9796875 1.78125 1.484375 C0.97300781 1.42636719 0.16476562 1.36835938 -0.66796875 1.30859375 C-7.36320669 0.97164837 -7.36320669 0.97164837 -13.46875 3.359375 C-15.95101461 7.79199037 -15.59688368 11.52662231 -15.21875 16.484375 C-15.21875 17.474375 -15.21875 18.464375 -15.21875 19.484375 C-17.32758522 17.77722268 -18.14746224 16.89672579 -18.6171875 14.1796875 C-18.55899277 7.79766516 -17.85872738 4.12435238 -13.21875 -0.515625 C-8.91637466 -2.10909735 -3.86171562 -2.6379325 0 0 Z " fill="#3298B0" transform="translate(291.21875,209.515625)"/>
<path d="M0 0 C5.59537572 1.78034682 5.59537572 1.78034682 8.1875 3.1875 C10.16687603 4.3202776 10.16687603 4.3202776 13 3 C13.99 3.66 14.98 4.32 16 5 C15.01 5 14.02 5 13 5 C13 5.99 13 6.98 13 8 C13.86625 8.2475 14.7325 8.495 15.625 8.75 C19.18302254 10.06778613 21.9226155 11.80186822 25 14 C24.01 14.495 24.01 14.495 23 15 C20.72764 14.08260632 18.61244906 13.11283089 16.4375 12 C15.81214355 11.68401855 15.18678711 11.36803711 14.54248047 11.04248047 C9.24974505 8.28786155 4.37106479 5.09353687 0 1 C0 0.67 0 0.34 0 0 Z " fill="#B0BBED" transform="translate(167,333)"/>
<path d="M0 0 C0.66 0.33 1.32 0.66 2 1 C1.67 1.886875 1.34 2.77375 1 3.6875 C0.07038026 6.7668654 -0.42804911 8.8324366 0 12 C0.495 12.474375 0.99 12.94875 1.5 13.4375 C3 15 3 15 3.1875 18.1875 C3.125625 19.115625 3.06375 20.04375 3 21 C2.01 21.33 1.02 21.66 0 22 C-0.33 24.31 -0.66 26.62 -1 29 C-1.33 29 -1.66 29 -2 29 C-2.1875 26.1875 -2.1875 26.1875 -2 23 C-1 22 0 21 1 20 C0.99843776 17.40882687 0.99843776 17.40882687 0 15 C-0.99 14.34 -1.98 13.68 -3 13 C-5.46757744 9.49344259 -5.16048725 6.17266844 -5 2 C-2.625 0.9375 -2.625 0.9375 0 0 Z " fill="#4186D1" transform="translate(259,203)"/>
<path d="M0 0 C9.75626089 0.4434664 18.45297957 6.16821149 26 12 C25.01 12.495 25.01 12.495 24 13 C22.265625 12.29296875 22.265625 12.29296875 20.25 11.1875 C16.90654977 9.42425709 13.63156259 8.08946878 10 7 C10 6.34 10 5.68 10 5 C9.36191406 4.89042969 8.72382813 4.78085938 8.06640625 4.66796875 C7.24011719 4.50941406 6.41382813 4.35085937 5.5625 4.1875 C4.73878906 4.03667969 3.91507812 3.88585937 3.06640625 3.73046875 C2.38449219 3.48941406 1.70257813 3.24835938 1 3 C0.67 2.01 0.34 1.02 0 0 Z " fill="#9FACE9" transform="translate(305,146)"/>
<path d="M0 0 C0.33 0 0.66 0 1 0 C1.48541424 7.40256709 1.48541424 7.40256709 -0.625 10 C-3.55382336 11.23318878 -5.85288821 11.2145758 -9 11 C-9.33 11.99 -9.66 12.98 -10 14 C-13.3 14 -16.6 14 -20 14 C-20.33 12.68 -20.66 11.36 -21 10 C-23.31 10 -25.62 10 -28 10 C-28.33 8.68 -28.66 7.36 -29 6 C-27.515 6.99 -27.515 6.99 -26 8 C-23.37468476 8.16713569 -23.37468476 8.16713569 -21 8 C-20.34 9.32 -19.68 10.64 -19 12 C-16.36 12 -13.72 12 -11 12 C-10.34 10.68 -9.68 9.36 -9 8 C-6.69 8 -4.38 8 -2 8 C-1.34 5.36 -0.68 2.72 0 0 Z " fill="#8088AF" transform="translate(323,271)"/>
<path d="M0 0 C0.66 0.33 1.32 0.66 2 1 C-1.71230523 7.55112688 -5.85889501 13.01371973 -13 16 C-15.2734375 15.6484375 -15.2734375 15.6484375 -17 15 C-11.39476999 9.92484204 -5.76774721 4.89004655 0 0 Z " fill="#8C9DF0" transform="translate(210,180)"/>
<path d="M0 0 C0.042721 1.66611905 0.04063832 3.33382885 0 5 C-0.33 5.33 -0.66 5.66 -1 6 C-2.52519276 5.91062197 -4.04681929 5.75462854 -5.5625 5.5625 C-6.38878906 5.46066406 -7.21507812 5.35882813 -8.06640625 5.25390625 C-8.70449219 5.17011719 -9.34257812 5.08632812 -10 5 C-10.12375 5.78375 -10.2475 6.5675 -10.375 7.375 C-11 10 -11 10 -13 12 C-15.8203125 12.1953125 -15.8203125 12.1953125 -19.125 12.125 C-20.22070312 12.10695312 -21.31640625 12.08890625 -22.4453125 12.0703125 C-23.70988281 12.03550781 -23.70988281 12.03550781 -25 12 C-25.66 10.35 -26.32 8.7 -27 7 C-26.61199219 7.49113281 -26.22398437 7.98226562 -25.82421875 8.48828125 C-23.38788304 10.50725753 -21.93069328 10.30898805 -18.8125 10.1875 C-17.91144531 10.16042969 -17.01039063 10.13335937 -16.08203125 10.10546875 C-15.05142578 10.05326172 -15.05142578 10.05326172 -14 10 C-12.68 7.36 -11.36 4.72 -10 2 C-7.69 2.33 -5.38 2.66 -3 3 C-3 2.34 -3 1.68 -3 1 C-1 0 -1 0 0 0 Z " fill="#8396E3" transform="translate(237,232)"/>
<path d="M0 0 C2.28218629 1.71163972 3.82688375 3.01766591 4.3359375 5.90625 C4.40489778 9.60252114 4.40320542 13.02460281 2 16 C-1.65730441 18.03183578 -4.85594048 18.45044125 -9 18 C-9.99 17.01 -10.98 16.02 -12 15 C-8.37 15 -4.74 15 -1 15 C0.40209118 9.5565872 1.42603065 5.56151955 0 0 Z " fill="#A1AEE6" transform="translate(224,213)"/>
<path d="M0 0 C6.27 0 12.54 0 19 0 C19.33 0.99 19.66 1.98 20 3 C14.06 6.465 14.06 6.465 8 10 C9.32 10.99 10.64 11.98 12 13 C13.01801357 13.98165594 14.0246803 14.97591432 15 16 C13.5410574 15.52269162 12.08286504 15.04308958 10.625 14.5625 C9.81289063 14.29566406 9.00078125 14.02882813 8.1640625 13.75390625 C6 13 6 13 4 12 C5.26190138 8.21429586 6.54855815 7.78168429 9.9375 5.8125 C10.83339844 5.28269531 11.72929687 4.75289063 12.65234375 4.20703125 C15 3 15 3 17 3 C17 2.34 17 1.68 17 1 C11.39 1 5.78 1 0 1 C0 0.67 0 0.34 0 0 Z " fill="#B7FBB7" transform="translate(299,98)"/>
<path d="M0 0 C-0.80824219 0.39832031 -1.61648438 0.79664063 -2.44921875 1.20703125 C-3.51785156 1.73683594 -4.58648437 2.26664063 -5.6875 2.8125 C-7.27111328 3.59560547 -7.27111328 3.59560547 -8.88671875 4.39453125 C-11.96829602 5.93022433 -11.96829602 5.93022433 -14.65625 7.65625 C-17.70998666 9.40705902 -20.52877213 9.65968354 -24 10 C-24.33 10.99 -24.66 11.98 -25 13 C-26.32 12.67 -27.64 12.34 -29 12 C-6.60066556 -3.30033278 -6.60066556 -3.30033278 0 0 Z " fill="#ABB6ED" transform="translate(267,146)"/>
<path d="M0 0 C-0.75 4.75 -0.75 4.75 -3 7 C-3.38079379 10.61754103 -2.84651134 12.88401212 -1 16 C-6.875 13.125 -6.875 13.125 -8 12 C-8.41190936 9.04798292 -8.52372857 6.89579829 -6.98828125 4.26953125 C-3.61119359 0 -3.61119359 0 0 0 Z " fill="#706ECC" transform="translate(285,281)"/>
<path d="M0 0 C2.31 0 4.62 0 7 0 C6.3125 3.375 6.3125 3.375 5 7 C2.375 8.4375 2.375 8.4375 0 9 C-2 7 -2 7 -2.125 4.375 C-2.08375 3.59125 -2.0425 2.8075 -2 2 C-1.34 2 -0.68 2 0 2 C0 1.34 0 0.68 0 0 Z " fill="#5170F7" transform="translate(305,264)"/>
<path d="M0 0 C2.64 0 5.28 0 8 0 C8.66 1.32 9.32 2.64 10 4 C11.3921875 3.87625 11.3921875 3.87625 12.8125 3.75 C16 4 16 4 17.875 5.625 C19.26828383 8.56637697 19.21931821 10.78333296 19 14 C18.67 14 18.34 14 18 14 C17.67 12.35 17.34 10.7 17 9 C14.36 8.34 11.72 7.68 9 7 C9 5.68 9 4.36 9 3 C6.69 2.67 4.38 2.34 2 2 C2 2.66 2 3.32 2 4 C1.01 4.33 0.02 4.66 -1 5 C-0.67 3.35 -0.34 1.7 0 0 Z " fill="#C4BDA0" transform="translate(304,253)"/>
<path d="M0 0 C1.18529297 0.02707031 1.18529297 0.02707031 2.39453125 0.0546875 C2.98621094 0.07789063 3.57789063 0.10109375 4.1875 0.125 C4.5175 0.785 4.8475 1.445 5.1875 2.125 C2.2175 1.795 -0.7525 1.465 -3.8125 1.125 C-4.4725 2.445 -5.1325 3.765 -5.8125 5.125 C-6.1425 5.455 -6.4725 5.785 -6.8125 6.125 C-6.88476502 7.97787502 -6.8963122 9.83333878 -6.875 11.6875 C-6.86597656 12.69941406 -6.85695312 13.71132812 -6.84765625 14.75390625 C-6.83605469 15.53636719 -6.82445312 16.31882813 -6.8125 17.125 C-8.875 15.8125 -8.875 15.8125 -10.8125 13.125 C-10.87148893 9.39797245 -10.39565738 5.80142697 -9.8125 2.125 C-6.37981802 0.57632998 -3.76242634 -0.11231123 0 0 Z " fill="#98A8E3" transform="translate(218.8125,210.875)"/>
<path d="M0 0 C0 6.38274012 -6.36298418 12.24191059 -10.53515625 16.72265625 C-12.66114659 18.84864659 -14.80665938 20.94374317 -17 23 C-17.66 22.67 -18.32 22.34 -19 22 C-18.195625 21.278125 -17.39125 20.55625 -16.5625 19.8125 C-13.80914441 17.286657 -13.80914441 17.286657 -13.5 14.3125 C-13.335 13.549375 -13.17 12.78625 -13 12 C-10.5625 10.875 -10.5625 10.875 -8 10 C-7.34 9.01 -6.68 8.02 -6 7 C-5.34 7 -4.68 7 -4 7 C-3.896875 6.401875 -3.79375 5.80375 -3.6875 5.1875 C-2.91123545 2.71756736 -1.92911079 1.67748765 0 0 Z " fill="#BDC6EC" transform="translate(341,307)"/>
<path d="M0 0 C9.9375 -0.38970588 9.9375 -0.38970588 14 2 C17.64709516 5.93992762 17.4883222 9.26083369 17.37109375 14.42578125 C17 17 17 17 15 19.6875 C14.34 20.120625 13.68 20.55375 13 21 C12.34 20.67 11.68 20.34 11 20 C11.495 19.525625 11.99 19.05125 12.5 18.5625 C14.69189114 14.81801931 14.4068872 11.24884138 14 7 C13.67 6.01 13.34 5.02 13 4 C12.34 4 11.68 4 11 4 C11 3.34 11 2.68 11 2 C7.37 1.67 3.74 1.34 0 1 C0 0.67 0 0.34 0 0 Z " fill="#3F83D6" transform="translate(281,210)"/>
<path d="M0 0 C3.875 0.875 3.875 0.875 5 2 C5.62336403 7.69419069 5.18969086 12.09278329 2 17 C1.34 17.33 0.68 17.66 0 18 C-1.04808041 19.97522846 -2.0520411 21.97481509 -3 24 C-3.99 24 -4.98 24 -6 24 C-5.34 23.34 -4.68 22.68 -4 22 C-3.35232207 19.42938689 -3.35232207 19.42938689 -3 17 C-1.68 16.67 -0.36 16.34 1 16 C1 14.68 1 13.36 1 12 C1.66 12 2.32 12 3 12 C2.47519999 5.71091518 2.47519999 5.71091518 0 0 Z " fill="#C56F5E" transform="translate(279,295)"/>
<path d="M0 0 C1.98 0.495 1.98 0.495 4 1 C3.01 2.485 3.01 2.485 2 4 C2 5.32 2 6.64 2 8 C2.66 8.33 3.32 8.66 4 9 C3.34 12.3 2.68 15.6 2 19 C1.34 19 0.68 19 0 19 C-1.9 5.7 -1.9 5.7 0 0 Z " fill="#6F7DCA" transform="translate(292,258)"/>
<path d="M0 0 C0.66 0.33 1.32 0.66 2 1 C2.10853983 3.22808159 2.18583307 5.45769932 2.25 7.6875 C2.29640625 8.92886719 2.3428125 10.17023438 2.390625 11.44921875 C1.92611072 15.67165353 1.24008472 17.25838985 -2 20 C-5.453125 20.48828125 -5.453125 20.48828125 -9.25 20.3125 C-10.51328125 20.26738281 -11.7765625 20.22226563 -13.078125 20.17578125 C-14.04234375 20.11777344 -15.0065625 20.05976563 -16 20 C-16.33 19.34 -16.66 18.68 -17 18 C-16.26394531 18.05800781 -15.52789062 18.11601562 -14.76953125 18.17578125 C-8.34469628 18.61195707 -8.34469628 18.61195707 -2.9375 15.5 C-2.298125 14.675 -1.65875 13.85 -1 13 C-0.34 13 0.32 13 1 13 C0.505 6.565 0.505 6.565 0 0 Z " fill="#25AD8B" transform="translate(297,214)"/>
<path d="M0 0 C1.32 0.33 2.64 0.66 4 1 C3.67 1.66 3.34 2.32 3 3 C3.67936096 6.02583797 4.54755898 8.97752146 5.40625 11.95703125 C6.01167156 15.05981674 5.84674883 16.98624267 5 20 C1.01618925 17.83735988 -1.88983545 15.28788824 -5 12 C-4.67 11.34 -4.34 10.68 -4 10 C-1.69 12.31 0.62 14.62 3 17 C2.44745089 11.75078342 1.51453244 7.04844147 0 2 C0 1.34 0 0.68 0 0 Z " fill="#C7FCC7" transform="translate(298,117)"/>
<path d="M0 0 C0 3 0 3 -1.20825195 4.66918945 C-3.51364084 6.38150378 -4.81728454 6.34744042 -7.66796875 6.29296875 C-8.56064453 6.28330078 -9.45332031 6.27363281 -10.37304688 6.26367188 C-11.76620117 6.2259668 -11.76620117 6.2259668 -13.1875 6.1875 C-14.12787109 6.17396484 -15.06824219 6.16042969 -16.03710938 6.14648438 C-18.35865038 6.11113096 -20.67903653 6.06178674 -23 6 C-23.33 5.34 -23.66 4.68 -24 4 C-23.41508789 3.98541748 -22.83017578 3.97083496 -22.22753906 3.95581055 C-19.56770603 3.8811643 -16.90910552 3.78456101 -14.25 3.6875 C-13.32960937 3.66494141 -12.40921875 3.64238281 -11.4609375 3.61914062 C-10.57148438 3.58369141 -9.68203125 3.54824219 -8.765625 3.51171875 C-7.54020996 3.47244263 -7.54020996 3.47244263 -6.29003906 3.43237305 C-3.54005383 2.91315942 -2.09770527 1.80916549 0 0 Z " fill="#8C6CA9" transform="translate(254,330)"/>
<path d="M0 0 C0.61230469 0.80824219 1.22460938 1.61648438 1.85546875 2.44921875 C5.65290432 6.24665432 10.22361255 5.78013252 15.3125 5.8125 C16.24384766 5.83763672 17.17519531 5.86277344 18.13476562 5.88867188 C20.42360186 5.94735998 22.71053426 5.98377168 25 6 C25 6.33 25 6.66 25 7 C20.915021 7.54466387 17.1274515 8 13 8 C12.34386719 8.18691406 11.68773437 8.37382812 11.01171875 8.56640625 C7.36523228 9.35234799 4.07235514 7.98261819 1 6 C0 2.8125 0 2.8125 0 0 Z " fill="#5F6EE9" transform="translate(226,330)"/>
<path d="M0 0 C4.95 0 9.9 0 15 0 C15.66 1.32 16.32 2.64 17 4 C14.69 4.33 12.38 4.66 10 5 C9.67 4.01 9.34 3.02 9 2 C5.7 2 2.4 2 -1 2 C-0.67 1.34 -0.34 0.68 0 0 Z " fill="#6E6FCD" transform="translate(232,271)"/>
<path d="M0 0 C0.66 0.33 1.32 0.66 2 1 C-2.65338627 4.60874854 -6.1820834 6.64941222 -12 8 C-13.794375 8.556875 -13.794375 8.556875 -15.625 9.125 C-18.61460882 9.90008377 -20.94088456 10.18540094 -24 10 C-20.15733781 7.43822521 -16.07521122 6.3111691 -11.71289062 4.94335938 C-8.52908881 3.92033597 -5.62471435 2.80733298 -2.64453125 1.27734375 C-1.77183594 0.85582031 -0.89914062 0.43429687 0 0 Z " fill="#A8FAA9" transform="translate(304,355)"/>
<path d="M0 0 C1.71399656 4.09686981 0.13960655 7.5461471 -1.25 11.5 C-1.57677734 12.49580078 -1.57677734 12.49580078 -1.91015625 13.51171875 C-3.1486568 17.14030809 -4.48036468 20.09500869 -7 23 C-5.68882339 15.88879511 -3.98279484 8.95300057 -2 2 C-1.34 2 -0.68 2 0 2 C0 1.34 0 0.68 0 0 Z " fill="#B9C2EF" transform="translate(353,276)"/>
<path d="M0 0 C0.18304688 0.63421875 0.36609375 1.2684375 0.5546875 1.921875 C1.91099877 4.35599986 1.91099877 4.35599986 5.2578125 4.828125 C6.53398437 4.96734375 7.81015625 5.1065625 9.125 5.25 C10.40632813 5.39953125 11.68765625 5.5490625 13.0078125 5.703125 C13.99523437 5.80109375 14.98265625 5.8990625 16 6 C15.67 6.66 15.34 7.32 15 8 C13.35 7.67 11.7 7.34 10 7 C10 7.66 10 8.32 10 9 C6.6875 9.3125 6.6875 9.3125 3 9 C0.22810842 5.78102913 0 4.3064427 0 0 Z " fill="#2EA1A2" transform="translate(260,234)"/>
<path d="M0 0 C0 1.65 0 3.3 0 5 C-0.99 5.495 -0.99 5.495 -2 6 C-1.979375 6.969375 -1.95875 7.93875 -1.9375 8.9375 C-2 12 -2 12 -3 13 C-3.23075082 14.34747084 -3.41153063 15.70377565 -3.5625 17.0625 C-3.706875 18.361875 -3.85125 19.66125 -4 21 C-4.33 21 -4.66 21 -5 21 C-5.10845031 18.43635517 -5.18749744 15.87733721 -5.25 13.3125 C-5.28351563 12.59126953 -5.31703125 11.87003906 -5.3515625 11.12695312 C-5.42401083 7.16040732 -5.2698124 5.41712997 -3.046875 1.98046875 C-1 0 -1 0 0 0 Z " fill="#5470F3" transform="translate(229,276)"/>
<path d="M0 0 C2 1.125 2 1.125 4 3 C4.125 6.1171875 4.125 6.1171875 4 9 C5.20398438 9.03738281 6.40796875 9.07476562 7.6484375 9.11328125 C9.22399011 9.17892928 10.79950954 9.24537701 12.375 9.3125 C13.1690625 9.33505859 13.963125 9.35761719 14.78125 9.38085938 C16.86215581 9.47785075 18.93441332 9.72994825 21 10 C21.99 11.485 21.99 11.485 23 13 C22.01 12.67 21.02 12.34 20 12 C16.3279325 11.74028599 12.66151273 11.55675791 8.984375 11.39453125 C3.10139297 11.10139297 3.10139297 11.10139297 2 10 C1.65458149 7.66842508 1.32205743 5.33491639 1 3 C0.67 2.01 0.34 1.02 0 0 Z " fill="#AD6E7A" transform="translate(253,248)"/>
<path d="M0 0 C0.33 2.97 0.66 5.94 1 9 C0.01 8.67 -0.98 8.34 -2 8 C-2.33 6.02 -2.66 4.04 -3 2 C-3.84304687 2.26103516 -3.84304687 2.26103516 -4.703125 2.52734375 C-7.24556755 3.05053346 -9.18452337 2.90204838 -11.75 2.5625 C-12.94882813 2.40974609 -12.94882813 2.40974609 -14.171875 2.25390625 C-14.77515625 2.17011719 -15.3784375 2.08632813 -16 2 C-16 1.67 -16 1.34 -16 1 C-10.59255982 0.22750855 -5.46137814 -0.09752461 0 0 Z " fill="#6E6CCF" transform="translate(225,321)"/>
<path d="M0 0 C0.66 0 1.32 0 2 0 C2.33 1.32 2.66 2.64 3 4 C3.99 4 4.98 4 6 4 C8.96668552 7.77578157 10.68535639 11.39874735 12 16 C6.69145909 12.46097273 3.26074268 7.393851 0 2 C0 1.34 0 0.68 0 0 Z " fill="#B1BBF1" transform="translate(148,311)"/>
<path d="M0 0 C1.60433809 0.47859241 3.20846416 0.95789558 4.8125 1.4375 C6.15248047 1.83775391 6.15248047 1.83775391 7.51953125 2.24609375 C9.35473055 2.80387873 11.18033726 3.39344575 13 4 C12.67 6.97 12.34 9.94 12 13 C11.67 13 11.34 13 11 13 C10 10 9 7 8 4 C6.02 4 4.04 4 2 4 C1.34 2.68 0.68 1.36 0 0 Z " fill="#6476D6" transform="translate(312,253)"/>
<path d="M0 0 C1.5 1.1875 1.5 1.1875 3 3 C3.1875 5.6875 3.1875 5.6875 3 8 C2.34 8 1.68 8 1 8 C1.09539062 8.84304687 1.19078125 9.68609375 1.2890625 10.5546875 C1.39992187 11.65039062 1.51078125 12.74609375 1.625 13.875 C1.74101562 14.96554688 1.85703125 16.05609375 1.9765625 17.1796875 C1.98429688 18.11039063 1.99203125 19.04109375 2 20 C1.34 20.66 0.68 21.32 0 22 C0.04125 20.88625 0.0825 19.7725 0.125 18.625 C0.41121859 14.95633975 0.41121859 14.95633975 -2 13 C-1.44444444 8.44444444 -1.44444444 8.44444444 0 7 C0.04092937 4.66702567 0.04241723 2.33294775 0 0 Z " fill="#AEBFEA" transform="translate(237,210)"/>
<path d="M0 0 C0.33 0.66 0.66 1.32 1 2 C-0.03060547 2.05607422 -0.03060547 2.05607422 -1.08203125 2.11328125 C-1.98308594 2.17902344 -2.88414062 2.24476563 -3.8125 2.3125 C-4.70582031 2.37050781 -5.59914062 2.42851562 -6.51953125 2.48828125 C-9.34524829 3.07122445 -10.12505566 3.89983712 -12 6 C-12.66 6 -13.32 6 -14 6 C-14.33 6.99 -14.66 7.98 -15 9 C-15.33 8.34 -15.66 7.68 -16 7 C-15.0625 4.875 -15.0625 4.875 -14 3 C-13.34 3 -12.68 3 -12 3 C-12 2.34 -12 1.68 -12 1 C-8.0186217 -0.3271261 -4.14954773 -0.06915913 0 0 Z " fill="#826CB4" transform="translate(217,256)"/>
<path d="M0 0 C0 0.99 0 1.98 0 3 C-2.48351743 5.48351743 -4.66937119 5.98041975 -8 7 C-8.99 7.33 -9.98 7.66 -11 8 C-11.33 7.34 -11.66 6.68 -12 6 C-12.66 6.66 -13.32 7.32 -14 8 C-13.67 6.35 -13.34 4.7 -13 3 C-12.39671875 3.03480469 -11.7934375 3.06960937 -11.171875 3.10546875 C-6.07474512 3.3514449 -6.07474512 3.3514449 -1.4375 1.5 C-0.963125 1.005 -0.48875 0.51 0 0 Z " fill="#4779E9" transform="translate(311,239)"/>
<path d="M0 0 C4.44982871 -0.05982963 6.40591751 0.01130825 10.07421875 2.78125 C12.01171875 5.46875 12.01171875 5.46875 12.01171875 8.46875 C10.83609375 7.5096875 10.83609375 7.5096875 9.63671875 6.53125 C6.19559547 3.82751028 4.67103451 3.34504549 0.38671875 3.40625 C-0.43054688 3.41527344 -1.2478125 3.42429688 -2.08984375 3.43359375 C-2.71632813 3.44519531 -3.3428125 3.45679688 -3.98828125 3.46875 C-1.98828125 0.46875 -1.98828125 0.46875 0 0 Z " fill="#23B380" transform="translate(283.98828125,205.53125)"/>
<path d="M0 0 C1.45922693 0.11409593 2.91740598 0.24165544 4.375 0.375 C5.59316406 0.47941406 5.59316406 0.47941406 6.8359375 0.5859375 C9 1 9 1 11 3 C10.67 3.66 10.34 4.32 10 5 C2.25 5.125 2.25 5.125 0 4 C0 2.68 0 1.36 0 0 Z " fill="#92A5E5" transform="translate(226,203)"/>
<path d="M0 0 C6.57315478 -0.36517527 11.79485526 0.86380263 18 3 C18 3.66 18 4.32 18 5 C11.69632197 4.41632611 6.01339937 2.95928381 0 1 C0 0.67 0 0.34 0 0 Z " fill="#AEB9EC" transform="translate(192,348)"/>
<path d="M0 0 C0.33 0 0.66 0 1 0 C1.3152595 5.98993047 0.68219822 9.63560356 -2 15 C-2.66 15 -3.32 15 -4 15 C-4.99 17.475 -4.99 17.475 -6 20 C-6.99 20 -7.98 20 -9 20 C-7.68 17.69 -6.36 15.38 -5 13 C-4.34 13 -3.68 13 -3 13 C-1.41744803 8.67435795 -0.54855348 4.571279 0 0 Z " fill="#8E6DA4" transform="translate(284,299)"/>
<path d="M0 0 C1.09570312 0.00902344 2.19140625 0.01804688 3.3203125 0.02734375 C4.16335938 0.03894531 5.00640625 0.05054688 5.875 0.0625 C5.545 1.3825 5.215 2.7025 4.875 4.0625 C4.545 3.7325 4.215 3.4025 3.875 3.0625 C1.17845146 2.98930379 -1.49191458 2.97007463 -4.1875 3 C-5.32541992 3.00676758 -5.32541992 3.00676758 -6.48632812 3.01367188 C-8.36591871 3.0254932 -10.24546899 3.04342922 -12.125 3.0625 C-7.65862009 0.82931005 -5.08929512 -0.05414144 0 0 Z " fill="#696CDC" transform="translate(271.125,254.9375)"/>
<path d="M0 0 C5.59537572 1.78034682 5.59537572 1.78034682 8.1875 3.1875 C10.16687603 4.3202776 10.16687603 4.3202776 13 3 C13.99 3.66 14.98 4.32 16 5 C15.01 5 14.02 5 13 5 C12.67 5.66 12.34 6.32 12 7 C6.47371099 5.80805531 3.82180842 4.4008703 0 0 Z " fill="#5C79EE" transform="translate(167,333)"/>
<path d="M0 0 C-8.07744875 6.70387244 -8.07744875 6.70387244 -14 7 C-14 6.34 -14 5.68 -14 5 C-10.535 4.505 -10.535 4.505 -7 4 C-7 2.68 -7 1.36 -7 0 C-3.98968256 -0.93423645 -3.13349732 -1.04449911 0 0 Z " fill="#A2AFEC" transform="translate(322,331)"/>
<path d="M0 0 C1.61886861 2.42830291 3.00049543 4.80984179 4.375 7.375 C6.30046505 10.87740379 8.36499032 13.97461851 11 17 C6.08310773 14.99682167 2.77739917 11.81393139 0.6875 6.9375 C0 4 0 4 0 0 Z " fill="#736CC8" transform="translate(197,305)"/>
<path d="M0 0 C0.66 0 1.32 0 2 0 C3.55053541 4.65160624 3.82489894 9.93775265 2 14.5 C1.67 14.995 1.34 15.49 1 16 C0.01 15.67 -0.98 15.34 -2 15 C-1.67 14.38125 -1.34 13.7625 -1 13.125 C0.40387684 8.73788488 0.15967523 4.56848573 0 0 Z " fill="#5F6EE6" transform="translate(284,297)"/>
<path d="M0 0 C4.29 0 8.58 0 13 0 C13 0.66 13 1.32 13 2 C12.33613281 1.93039063 11.67226563 1.86078125 10.98828125 1.7890625 C5.79737594 1.31557365 5.79737594 1.31557365 1.22265625 3.3359375 C-0.30693291 5.15556666 -0.30693291 5.15556666 -2 8 C-2.33 7.34 -2.66 6.68 -3 6 C-2.06553465 3.96855359 -1.06775224 1.96466413 0 0 Z " fill="#309EA6" transform="translate(262,200)"/>
<path d="M0 0 C-1 2 -1 2 -3.875 3.0625 C-4.90625 3.371875 -5.9375 3.68125 -7 4 C-7.99 4.33 -8.98 4.66 -10 5 C-12.6875 4.5625 -12.6875 4.5625 -15 4 C-10.56616154 -0.43383846 -5.91252486 -0.20042457 0 0 Z " fill="#6E84EC" transform="translate(275,145)"/>
<path d="M0 0 C0.66 0.33 1.32 0.66 2 1 C1.34 2.98 0.68 4.96 0 7 C-5 6 -5 6 -10 5 C-6.5980513 2.90649311 -3.94727588 2.82057837 0 3 C0 2.01 0 1.02 0 0 Z " fill="#5D6DEE" transform="translate(222,251)"/>
<path d="M0 0 C0.66 0 1.32 0 2 0 C4 3 4 3 3.875 5.375 C3 8 3 8 -1 13 C-0.67 8.71 -0.34 4.42 0 0 Z " fill="#AEBEEB" transform="translate(198,216)"/>
<path d="M0 0 C0.66 0 1.32 0 2 0 C1.25749403 4.08378283 0.17076699 8.01939223 -1 12 C-1.66 12 -2.32 12 -3 12 C-3.29162929 7.04230204 -3.12940055 3.97193147 0 0 Z " fill="#889AE1" transform="translate(199,206)"/>
<path d="M0 0 C0.67578125 1.703125 0.67578125 1.703125 1 4 C-0.14453125 6.359375 -0.14453125 6.359375 -1.8125 8.75 C-2.62654297 9.94882813 -2.62654297 9.94882813 -3.45703125 11.171875 C-3.96621094 11.77515625 -4.47539062 12.3784375 -5 13 C-5.66 13 -6.32 13 -7 13 C-5.58832253 7.73829306 -3.25149768 4.27828642 0 0 Z " fill="#B2BDEC" transform="translate(155,227)"/>
<path d="M0 0 C0.66 0 1.32 0 2 0 C3.97094808 4.92737019 4.1799928 8.78020872 4 14 C3.01 14.33 2.02 14.66 1 15 C1 14.34 1 13.68 1 13 C1.66 13 2.32 13 3 13 C2.40138258 10.64828869 1.73075648 8.3140622 1 6 C0.34 5.67 -0.32 5.34 -1 5 C-0.67 3.35 -0.34 1.7 0 0 Z " fill="#637BE0" transform="translate(237,205)"/>
<path d="M0 0 C1.84036681 2.76055022 2.68344114 4.74598117 3.625 7.875 C3.88539063 8.71804687 4.14578125 9.56109375 4.4140625 10.4296875 C5.00963022 13.04224458 5.10525251 15.33041371 5 18 C4.34 17.67 3.68 17.34 3 17 C2.1484375 14.19921875 2.1484375 14.19921875 1.375 10.6875 C1.11460937 9.53636719 0.85421875 8.38523438 0.5859375 7.19921875 C0 4 0 4 0 0 Z " fill="#BAFBBB" transform="translate(380,190)"/>
<path d="M0 0 C3 1 3 1 4.1875 2.875 C5 5 5 5 5 8 C4.34 8 3.68 8 3 8 C2.896875 8.78375 2.79375 9.5675 2.6875 10.375 C2 13 2 13 -1 15 C-0.67 14.34 -0.34 13.68 0 13 C1.3013986 9.09580421 1.2022187 6.11178021 1 2 C0.67 1.34 0.34 0.68 0 0 Z " fill="#497AE8" transform="translate(313,223)"/>
<path d="M0 0 C0.33 0 0.66 0 1 0 C1.48676056 7.42309859 1.48676056 7.42309859 -0.6875 10 C-3.3119388 11.13489245 -5.16910178 11.23590819 -8 11 C-8 10.34 -8 9.68 -8 9 C-6.02 8.67 -4.04 8.34 -2 8 C-1.34 5.36 -0.68 2.72 0 0 Z " fill="#6C7BC5" transform="translate(323,271)"/>
<path d="M0 0 C4.47670898 0.86090557 6.51147718 1.39874115 9.4375 5 C11 8 11 8 11 10 C10.34 10 9.68 10 9 10 C8.773125 9.21625 8.54625 8.4325 8.3125 7.625 C6.66171907 4.32343815 5.38223927 4.18378375 2 3 C1.34 2.01 0.68 1.02 0 0 Z " fill="#856BB1" transform="translate(247,272)"/>
<path d="M0 0 C2.31 0 4.62 0 7 0 C6.67 0.66 6.34 1.32 6 2 C4.35 1.67 2.7 1.34 1 1 C1.33 3.64 1.66 6.28 2 9 C0.68 8.34 -0.64 7.68 -2 7 C-2 5.35 -2 3.7 -2 2 C-1.34 2 -0.68 2 0 2 C0 1.34 0 0.68 0 0 Z " fill="#5874DE" transform="translate(305,264)"/>
<path d="M0 0 C1.670625 0.061875 1.670625 0.061875 3.375 0.125 C2.715 0.785 2.055 1.445 1.375 2.125 C0.055 2.125 -1.265 2.125 -2.625 2.125 C-2.625 2.785 -2.625 3.445 -2.625 4.125 C-3.285 4.125 -3.945 4.125 -4.625 4.125 C-4.625 5.775 -4.625 7.425 -4.625 9.125 C-5.285 8.795 -5.945 8.465 -6.625 8.125 C-5.59036145 0.19277108 -5.59036145 0.19277108 0 0 Z " fill="#D4C8A1" transform="translate(299.625,257.875)"/>
<path d="M0 0 C0.33 1.32 0.66 2.64 1 4 C-3.29 4 -7.58 4 -12 4 C-11.67 3.34 -11.34 2.68 -11 2 C-8.75 1.62109375 -8.75 1.62109375 -6 1.4375 C-2.69240381 1.46519462 -2.69240381 1.46519462 0 0 Z " fill="#4081DD" transform="translate(274,196)"/>
<path d="M0 0 C6.27 0 12.54 0 19 0 C19.33 0.99 19.66 1.98 20 3 C18.35 3.33 16.7 3.66 15 4 C15.66 3.67 16.32 3.34 17 3 C17 2.34 17 1.68 17 1 C11.39 1 5.78 1 0 1 C0 0.67 0 0.34 0 0 Z " fill="#A1FAA2" transform="translate(299,98)"/>
<path d="M0 0 C0.99 0 1.98 0 3 0 C2.68232368 5.40049736 -0.19996327 7.52337065 -4 11 C-4.66 10.67 -5.32 10.34 -6 10 C-5.195625 9.278125 -4.39125 8.55625 -3.5625 7.8125 C-0.97707928 4.97484311 -0.31957187 3.72833853 0 0 Z " fill="#A5B2ED" transform="translate(328,319)"/>
<path d="M0 0 C0.66 0 1.32 0 2 0 C4.20914 3.31371 4.22481553 4.3446021 4.125 8.1875 C4.10695313 9.08855469 4.08890625 9.98960937 4.0703125 10.91796875 C4.03550781 11.94857422 4.03550781 11.94857422 4 13 C3.34 13 2.68 13 2 13 C1.93941406 12.39671875 1.87882812 11.7934375 1.81640625 11.171875 C1.69072266 9.97304687 1.69072266 9.97304687 1.5625 8.75 C1.48128906 7.96109375 1.40007812 7.1721875 1.31640625 6.359375 C1.02365007 4.17635361 0.57935581 2.1226818 0 0 Z " fill="#3595B8" transform="translate(311,204)"/>
<path d="M0 0 C1.2065625 0.0309375 1.2065625 0.0309375 2.4375 0.0625 C2.05152985 2.86078356 1.63613427 3.8830884 -0.5 5.8125 C-2.5625 7.0625 -2.5625 7.0625 -4.5625 7.0625 C-4.5625 6.4025 -4.5625 5.7425 -4.5625 5.0625 C-3.5725 5.0625 -2.5825 5.0625 -1.5625 5.0625 C-1.5625 4.0725 -1.5625 3.0825 -1.5625 2.0625 C-2.2225 1.7325 -2.8825 1.4025 -3.5625 1.0625 C-2.5625 0.0625 -2.5625 0.0625 0 0 Z " fill="#626EE0" transform="translate(252.5625,298.9375)"/>
<path d="M0 0 C0.66 0.33 1.32 0.66 2 1 C1.67 1.33 1.34 1.66 1 2 C0.73706944 6.03160191 0.70595156 7.55892734 3 11 C1.35 10.67 -0.3 10.34 -2 10 C-2.1953125 3.9453125 -2.1953125 3.9453125 -2 2 C-1.34 1.34 -0.68 0.68 0 0 Z " fill="#D66D48" transform="translate(276,284)"/>
<path d="M0 0 C1.65 0 3.3 0 5 0 C5.33 1.65 5.66 3.3 6 5 C4.35 5 2.7 5 1 5 C0.67 3.35 0.34 1.7 0 0 Z " fill="#F9DE5C" transform="translate(304,277)"/>
<path d="M0 0 C6.3782235 -0.36103152 6.3782235 -0.36103152 8.9375 1.125 C10.44484863 3.785027 10.19986253 6.00206205 10 9 C9.67 9 9.34 9 9 9 C8.67 7.35 8.34 5.7 8 4 C5.36 3.34 2.72 2.68 0 2 C0 1.34 0 0.68 0 0 Z " fill="#D2CF98" transform="translate(313,258)"/>
<path d="M0 0 C1.98 0.495 1.98 0.495 4 1 C3.34 1.66 2.68 2.32 2 3 C1.53837573 5.43252661 1.53837573 5.43252661 1.375 8.125 C1.30023438 9.03507813 1.22546875 9.94515625 1.1484375 10.8828125 C1.09945312 11.58148438 1.05046875 12.28015625 1 13 C0.34 12.34 -0.32 11.68 -1 11 C-0.9765625 8.3984375 -0.9765625 8.3984375 -0.625 5.375 C-0.51414063 4.37210938 -0.40328125 3.36921875 -0.2890625 2.3359375 C-0.19367188 1.56507813 -0.09828125 0.79421875 0 0 Z " fill="#CCD6F0" transform="translate(209,213)"/>
<path d="M0 0 C0.33 0.66 0.66 1.32 1 2 C0.67 2.99 0.34 3.98 0 5 C-0.66 5 -1.32 5 -2 5 C-1.25640327 10.55053286 -1.25640327 10.55053286 0 16 C-2.15199754 14.26929299 -2.93393358 13.39380767 -3.3984375 10.625 C-3.39070313 9.75875 -3.38296875 8.8925 -3.375 8 C-3.38273437 7.13375 -3.39046875 6.2675 -3.3984375 5.375 C-2.93393358 2.60619233 -2.15199754 1.73070701 0 0 Z " fill="#477BE5" transform="translate(278,213)"/>
<path d="M0 0 C0.66 0.33 1.32 0.66 2 1 C0.02 3.31 -1.96 5.62 -4 8 C-5.32 7.67 -6.64 7.34 -8 7 C-5.36 4.69 -2.72 2.38 0 0 Z " fill="#B0BBED" transform="translate(191,196)"/>
<path d="M0 0 C0.66 0.33 1.32 0.66 2 1 C-0.60300565 4.90450847 -2.8328898 5.8798913 -7 8 C-7.99 8 -8.98 8 -10 8 C-6.7 5.36 -3.4 2.72 0 0 Z " fill="#C1C9EE" transform="translate(181,204)"/>
<path d="M0 0 C1.01527342 4.06109369 1.05430484 4.66966838 -0.4375 8.25 C-0.72496094 8.95640625 -1.01242188 9.6628125 -1.30859375 10.390625 C-1.53675781 10.92171875 -1.76492187 11.4528125 -2 12 C-2.99 12 -3.98 12 -5 12 C-3.35 8.04 -1.7 4.08 0 0 Z " fill="#8DF88E" transform="translate(115,188)"/>
<path d="M0 0 C0 3.90838866 -1.50567876 5.11594107 -4 8 C-5.32 7.67 -6.64 7.34 -8 7 C-5.36 4.69 -2.72 2.38 0 0 Z " fill="#AAB7EB" transform="translate(201,188)"/>
<path d="M0 0 C0.33 0 0.66 0 1 0 C1.20625 1.11375 1.4125 2.2275 1.625 3.375 C2.61628301 7.26599195 2.61628301 7.26599195 6.125 8.4375 C7.07375 8.623125 8.0225 8.80875 9 9 C9 9.33 9 9.66 9 10 C2.25 10.125 2.25 10.125 0 9 C0 6.03 0 3.06 0 0 Z " fill="#D7CB9F" transform="translate(301,266)"/>
<path d="M0 0 C2.82328089 2.82328089 2.79396942 5.08541907 3 9 C2.01 9.99 1.02 10.98 0 12 C0 8.04 0 4.08 0 0 Z " fill="#1ABB6E" transform="translate(299,216)"/>
<path d="M0 0 C0.66 0 1.32 0 2 0 C3.7265625 1.75 3.7265625 1.75 5.625 4 C6.25664062 4.7425 6.88828125 5.485 7.5390625 6.25 C8.02117187 6.8275 8.50328125 7.405 9 8 C8.67 8.66 8.34 9.32 8 10 C6.65787938 8.90653119 5.32652025 7.7998425 4 6.6875 C3.2575 6.07261719 2.515 5.45773437 1.75 4.82421875 C0 3 0 3 0 0 Z " fill="#BFFBC0" transform="translate(146,322)"/>
<path d="M0 0 C2.64 0 5.28 0 8 0 C7.01 1.485 7.01 1.485 6 3 C2.875 3.1875 2.875 3.1875 0 3 C0 2.01 0 1.02 0 0 Z " fill="#5B6FED" transform="translate(209,323)"/>
<path d="M0 0 C0.66 0 1.32 0 2 0 C0.55609075 3.80666984 -1.34952803 5.26602582 -5 7 C-5.66 6.67 -6.32 6.34 -7 6 C-4.7629196 2.6443794 -4.57482962 2.80721959 -1 2 C-0.67 1.34 -0.34 0.68 0 0 Z " fill="#5E77EB" transform="translate(243,156)"/>
<path d="M0 0 C0.66 0.33 1.32 0.66 2 1 C0.875 2.9375 0.875 2.9375 -1 5 C-4.1875 5.75 -4.1875 5.75 -7 6 C-4.74259377 3.66475218 -2.7194239 1.81294927 0 0 Z " fill="#93F894" transform="translate(321,345)"/>
<path d="M0 0 C0.99 0 1.98 0 3 0 C1.75023244 3.65316671 1.32901247 4.78065836 -2 7 C-1.125 2.25 -1.125 2.25 0 0 Z " fill="#5A71E7" transform="translate(280,314)"/>
<path d="M0 0 C0.99 0 1.98 0 3 0 C3.66 1.98 4.32 3.96 5 6 C4.01 6 3.02 6 2 6 C0 3 0 3 0 0 Z " fill="#F0691B" transform="translate(201,298)"/>
<path d="M0 0 C0.33 0 0.66 0 1 0 C1.33 2.97 1.66 5.94 2 9 C0.68 9.33 -0.64 9.66 -2 10 C-1.34 6.7 -0.68 3.4 0 0 Z " fill="#E36B33" transform="translate(254,251)"/>
<path d="M0 0 C6.75 0.75 6.75 0.75 9 3 C6.36 3 3.72 3 1 3 C0.67 2.01 0.34 1.02 0 0 Z " fill="#AFBAF0" transform="translate(305,146)"/>
<path d="M0 0 C2.21435076 3.32152614 2.09285903 4.19277961 2 8 C2.29044914 9.34332728 2.60955794 10.68225804 3 12 C2.01 11.34 1.02 10.68 0 10 C-0.29296875 7.6171875 -0.29296875 7.6171875 -0.1875 4.875 C-0.16042969 3.96492188 -0.13335937 3.05484375 -0.10546875 2.1171875 C-0.07066406 1.41851562 -0.03585938 0.71984375 0 0 Z " fill="#D66E49" transform="translate(199,299)"/>
<path d="M0 0 C0.33 0 0.66 0 1 0 C1 1.65 1 3.3 1 5 C0.01 5.33 -0.98 5.66 -2 6 C-2.66 6.99 -3.32 7.98 -4 9 C-3.47181039 5.19703482 -2.56226812 2.88255163 0 0 Z " fill="#626FDE" transform="translate(228,276)"/>
<path d="M0 0 C1.485 0.99 1.485 0.99 3 2 C3 2.66 3 3.32 3 4 C3.66 4 4.32 4 5 4 C4.67 5.32 4.34 6.64 4 8 C4 7.34 4 6.68 4 6 C2.68 5.34 1.36 4.68 0 4 C0 2.68 0 1.36 0 0 Z " fill="#BB6D70" transform="translate(276,261)"/>
<path d="M0 0 C0.66 0.33 1.32 0.66 2 1 C0.29374499 3.78388975 -0.47626739 4.85384206 -3.6875 5.75 C-4.8321875 5.87375 -4.8321875 5.87375 -6 6 C-4 4 -2 2 0 0 Z " fill="#6E82EB" transform="translate(174,211)"/>
<path d="M0 0 C1.98 0.99 1.98 0.99 4 2 C3.67 3.32 3.34 4.64 3 6 C2.01 5.67 1.02 5.34 0 5 C0 3.35 0 1.7 0 0 Z " fill="#8E9DE9" transform="translate(341,170)"/>
<path d="M0 0 C4.875 4.75 4.875 4.75 6 7 C4.35 6.67 2.7 6.34 1 6 C0.67 4.02 0.34 2.04 0 0 Z " fill="#6E6CD7" transform="translate(226,330)"/>
<path d="M0 0 C5.66153846 1.47692308 5.66153846 1.47692308 7.375 4.125 C7.684375 5.053125 7.684375 5.053125 8 6 C4.08597051 4.73058503 2.20927127 3.48832306 0 0 Z " fill="#B6BFED" transform="translate(167,333)"/>
<path d="M0 0 C0.66 0 1.32 0 2 0 C2.66 2.31 3.32 4.62 4 7 C2.68 6.67 1.36 6.34 0 6 C0 4.02 0 2.04 0 0 Z " fill="#4480DE" transform="translate(258,234)"/>
<path d="M0 0 C2.97 0.99 5.94 1.98 9 3 C9 3.33 9 3.66 9 4 C3.48 4.368 3.48 4.368 1.125 2.5625 C0 1 0 1 0 0 Z " fill="#5E75DC" transform="translate(211,225)"/>
<path d="M0 0 C1.32 0.99 2.64 1.98 4 3 C3.67 4.65 3.34 6.3 3 8 C2.67 6.68 2.34 5.36 2 4 C1.34 4 0.68 4 0 4 C0 2.68 0 1.36 0 0 Z " fill="#477CE1" transform="translate(257,216)"/>
<path d="M0 0 C1.32 0.33 2.64 0.66 4 1 C3.34 1.66 2.68 2.32 2 3 C1.83322718 6.58343976 1.83322718 6.58343976 2 10 C1.34 9.67 0.68 9.34 0 9 C0 6.03 0 3.06 0 0 Z " fill="#1FBA6C" transform="translate(308,215)"/>
<path d="M0 0 C3.63 0.33 7.26 0.66 11 1 C10.01 1.495 10.01 1.495 9 2 C9 2.66 9 3.32 9 4 C4.545 3.01 4.545 3.01 0 2 C0 1.34 0 0.68 0 0 Z " fill="#17C062" transform="translate(295,201)"/>
<path d="M0 0 C0.66 0.33 1.32 0.66 2 1 C1.67 2.65 1.34 4.3 1 6 C-0.32 5.67 -1.64 5.34 -3 5 C-1.125 1.125 -1.125 1.125 0 0 Z " fill="#617DE9" transform="translate(193,196)"/>
</svg>
