<?xml version="1.0" encoding="UTF-8"?>
<svg version="1.1" xmlns="http://www.w3.org/2000/svg" width="410" height="138">
<path d="M0 0 C8.25 0 16.5 0 25 0 C24 4 24 4 21 6 C21.70125 6.42410156 22.4025 6.84820313 23.125 7.28515625 C38.29509219 16.66340617 48.20854012 27.89329288 54 45 C54.24492188 45.71027344 54.48984375 46.42054687 54.7421875 47.15234375 C59.32662824 63.51188914 55.21013079 80.55928774 47.36328125 95.08984375 C38.54076854 110.34909447 23.54134552 119.71562974 6.75 124.3125 C-11.20353387 127.65043139 -28.09503167 123.18295902 -43 113 C-56.15746036 102.79807201 -65.70478785 88.74935811 -68 72 C-68.8765235 61.67412555 -68.34617384 52.01649798 -65.33569336 42.07519531 C-64.28855277 38.60090461 -63.89883583 36.46080166 -65 33 C-63.35773471 29.45616437 -61.57829848 26.68975206 -58 25 C-54.31624757 25.58164512 -51.86756802 26.26798949 -49 28.6875 C-47.53414831 32.07728202 -48.1643006 34.46434869 -49 38 C-51 41 -51 41 -52.9453125 41.51171875 C-53.66460937 41.56972656 -54.38390625 41.62773438 -55.125 41.6875 C-57.043125 41.8421875 -57.043125 41.8421875 -59 42 C-62.98307391 61.84785983 -62.43592913 77.23527921 -52 95 C-51.90991454 92.70423113 -51.90991454 92.70423113 -53 89.4375 C-55.38019215 79.89960773 -54.05175671 70.18599333 -49.69921875 61.36328125 C-45.60854378 54.89737565 -40.21018746 50.72392452 -34.1171875 46.29296875 C-31.66598665 44.48989244 -29.42325124 42.67692281 -27.1875 40.625 C-14.99792258 29.78119333 -2.33453286 19.40017556 14.80078125 19.7265625 C22.84378293 20.72658047 30.50688396 25.1497789 36 31 C44.36075443 43.69330811 45.93106363 58.69228847 43.27734375 73.45703125 C40.70155092 85.9421475 36.632293 97.48078773 25.8125 105.125 C12.23693976 113.67670982 -6.05577174 117.84708936 -21.98730469 114.59423828 C-24.90253431 113.83675526 -27.72602733 112.89600016 -30.55859375 111.875 C-32.88154374 110.88753808 -32.88154374 110.88753808 -35 111 C-20.58297393 118.18110424 -4.16954273 121.08911817 11.5234375 115.96875 C26.74505627 110.01455212 37.52958112 100.48143488 44.859375 85.84765625 C48.051566 77.87811091 49.53254658 70.7214355 49.4375 62.125 C49.42992676 61.16045898 49.42235352 60.19591797 49.41455078 59.20214844 C49.07541014 44.51265525 43.10207081 32.8289768 33.21875 22.109375 C28.42713817 17.55396938 22.97051469 13.83462509 17 11 C17.7734375 12.1446875 17.7734375 12.1446875 18.5625 13.3125 C19.036875 14.199375 19.51125 15.08625 20 16 C19.505 17.485 19.505 17.485 19 19 C15.22837301 17.742791 13.74528478 15.86551623 11 13 C10.03864388 12.05503249 9.07373957 11.11366227 8.10546875 10.17578125 C7.13278804 9.2213791 6.16013192 8.26695188 5.1875 7.3125 C4.68541016 6.82716797 4.18332031 6.34183594 3.66601562 5.84179688 C2.40582727 4.59875394 1.19808956 3.30300108 0 2 C0 1.34 0 0.68 0 0 Z M-61 31 C-61.33333333 34 -61.33333333 34 -61 37 C-59.17528109 39.21896136 -59.17528109 39.21896136 -56.5625 39.375 C-53.90483483 39.22786947 -53.90483483 39.22786947 -52.125 37.3125 C-50.71135089 34.40666572 -51.01829848 33.02691303 -52 30 C-53.11166864 28.66812207 -53.11166864 28.66812207 -55.9375 28.8125 C-59.10892859 28.66721267 -59.10892859 28.66721267 -61 31 Z M-20 47 C-20 47.99 -20 48.98 -20 50 C-19.01 49.67 -18.02 49.34 -17 49 C-17 48.34 -17 47.68 -17 47 C-17.99 47 -18.98 47 -20 47 Z M-26 50 C-26 52.97 -26 55.94 -26 59 C-25.01 59.33 -24.02 59.66 -23 60 C-23.020625 59.0925 -23.04125 58.185 -23.0625 57.25 C-23.0110245 54.57327412 -22.7784983 52.53011948 -22 50 C-23.32 50 -24.64 50 -26 50 Z M-13 51 C-12 53 -12 53 -12 53 Z M-50 97 C-48.55746343 100.36591866 -46.66735273 102.51047079 -44 105 C-43.34 104.67 -42.68 104.34 -42 104 C-43.1427919 102.83035398 -44.28931715 101.66435444 -45.4375 100.5 C-46.07558594 99.8503125 -46.71367188 99.200625 -47.37109375 98.53125 C-48.74882927 96.88584524 -48.74882927 96.88584524 -50 97 Z " fill="#5271FA" transform="translate(73,6)"/>
<path d="M0 0 C8.25 0 16.5 0 25 0 C24 4 24 4 21 6 C21.70125 6.42410156 22.4025 6.84820313 23.125 7.28515625 C38.29509219 16.66340617 48.20854012 27.89329288 54 45 C54.24492188 45.71027344 54.48984375 46.42054687 54.7421875 47.15234375 C59.32662824 63.51188914 55.21013079 80.55928774 47.36328125 95.08984375 C38.54076854 110.34909447 23.54134552 119.71562974 6.75 124.3125 C-11.20353387 127.65043139 -28.09503167 123.18295902 -43 113 C-56.15746036 102.79807201 -65.70478785 88.74935811 -68 72 C-68.8765235 61.67412555 -68.34617384 52.01649798 -65.33569336 42.07519531 C-64.28855277 38.60090461 -63.89883583 36.46080166 -65 33 C-63.35773471 29.45616437 -61.57829848 26.68975206 -58 25 C-54.31624757 25.58164512 -51.86756802 26.26798949 -49 28.6875 C-47.53414831 32.07728202 -48.1643006 34.46434869 -49 38 C-51 41 -51 41 -52.9453125 41.51171875 C-53.66460937 41.56972656 -54.38390625 41.62773438 -55.125 41.6875 C-57.043125 41.8421875 -57.043125 41.8421875 -59 42 C-62.86814782 61.27517728 -63.06104045 77.96202961 -52 95 C-48.81777408 99.1368937 -45.77875633 102.94742157 -41.25390625 105.625 C-40.51011719 106.07875 -39.76632813 106.5325 -39 107 C-39 107.66 -39 108.32 -39 109 C-37.66790813 109.66914383 -36.33423059 110.33513088 -35 111 C-34.19304688 111.4021875 -33.38609375 111.804375 -32.5546875 112.21875 C-19.01951114 118.69037951 -2.98387528 120.70225387 11.5234375 115.96875 C26.74505627 110.01455212 37.52958112 100.48143488 44.859375 85.84765625 C48.051566 77.87811091 49.53254658 70.7214355 49.4375 62.125 C49.42992676 61.16045898 49.42235352 60.19591797 49.41455078 59.20214844 C49.07541014 44.51265525 43.10207081 32.8289768 33.21875 22.109375 C28.42713817 17.55396938 22.97051469 13.83462509 17 11 C17.7734375 12.1446875 17.7734375 12.1446875 18.5625 13.3125 C19.036875 14.199375 19.51125 15.08625 20 16 C19.505 17.485 19.505 17.485 19 19 C15.22837301 17.742791 13.74528478 15.86551623 11 13 C10.03864388 12.05503249 9.07373957 11.11366227 8.10546875 10.17578125 C7.13278804 9.2213791 6.16013192 8.26695188 5.1875 7.3125 C4.68541016 6.82716797 4.18332031 6.34183594 3.66601562 5.84179688 C2.40582727 4.59875394 1.19808956 3.30300108 0 2 C0 1.34 0 0.68 0 0 Z M-61 31 C-61.33333333 34 -61.33333333 34 -61 37 C-59.17528109 39.21896136 -59.17528109 39.21896136 -56.5625 39.375 C-53.90483483 39.22786947 -53.90483483 39.22786947 -52.125 37.3125 C-50.71135089 34.40666572 -51.01829848 33.02691303 -52 30 C-53.11166864 28.66812207 -53.11166864 28.66812207 -55.9375 28.8125 C-59.10892859 28.66721267 -59.10892859 28.66721267 -61 31 Z " fill="#16DD33" transform="translate(73,6)"/>
<path d="M0 0 C0.99 0.66 1.98 1.32 3 2 C3.1875 4.625 3.1875 4.625 3 7 C3.33 7 3.66 7 4 7 C4 8.98 4 10.96 4 13 C5.98 13 7.96 13 10 13 C10 13.66 10 14.32 10 15 C12.475 15.99 12.475 15.99 15 17 C15 18.32 15 19.64 15 21 C12.69 21.33 10.38 21.66 8 22 C5.74505772 26.79175234 5.52799297 30.63996487 6.5625 35.8125 C6.706875 36.534375 6.85125 37.25625 7 38 C6.67 38.33 6.34 38.66 6 39 C5.66143172 44.32673036 5.66143172 44.32673036 8 49 C10.3241734 49.68232614 12.61148758 50.00752449 15.00390625 50.375 C15.66261719 50.58125 16.32132813 50.7875 17 51 C17.33 51.99 17.66 52.98 18 54 C21.3 54 24.6 54 28 54 C28.66 52.35 29.32 50.7 30 49 C31.98567708 48.8046875 33.97135417 48.609375 35.95703125 48.4140625 C38.29988142 48.07334609 38.29988142 48.07334609 41 46 C40.5 47.8125 40.5 47.8125 39 50 C36.4136076 51.26152609 33.74799171 52.15643045 31 53 C31 53.99 31 54.98 31 56 C31.99 56.33 32.98 56.66 34 57 C33.67 58.65 33.34 60.3 33 62 C25.6586291 63.39835636 15.35663309 65.2377554 9 61 C7.3603125 61.061875 7.3603125 61.061875 5.6875 61.125 C1.21903648 60.97352666 -0.45814649 59.61789172 -4 57 C-5.3303125 56.4740625 -5.3303125 56.4740625 -6.6875 55.9375 C-9.16145982 54.93454332 -10.17707464 53.89888058 -12 52 C-12.804375 51.608125 -13.60875 51.21625 -14.4375 50.8125 C-18.66401668 47.82301259 -20.25787654 43.41190125 -21.75 38.5625 C-22.52703494 30.59789186 -22.52703494 30.59789186 -22 27 C-20.125 25.375 -20.125 25.375 -18 24 C-17.53586164 22.37551575 -17.07933166 20.7479562 -16.68359375 19.10546875 C-14.53449199 12.48623533 -11.11753324 7.30964338 -5 4 C-3.31522656 2.68962066 -1.64351457 1.36176922 0 0 Z " fill="#5271FB" transform="translate(41,55)"/>
<path d="M0 0 C-1.62234794 5.1567488 -3.64214801 10.09111343 -5.75 15.0625 C-6.10489502 15.90304932 -6.45979004 16.74359863 -6.82543945 17.60961914 C-9.31303554 23.46775956 -11.9270713 29.2492686 -14.62890625 35.01171875 C-16.03017304 38.06576175 -17.34016671 41.14531166 -18.625 44.25 C-19.03492188 45.22066406 -19.44484375 46.19132812 -19.8671875 47.19140625 C-20.60030588 49.00903422 -21.27672947 50.85100434 -21.8828125 52.71484375 C-22.72392684 55.11315625 -23.43595425 56.99517772 -25 59 C-29.9699814 60.97085469 -34.88299245 59.92902443 -40 59 C-39.70641602 58.40574219 -39.41283203 57.81148437 -39.11035156 57.19921875 C-37.79029742 54.4809007 -36.52028266 51.74190696 -35.25 49 C-34.78722656 48.06542969 -34.32445312 47.13085938 -33.84765625 46.16796875 C-31.43423238 41.18606418 -31.43423238 41.18606418 -31.50390625 35.84155273 C-32.55201217 33.80022481 -33.75722322 31.92779842 -35 30 C-35.63090208 28.5481374 -36.22439045 27.07949629 -36.78125 25.59765625 C-37.20555298 24.48596069 -37.20555298 24.48596069 -37.63842773 23.35180664 C-37.92274658 22.59633545 -38.20706543 21.84086426 -38.5 21.0625 C-40.36459376 16.16975396 -42.23964102 11.31800982 -44.4375 6.5625 C-46 3 -46 3 -46 0 C-41.05 0 -36.1 0 -31 0 C-30.25943359 2.14822266 -30.25943359 2.14822266 -29.50390625 4.33984375 C-28.85692269 6.20578183 -28.20977902 8.07166439 -27.5625 9.9375 C-27.07426758 11.35579102 -27.07426758 11.35579102 -26.57617188 12.80273438 C-26.26357422 13.70185547 -25.95097656 14.60097656 -25.62890625 15.52734375 C-25.1968689 16.77632446 -25.1968689 16.77632446 -24.75610352 18.05053711 C-24.16119007 19.97333091 -24.16119007 19.97333091 -23 21 C-20.30440402 14.01062861 -17.61524859 7.01987779 -15 0 C-4.44191344 -1.33257403 -4.44191344 -1.33257403 0 0 Z " fill="#F9FDFD" transform="translate(405,58)"/>
<path d="M0 0 C4.125 -0.0825 8.25 -0.165 12.5 -0.25 C13.78455078 -0.28641602 15.06910156 -0.32283203 16.39257812 -0.36035156 C23.43636424 -0.42829101 28.04076942 0.15739721 34 4 C38.26550315 8.5406969 38.34826426 13.30035444 38.27734375 19.2734375 C37.88307023 23.14953489 36.63089377 25.16140409 34 28 C27.1197973 33.41632978 21.43211931 33.11242826 13 33 C13 38.61 13 44.22 13 50 C8.38 50 3.76 50 -1 50 C-0.67 33.5 -0.34 17 0 0 Z M13 11 C13 14.63 13 18.26 13 22 C18.67675932 22.38435046 18.67675932 22.38435046 24 21 C24.84172822 17.60867549 24.84172822 17.60867549 25 14 C24.34 13.01 23.68 12.02 23 11 C20.56306689 10.63583953 20.56306689 10.63583953 17.875 10.8125 C16.26625 10.874375 14.6575 10.93625 13 11 Z " fill="#F9FDFD" transform="translate(160,48)"/>
<path d="M0 0 C3.90798668 6.46839174 4.06940444 13.77822338 2.56640625 21.1171875 C0.45628404 27.01504461 -4.36917557 30.71381917 -9.8125 33.375 C-18.75214995 35.12787254 -24.9360771 34.06190687 -32.6875 29.375 C-36.78218975 25.16964296 -39.17758292 19.90720647 -39.4375 14 C-39.02476891 7.52528097 -37.53206981 1.9455326 -32.5625 -2.4375 C-22.23272356 -10.54880096 -9.17018246 -9.43989371 0 0 Z M-24 7 C-25.88475586 10.76951172 -25.42707082 15.3771309 -24.375 19.375 C-22.21324485 21.92980154 -20.24997128 22.42647566 -17 23 C-14.61035234 21.88483109 -12.86049542 20.86049542 -11 19 C-10.25047458 11.81190848 -10.25047458 11.81190848 -12.75 5.3125 C-17.21625977 2.7071818 -20.12591952 4.27767317 -24 7 Z " fill="#F9FDFD" transform="translate(305,65)"/>
<path d="M0 0 C0.91007812 0.10183594 1.82015625 0.20367187 2.7578125 0.30859375 C3.45648438 0.39238281 4.15515625 0.47617188 4.875 0.5625 C5.205 2.2125 5.535 3.8625 5.875 5.5625 C6.50148438 5.61148438 7.12796875 5.66046875 7.7734375 5.7109375 C8.59070313 5.78570312 9.40796875 5.86046875 10.25 5.9375 C11.46816406 6.04191406 11.46816406 6.04191406 12.7109375 6.1484375 C14.875 6.5625 14.875 6.5625 16.875 8.5625 C17.1012388 13.16268888 16.83015839 17.05961043 15.875 21.5625 C16.205 21.8925 16.535 22.2225 16.875 22.5625 C17.33028455 28.70884146 17.33028455 28.70884146 15.875 31.4375 C12.6795594 33.23493534 9.51026893 33.26452714 5.875 33.5625 C4.885 36.0375 4.885 36.0375 3.875 38.5625 C0.575 38.5625 -2.725 38.5625 -6.125 38.5625 C-6.455 37.2425 -6.785 35.9225 -7.125 34.5625 C-7.73988281 34.53671875 -8.35476562 34.5109375 -8.98828125 34.484375 C-15.53833333 34.02472222 -15.53833333 34.02472222 -18.1875 31.9375 C-20.09504732 27.1050468 -19.14161501 22.50034434 -18.125 17.5625 C-18.455 17.2325 -18.785 16.9025 -19.125 16.5625 C-19.40750225 13.38434971 -19.37004509 11.1444821 -18.125 8.1875 C-14.94868122 5.60674099 -12.13054268 6.29984146 -8.125 6.5625 C-8.00125 5.593125 -7.8775 4.62375 -7.75 3.625 C-7.54375 2.614375 -7.3375 1.60375 -7.125 0.5625 C-4.50184968 -0.74907516 -2.89466564 -0.33399988 0 0 Z " fill="#CA6D54" transform="translate(65.125,71.4375)"/>
<path d="M0 0 C1.09570312 0.10183594 2.19140625 0.20367187 3.3203125 0.30859375 C4.16335937 0.39238281 5.00640625 0.47617187 5.875 0.5625 C6.04628418 1.11711914 6.21756836 1.67173828 6.39404297 2.24316406 C7.17580459 4.76739368 7.96284628 7.28994691 8.75 9.8125 C9.01941406 10.68519531 9.28882813 11.55789062 9.56640625 12.45703125 C9.83066406 13.30136719 10.09492188 14.14570312 10.3671875 15.015625 C10.60808105 15.79067383 10.84897461 16.56572266 11.09716797 17.36425781 C11.9498306 19.91756023 11.9498306 19.91756023 13.875 23.5625 C16.185 15.9725 18.495 8.3825 20.875 0.5625 C25.825 0.5625 30.775 0.5625 35.875 0.5625 C35.483125 1.7175 35.09125 2.8725 34.6875 4.0625 C33.41611164 7.864614 32.21103851 11.68383125 31.02758789 15.51391602 C28.37578453 24.09234612 25.41733824 32.29704411 21.875 40.5625 C16.265 40.5625 10.655 40.5625 4.875 40.5625 C2.4513367 34.71227823 0.33975668 28.94541105 -1.41015625 22.86328125 C-2.15512676 20.32550952 -2.15512676 20.32550952 -3.625 17.0625 C-5.86221722 11.8423265 -8.125 6.29185389 -8.125 0.5625 C-5.28943413 -0.85528293 -3.1341294 -0.30007622 0 0 Z " fill="#FAFDFD" transform="translate(229.125,57.4375)"/>
<path d="M0 0 C0.66 0.33 1.32 0.66 2 1 C0.625 2.5 0.625 2.5 -1 4 C-1.66 4 -2.32 4 -3 4 C-3 4.66 -3 5.32 -3 6 C-3.66 6 -4.32 6 -5 6 C-5 6.66 -5 7.32 -5 8 C-9.47058824 12 -9.47058824 12 -12 12 C-12 12.99 -12 13.98 -12 15 C-12.99 15.66 -13.98 16.32 -15 17 C-15 17.66 -15 18.32 -15 19 C-14.01 18.731875 -13.02 18.46375 -12 18.1875 C-7.83542322 17.65095943 -4.993107 18.66299259 -1.53515625 20.98828125 C1.69808414 25.22522476 0.53113033 30.96163868 0 36 C-0.99 36.495 -0.99 36.495 -2 37 C-1.37351563 37.13277344 -0.74703125 37.26554687 -0.1015625 37.40234375 C0.71570313 37.57894531 1.53296875 37.75554687 2.375 37.9375 C3.18710938 38.11152344 3.99921875 38.28554687 4.8359375 38.46484375 C7 39 7 39 9 40 C9 40.99 9 41.98 9 43 C16.59 43 24.18 43 32 43 C32 43.66 32 44.32 32 45 C33.98 45.495 33.98 45.495 36 46 C36.08121924 47.60332791 36.13929134 49.20784026 36.1875 50.8125 C36.23970703 52.15248047 36.23970703 52.15248047 36.29296875 53.51953125 C36 56 36 56 34.6875 57.8125 C32.17517337 59.58043356 29.9827587 59.19885058 27 59 C26.67 58.34 26.34 57.68 26 57 C23.69 57 21.38 57 19 57 C19.495 58.0209375 19.495 58.0209375 20 59.0625 C21.17307315 62.50840238 21.14180493 65.38397422 21 69 C20.01 69 19.02 69 18 69 C17.855625 67.948125 17.71125 66.89625 17.5625 65.8125 C17.23203904 63.57270903 16.85594879 61.33736442 16.375 59.125 C16.25125 58.42375 16.1275 57.7225 16 57 C16.33 56.67 16.66 56.34 17 56 C17.16053815 54.12678052 17.16053815 54.12678052 17.125 52 C17.12757812 51.278125 17.13015625 50.55625 17.1328125 49.8125 C17.19695276 47.97910585 17.19695276 47.97910585 16 47 C14.50503158 46.79300437 13.0033408 46.63320741 11.5 46.5 C7.11111111 46.11111111 7.11111111 46.11111111 6 45 C6 43.35 6 41.7 6 40 C2.04 40 -1.92 40 -6 40 C-6.33 41.98 -6.66 43.96 -7 46 C-11.455 46.495 -11.455 46.495 -16 47 C-15.67 46.01 -15.34 45.02 -15 44 C-12.69 44 -10.38 44 -8 44 C-8 42.68 -8 41.36 -8 40 C-9.65 39.34 -11.3 38.68 -13 38 C-13 37.34 -13 36.68 -13 36 C-14.98 36 -16.96 36 -19 36 C-19.495 33.525 -19.495 33.525 -20 31 C-20.33 31 -20.66 31 -21 31 C-21 29.02 -21 27.04 -21 25 C-21.66 24.67 -22.32 24.34 -23 24 C-23.47050781 24.433125 -23.94101562 24.86625 -24.42578125 25.3125 C-25.04839844 25.869375 -25.67101562 26.42625 -26.3125 27 C-26.92738281 27.556875 -27.54226562 28.11375 -28.17578125 28.6875 C-30 30 -30 30 -33 30 C-33.37125 31.051875 -33.37125 31.051875 -33.75 32.125 C-35 35 -35 35 -37 37.875 C-39.18957057 40.95992006 -39.18957057 40.95992006 -40.0625 44.8125 C-40.371875 45.864375 -40.68125 46.91625 -41 48 C-42.485 48.495 -42.485 48.495 -44 49 C-43.70607115 41.21088553 -41.1432214 34.26957496 -35.62304688 28.58105469 C-31.55558615 24.81537331 -27.25626611 21.29520009 -22.44140625 18.53125 C-19.51355943 16.69490447 -17.43001853 14.45839831 -15 12 C-12.44501299 9.83328781 -9.81912071 7.7600587 -7.1875 5.6875 C-6.14819336 4.86282227 -6.14819336 4.86282227 -5.08789062 4.02148438 C-3.39415445 2.67817637 -1.69738603 1.33869313 0 0 Z M-11 21 C-11 21.99 -11 22.98 -11 24 C-10.01 23.67 -9.02 23.34 -8 23 C-8 22.34 -8 21.68 -8 21 C-8.99 21 -9.98 21 -11 21 Z M-17 24 C-17 26.97 -17 29.94 -17 33 C-16.01 33.33 -15.02 33.66 -14 34 C-14.020625 33.0925 -14.04125 32.185 -14.0625 31.25 C-14.0110245 28.57327412 -13.7784983 26.53011948 -13 24 C-14.32 24 -15.64 24 -17 24 Z M-4 25 C-3 27 -3 27 -3 27 Z " fill="#5275EE" transform="translate(64,32)"/>
<path d="M0 0 C1.97909398 -0.02686553 3.95828971 -0.04633375 5.9375 -0.0625 C7.03964844 -0.07410156 8.14179688 -0.08570313 9.27734375 -0.09765625 C12 0 12 0 13 1 C13.45459858 3.65463121 13.70243238 6.32189138 14 9 C14.969375 8.979375 15.93875 8.95875 16.9375 8.9375 C20 9 20 9 21 10 C21.07226502 11.85287502 21.0838122 13.70833878 21.0625 15.5625 C21.05347656 16.57441406 21.04445313 17.58632812 21.03515625 18.62890625 C21.02355469 19.41136719 21.01195312 20.19382812 21 21 C18.36 21 15.72 21 13 21 C13.495 29.415 13.495 29.415 14 38 C17.465 38.495 17.465 38.495 21 39 C21 42.63 21 46.26 21 50 C7.04093774 50.86049014 7.04093774 50.86049014 3.25 47.8125 C-1.41316434 41.98354458 -1.15786369 37.33320207 -0.625 30.1875 C-0.56828125 29.30384766 -0.5115625 28.42019531 -0.453125 27.50976562 C-0.31232863 25.3391549 -0.1575466 23.16945929 0 21 C-1.65 21 -3.3 21 -5 21 C-6.22333253 18.55333494 -6.04546823 17.20770626 -5.8125 14.5 C-5.75707031 13.7059375 -5.70164062 12.911875 -5.64453125 12.09375 C-5.43183594 11.4028125 -5.21914063 10.711875 -5 10 C-3.67240866 9.3219709 -2.33904846 8.65511177 -1 8 C-0.30367785 6.04634555 -0.30367785 6.04634555 -0.25 3.875 C-0.1675 2.59625 -0.085 1.3175 0 0 Z " fill="#F8FDFD" transform="translate(316,48)"/>
<path d="M0 0 C4.62 0 9.24 0 14 0 C14 17.49 14 34.98 14 53 C9.38 53 4.76 53 0 53 C0 35.51 0 18.02 0 0 Z " fill="#FDFEFD" transform="translate(342,45)"/>
<path d="M0 0 C4.98818986 2.08597031 4.98818986 2.08597031 6.4375 5.4375 C6.21611795 9.64375886 5.78705038 11.91317443 3.4375 15.4375 C1.4921875 15.94921875 1.4921875 15.94921875 -0.6875 16.125 C-1.96625 16.228125 -3.245 16.33125 -4.5625 16.4375 C-8.43064782 35.71267728 -8.62354045 52.39952961 2.4375 69.4375 C5.61972592 73.5743937 8.65874367 77.38492157 13.18359375 80.0625 C13.92738281 80.51625 14.67117187 80.97 15.4375 81.4375 C15.4375 82.0975 15.4375 82.7575 15.4375 83.4375 C16.015 83.705625 16.5925 83.97375 17.1875 84.25 C19.4700868 85.45469859 21.4112942 86.84548115 23.4375 88.4375 C18.68268354 87.86115861 15.46701788 85.88681479 11.4375 83.4375 C12.4275 85.0875 13.4175 86.7375 14.4375 88.4375 C1.29994388 82.40762391 -6.71932164 68.66671156 -11.6015625 55.671875 C-15.40047042 42.96151017 -14.71254764 29.10857518 -10.89819336 16.51269531 C-9.85105277 13.03840461 -9.46133583 10.89830166 -10.5625 7.4375 C-8.15999252 2.25314176 -5.95459485 -0.94019919 0 0 Z M-6.5625 5.4375 C-6.89583333 8.4375 -6.89583333 8.4375 -6.5625 11.4375 C-4.73778109 13.65646136 -4.73778109 13.65646136 -2.125 13.8125 C0.53266517 13.66536947 0.53266517 13.66536947 2.3125 11.75 C3.72614911 8.84416572 3.41920152 7.46441303 2.4375 4.4375 C1.32583136 3.10562207 1.32583136 3.10562207 -1.5 3.25 C-4.67142859 3.10471267 -4.67142859 3.10471267 -6.5625 5.4375 Z " fill="#17DA41" transform="translate(18.5625,31.5625)"/>
<path d="M0 0 C2.64 0 5.28 0 8 0 C8.33 1.65 8.66 3.3 9 5 C9.78375 4.95875 10.5675 4.9175 11.375 4.875 C14 5 14 5 16 7 C16.19849071 9.54535141 16.27851775 11.95716759 16.25 14.5 C16.25773437 15.18964844 16.26546875 15.87929688 16.2734375 16.58984375 C16.25333293 21.74666707 16.25333293 21.74666707 14 24 C12.7315625 24.2475 12.7315625 24.2475 11.4375 24.5 C10.2309375 24.7475 10.2309375 24.7475 9 25 C8.67 25.66 8.34 26.32 8 27 C5.36 27 2.72 27 0 27 C-0.33 26.01 -0.66 25.02 -1 24 C-3.31029085 23.25740651 -5.645752 22.588562 -8 22 C-9.99304037 20.00695963 -9.31953796 16.33759808 -9.375 13.625 C-9.41238281 12.93921875 -9.44976562 12.2534375 -9.48828125 11.546875 C-9.5234375 9.5390625 -9.5234375 9.5390625 -9 6 C-6.14732725 3.58619998 -4.73969217 3 -1 3 C-0.67 2.01 -0.34 1.02 0 0 Z " fill="#25AB8B" transform="translate(80,47)"/>
<path d="M0 0 C4.29 0 8.58 0 13 0 C13 13.2 13 26.4 13 40 C8.38 40 3.76 40 -1 40 C-0.67 26.8 -0.34 13.6 0 0 Z " fill="#F9FEFD" transform="translate(204,58)"/>
<path d="M0 0 C0.66 0 1.32 0 2 0 C2 4.29 2 8.58 2 13 C1.01 13.495 1.01 13.495 0 14 C0.62648438 14.13277344 1.25296875 14.26554687 1.8984375 14.40234375 C2.71570313 14.57894531 3.53296875 14.75554687 4.375 14.9375 C5.18710938 15.11152344 5.99921875 15.28554687 6.8359375 15.46484375 C9 16 9 16 11 17 C11 17.99 11 18.98 11 20 C18.59 20 26.18 20 34 20 C34 20.66 34 21.32 34 22 C35.32 22.33 36.64 22.66 38 23 C38.08121924 24.60332791 38.13929134 26.20784026 38.1875 27.8125 C38.23970703 29.15248047 38.23970703 29.15248047 38.29296875 30.51953125 C38 33 38 33 36.6875 34.8125 C34.17517337 36.58043356 31.9827587 36.19885058 29 36 C28.67 35.34 28.34 34.68 28 34 C25.69 34 23.38 34 21 34 C21.495 35.0209375 21.495 35.0209375 22 36.0625 C23.17307315 39.50840238 23.14180493 42.38397422 23 46 C22.01 46 21.02 46 20 46 C19.855625 44.948125 19.71125 43.89625 19.5625 42.8125 C19.23203904 40.57270903 18.85594879 38.33736442 18.375 36.125 C18.25125 35.42375 18.1275 34.7225 18 34 C18.33 33.67 18.66 33.34 19 33 C19.16053815 31.12678052 19.16053815 31.12678052 19.125 29 C19.12757812 28.278125 19.13015625 27.55625 19.1328125 26.8125 C19.19695276 24.97910585 19.19695276 24.97910585 18 24 C16.50503158 23.79300437 15.0033408 23.63320741 13.5 23.5 C9.11111111 23.11111111 9.11111111 23.11111111 8 22 C8 20.35 8 18.7 8 17 C4.04 17 0.08 17 -4 17 C-4.33 18.98 -4.66 20.96 -5 23 C-7.97 23.33 -10.94 23.66 -14 24 C-13.505 22.515 -13.505 22.515 -13 21 C-10.69 21 -8.38 21 -6 21 C-6 19.68 -6 18.36 -6 17 C-6.99 16.67 -7.98 16.34 -9 16 C-7.3125 14 -7.3125 14 -5 12 C-3.35 12 -1.7 12 0 12 C0 8.04 0 4.08 0 0 Z " fill="#6271D7" transform="translate(62,55)"/>
<path d="M0 0 C2.4375 0.375 2.4375 0.375 5 1 C6.41778293 3.83556587 5.86257622 5.9908706 5.5625 9.125 C5.46066406 10.22070312 5.35882813 11.31640625 5.25390625 12.4453125 C5.17011719 13.28835937 5.08632812 14.13140625 5 15 C5.99 15 6.98 15 8 15 C8.35820896 21.32835821 8.35820896 21.32835821 7 23.875 C3.8045594 25.67243534 0.63526893 25.70202714 -3 26 C-3.33 27.32 -3.66 28.64 -4 30 C-7.3 30 -10.6 30 -14 30 C-14.28875 29.195625 -14.5775 28.39125 -14.875 27.5625 C-15.73262568 24.8673532 -15.73262568 24.8673532 -18 24 C-18 23.01 -18 22.02 -18 21 C-16.77023438 21.06960937 -16.77023438 21.06960937 -15.515625 21.140625 C-14.43796875 21.17671875 -13.3603125 21.2128125 -12.25 21.25 C-10.64898437 21.31960937 -10.64898437 21.31960937 -9.015625 21.390625 C-5.92998446 21.24418777 -5.92998446 21.24418777 -3.7109375 19.26953125 C-1.97043959 16.96078859 -1.15210256 15.20417238 -0.375 12.4375 C0.49310885 9.40933206 1.20610833 7.69083751 3 5 C1.824375 5.2784375 1.824375 5.2784375 0.625 5.5625 C-2 6 -2 6 -4 5 C-3.67 4.01 -3.34 3.02 -3 2 C-2.34 2 -1.68 2 -1 2 C-0.67 1.34 -0.34 0.68 0 0 Z " fill="#E86A28" transform="translate(74,79)"/>
<path d="M0 0 C0.99 0.4021875 0.99 0.4021875 2 0.8125 C5.64939067 2.25705047 9.32245433 3.62871178 13 5 C13 5.66 13 6.32 13 7 C13.70125 7.12375 14.4025 7.2475 15.125 7.375 C18 8 18 8 20.47265625 9.0234375 C25.44178527 10.39916536 30.18157333 10.28944338 35.3125 10.25 C36.30701172 10.25773437 37.30152344 10.26546875 38.32617188 10.2734375 C44.4976364 10.25722879 50.04320535 9.5805757 56 8 C59 7.33333333 62 6.66666667 65 6 C65 6.66 65 7.32 65 8 C57.36309741 15.30611397 45.19211467 16.61366858 34.99414062 16.47216797 C23.68350247 15.96831043 12.25200341 12.65611756 3 6 C0 2.55652174 0 2.55652174 0 0 Z " fill="#1AD546" transform="translate(30,115)"/>
<path d="M0 0 C1.65 0.33 3.3 0.66 5 1 C4.67 1.66 4.34 2.32 4 3 C3.34 2.67 2.68 2.34 2 2 C2.33 2.99 2.66 3.98 3 5 C1.35 5.33 -0.3 5.66 -2 6 C-3.16461426 9.49384279 -3.13568319 12.33655389 -3 16 C-1.10511048 17.89488952 1.57139146 17.18019112 4.08984375 17.23046875 C6.2412636 17.1702792 6.2412636 17.1702792 8 15 C8.24253813 12.78927023 8.24253813 12.78927023 8.125 10.375 C8.10695313 9.55773438 8.08890625 8.74046875 8.0703125 7.8984375 C8.04710938 7.27195312 8.02390625 6.64546875 8 6 C9.32 6.33 10.64 6.66 12 7 C12.22142255 8.95689659 12.4267568 10.91561952 12.625 12.875 C12.79902344 14.51082031 12.79902344 14.51082031 12.9765625 16.1796875 C12.98429687 17.11039063 12.99203125 18.04109375 13 19 C11 21 11 21 8.375 21.125 C7.59125 21.08375 6.8075 21.0425 6 21 C6 22.32 6 23.64 6 25 C3.36 25 0.72 25 -2 25 C-2.33 24.01 -2.66 23.02 -3 22 C-3.78375 21.896875 -4.5675 21.79375 -5.375 21.6875 C-8 21 -8 21 -10 18 C-9.77876141 15.25664151 -9.47800251 12.69467352 -9 10 C-8.835 9.030625 -8.67 8.06125 -8.5 7.0625 C-8 5 -8 5 -7 4 C-5.33382885 3.95936168 -3.66611905 3.957279 -2 4 C-1.34 2.68 -0.68 1.36 0 0 Z " fill="#18BD6A" transform="translate(82,49)"/>
<path d="M0 0 C3.625 -0.3125 3.625 -0.3125 7 0 C8 1 8 1 8.125 3.5 C8 6 8 6 7 7 C5.31816052 7.23287008 3.6287584 7.41264166 1.9375 7.5625 C1.01839844 7.64628906 0.09929688 7.73007813 -0.84765625 7.81640625 C-1.55792969 7.87699219 -2.26820312 7.93757813 -3 8 C-3 8.66 -3 9.32 -3 10 C-3.99 10 -4.98 10 -6 10 C-5.97679687 10.98742187 -5.95359375 11.97484375 -5.9296875 12.9921875 C-5.90261719 14.91417969 -5.90261719 14.91417969 -5.875 16.875 C-5.85179687 18.15117188 -5.82859375 19.42734375 -5.8046875 20.7421875 C-6 24 -6 24 -8 26 C-10.26274788 25.64644564 -11.95088852 25.02455574 -14 24 C-13.91621094 23.33613281 -13.83242188 22.67226562 -13.74609375 21.98828125 C-13.05710043 16.53820746 -13.05710043 16.53820746 -13.625 11.125 C-14 9 -14 9 -13.0625 6.75 C-10.34966731 4.44820256 -8.30700649 4.59251044 -4.84765625 4.34765625 C-2.16714725 3.84328986 -1.57392783 2.12138098 0 0 Z " fill="#EA6A25" transform="translate(61,74)"/>
<path d="M0 0 C2.5 1.5625 2.5 1.5625 4 4 C4.72468526 8.42863214 4.49454049 10.28066838 1.9375 14 C-1 16 -1 16 -4.6875 15.875 C-8 15 -8 15 -10 14 C-10 13.34 -10 12.68 -10 12 C-10.66 12 -11.32 12 -12 12 C-12.48 4.8 -12.48 4.8 -10.5 1.5 C-6.9683809 -0.61897146 -4.01676563 -0.79841448 0 0 Z " fill="#5270FA" transform="translate(68,84)"/>
<path d="M0 0 C1.66842534 0.32441604 3.33480481 0.65939189 5 1 C5.7425 1.144375 6.485 1.28875 7.25 1.4375 C7.8275 1.623125 8.405 1.80875 9 2 C10.18306728 4.36613456 10.13354608 5.86780736 10.125 8.5 C10.12886719 9.69109375 10.12886719 9.69109375 10.1328125 10.90625 C10 13 10 13 9 15 C7.35 15 5.7 15 4 15 C3.67 15.99 3.34 16.98 3 18 C1.35 18 -0.3 18 -2 18 C-2 17.34 -2 16.68 -2 16 C-4.475 15.01 -4.475 15.01 -7 14 C-6.67 12.68 -6.34 11.36 -6 10 C-5.67 10.99 -5.34 11.98 -5 13 C-4.34 13.33 -3.68 13.66 -3 14 C-3.309375 12.63875 -3.309375 12.63875 -3.625 11.25 C-4.0127245 7.88972103 -3.80411967 6.75924185 -2 4 C-2.99 3.67 -3.98 3.34 -5 3 C-2.36 3 0.28 3 3 3 C3 2.34 3 1.68 3 1 C2.01 0.67 1.02 0.34 0 0 Z M7 5 C8 7 8 7 8 7 Z " fill="#3E6AC6" transform="translate(53,52)"/>
<path d="M0 0 C2.46800047 1.15173355 4.04783565 2.04783565 6 4 C7.65697379 4.69040574 9.3255761 5.3530635 11 6 C12.4540625 6.804375 12.4540625 6.804375 13.9375 7.625 C16.90613553 9.20906177 16.90613553 9.20906177 20.0625 9 C23 9 23 9 25.32421875 10.48046875 C33.93436908 15.37002857 48.45603929 11.28014802 58 10 C58 9.34 58 8.68 58 8 C59.74906531 7.35163958 61.49929219 6.70641216 63.25 6.0625 C64.71179688 5.52302734 64.71179688 5.52302734 66.203125 4.97265625 C68.46457161 4.18620345 70.66796552 3.52748399 73 3 C64.87024677 11.98852998 50.42642433 14.58269586 38.7890625 15.3203125 C26.75737129 15.78609033 14.56781252 13.92052404 5 6 C3.14801679 4.07992917 1.59800371 2.14731749 0 0 Z " fill="#5288E8" transform="translate(27,106)"/>
<path d="M0 0 C3 2 3 2 4 5.3125 C4 9 4 9 1.9375 11.9375 C-1.47952121 14.33668511 -2.91783522 14.69483656 -7 14 C-9.375 13 -9.375 13 -11 11 C-11.56659452 8.22484315 -11.5609375 5.77577319 -11 3 C-8.05052049 -0.77533377 -4.51840767 -0.41076433 0 0 Z " fill="#FCFCFB" transform="translate(214,41)"/>
<path d="M0 0 C0 4.38968456 -2.12805101 5.76905739 -5 9 C-4.21625 8.484375 -3.4325 7.96875 -2.625 7.4375 C-1.75875 6.963125 -0.8925 6.48875 0 6 C0.99 6.495 0.99 6.495 2 7 C-3.10437183 11.82620443 -8.39742572 16.36992892 -15 19 C-15.66 18.67 -16.32 18.34 -17 18 C-16.01 17.67 -15.02 17.34 -14 17 C-14 16.34 -14 15.68 -14 15 C-14.71285156 15.27714844 -15.42570312 15.55429688 -16.16015625 15.83984375 C-17.11792969 16.20207031 -18.07570312 16.56429687 -19.0625 16.9375 C-20.00222656 17.29714844 -20.94195312 17.65679687 -21.91015625 18.02734375 C-34.44346131 21.97272044 -52.31700715 22.3909698 -64.40234375 16.875 C-64.92957031 16.58625 -65.45679688 16.2975 -66 16 C-65.67 15.34 -65.34 14.68 -65 14 C-64.41992188 14.20496094 -63.83984375 14.40992187 -63.2421875 14.62109375 C-62.46101563 14.89050781 -61.67984375 15.15992187 -60.875 15.4375 C-60.10929687 15.70433594 -59.34359375 15.97117187 -58.5546875 16.24609375 C-43.84323584 20.58754661 -27.93264437 18.58275176 -14.49609375 11.53125 C-9.22802029 8.2995054 -4.36895375 4.36895375 0 0 Z " fill="#1CC660" transform="translate(109,106)"/>
<path d="M0 0 C4.62 0 9.24 0 14 0 C14 17.49 14 34.98 14 53 C9.38 53 4.76 53 0 53 C0 35.51 0 18.02 0 0 Z M1 3 C0.9747311 9.81761894 0.95716756 16.63522589 0.94506836 23.45288086 C0.94002667 25.77417451 0.93319349 28.09546497 0.92456055 30.41674805 C0.91248775 33.74528795 0.90677021 37.07378602 0.90234375 40.40234375 C0.89718246 41.44712387 0.89202118 42.49190399 0.88670349 43.56834412 C0.88662796 44.52926468 0.88655243 45.49018524 0.88647461 46.48022461 C0.884254 47.33071884 0.88203339 48.18121307 0.87974548 49.05747986 C0.78519716 51.00588545 0.78519716 51.00588545 2 52 C3.51928038 52.07179964 5.04167482 52.08392007 6.5625 52.0625 C7.38878906 52.05347656 8.21507812 52.04445312 9.06640625 52.03515625 C9.70449219 52.02355469 10.34257812 52.01195312 11 52 C11.64296087 40.8744806 12.10333137 29.77080194 12.125 18.625 C12.13176758 17.19208618 12.13176758 17.19208618 12.13867188 15.73022461 C12.12799397 10.71205212 11.85837998 5.9459037 11 1 C7.38970831 1 4.44193324 1.96092582 1 3 Z " fill="#EBFEFF" transform="translate(342,45)"/>
<path d="M0 0 C1.093125 0.0825 2.18625 0.165 3.3125 0.25 C3.3125 1.57 3.3125 2.89 3.3125 4.25 C7.7675 6.725 7.7675 6.725 12.3125 9.25 C12.3125 9.91 12.3125 10.57 12.3125 11.25 C13.3025 11.58 14.2925 11.91 15.3125 12.25 C10.56838824 13.83137059 7.18951686 11.16444411 2.875 9.0625 C2.359375 8.794375 1.84375 8.52625 1.3125 8.25 C2.0859375 9.3946875 2.0859375 9.3946875 2.875 10.5625 C3.349375 11.449375 3.82375 12.33625 4.3125 13.25 C3.9825 14.24 3.6525 15.23 3.3125 16.25 C-2.74332728 14.23139091 -6.67005455 8.0405621 -10.6875 3.25 C-9.3675 3.58 -8.0475 3.91 -6.6875 4.25 C-6.336875 3.59 -5.98625 2.93 -5.625 2.25 C-3.6875 0.25 -3.6875 0.25 0 0 Z " fill="#21C852" transform="translate(88.6875,8.75)"/>
<path d="M0 0 C1.65 0 3.3 0 5 0 C5 0.66 5 1.32 5 2 C6.32 2.33 7.64 2.66 9 3 C9 5.64 9 8.28 9 11 C7.68 11.33 6.36 11.66 5 12 C5 12.66 5 13.32 5 14 C2.23723823 13.47731534 -0.3260876 12.89130413 -3 12 C-3.74926071 8.33694766 -4.2380014 5.57644848 -3 2 C-2.01 2 -1.02 2 0 2 C0 1.34 0 0.68 0 0 Z " fill="#D4CAA2" transform="translate(91,75)"/>
<path d="M0 0 C0.99 0.4021875 0.99 0.4021875 2 0.8125 C5.64939067 2.25705047 9.32245433 3.62871178 13 5 C13 5.66 13 6.32 13 7 C13.721875 7.1340625 14.44375 7.268125 15.1875 7.40625 C17.85492099 7.96937221 20.39380308 8.70542777 23 9.5 C29.28054243 11.2564955 35.50661156 11.70062279 42 12 C42 12.66 42 13.32 42 14 C37.33187713 14.061333 32.6682364 14.04807659 28 14 C26.57107422 14.01160156 26.57107422 14.01160156 25.11328125 14.0234375 C16.87898267 13.75265339 9.8729164 10.36791924 3 6 C0 2.68647541 0 2.68647541 0 0 Z " fill="#0EE128" transform="translate(30,115)"/>
<path d="M0 0 C4.98818986 2.08597031 4.98818986 2.08597031 6.4375 5.4375 C6.21611795 9.64375886 5.78705038 11.91317443 3.4375 15.4375 C1.4921875 15.94921875 1.4921875 15.94921875 -0.6875 16.125 C-1.96625 16.228125 -3.245 16.33125 -4.5625 16.4375 C-4.5625 15.4475 -4.5625 14.4575 -4.5625 13.4375 C-5.5525 13.4375 -6.5425 13.4375 -7.5625 13.4375 C-8.2225 15.0875 -8.8825 16.7375 -9.5625 18.4375 C-10.5625 16.4375 -10.5625 16.4375 -10.0625 14.0625 C-9.3643133 11.51953034 -9.3643133 11.51953034 -10.1875 9.4375 C-10.5625 7.4375 -10.5625 7.4375 -9.375 4.875 C-5.14583333 -0.8125 -5.14583333 -0.8125 0 0 Z M-6.5625 5.4375 C-6.89583333 8.4375 -6.89583333 8.4375 -6.5625 11.4375 C-4.73778109 13.65646136 -4.73778109 13.65646136 -2.125 13.8125 C0.53266517 13.66536947 0.53266517 13.66536947 2.3125 11.75 C3.72614911 8.84416572 3.41920152 7.46441303 2.4375 4.4375 C1.32583136 3.10562207 1.32583136 3.10562207 -1.5 3.25 C-4.67142859 3.10471267 -4.67142859 3.10471267 -6.5625 5.4375 Z " fill="#21AB64" transform="translate(18.5625,31.5625)"/>
<path d="M0 0 C0.91007812 0.10183594 1.82015625 0.20367187 2.7578125 0.30859375 C3.45648438 0.39238281 4.15515625 0.47617188 4.875 0.5625 C5.205 2.2125 5.535 3.8625 5.875 5.5625 C6.50148438 5.61148438 7.12796875 5.66046875 7.7734375 5.7109375 C8.59070313 5.78570312 9.40796875 5.86046875 10.25 5.9375 C11.46816406 6.04191406 11.46816406 6.04191406 12.7109375 6.1484375 C14.875 6.5625 14.875 6.5625 16.875 8.5625 C17.09343043 13.00391874 17.17637311 17.26796873 15.875 21.5625 C14.885 22.0575 14.885 22.0575 13.875 22.5625 C13.88660156 21.71945313 13.89820312 20.87640625 13.91015625 20.0078125 C13.91917969 18.91210938 13.92820312 17.81640625 13.9375 16.6875 C13.95490234 15.05167969 13.95490234 15.05167969 13.97265625 13.3828125 C14.07244303 10.61072454 14.07244303 10.61072454 12.875 8.5625 C10.85036745 7.91036708 10.85036745 7.91036708 8.875 7.5625 C8.545 8.5525 8.215 9.5425 7.875 10.5625 C4.38094654 12.04075339 0.60360192 11.5625 -3.125 11.5625 C-5.43536915 11.99104995 -5.43536915 11.99104995 -7.125 12.5625 C-7.125 11.9025 -7.125 11.2425 -7.125 10.5625 C-3.825 9.9025 -0.525 9.2425 2.875 8.5625 C2.875 6.9125 2.875 5.2625 2.875 3.5625 C-0.49936186 3.22869186 -0.49936186 3.22869186 -4.125 3.5625 C-4.599375 4.201875 -5.07375 4.84125 -5.5625 5.5 C-7.125 7.5625 -7.125 7.5625 -9.0078125 8.015625 C-11.04327398 8.23449183 -13.08422245 8.40053353 -15.125 8.5625 C-16.115 9.0575 -16.115 9.0575 -17.125 9.5625 C-16.795 8.5725 -16.465 7.5825 -16.125 6.5625 C-13.485 6.5625 -10.845 6.5625 -8.125 6.5625 C-8.00125 5.593125 -7.8775 4.62375 -7.75 3.625 C-7.54375 2.614375 -7.3375 1.60375 -7.125 0.5625 C-4.50184968 -0.74907516 -2.89466564 -0.33399988 0 0 Z " fill="#D06E4D" transform="translate(65.125,71.4375)"/>
<path d="M0 0 C9.10093802 -0.79138591 17.01283197 3.09435614 23.953125 8.81640625 C29.69311758 14.93979528 32.68045044 22.69171135 33 31 C32.34 31 31.68 31 31 31 C30.938125 29.989375 30.87625 28.97875 30.8125 27.9375 C30.26968334 24.03551358 28.64820416 21.73607072 26.24609375 18.6875 C25 17 25 17 23.6875 13.9375 C21.0361476 9.32218286 16.84371032 5.80976676 11.66796875 4.3359375 C8.48293567 3.9348938 5.39708489 3.90507995 2.1875 3.9375 C1.02605469 3.94652344 -0.13539062 3.95554687 -1.33203125 3.96484375 C-2.21246094 3.97644531 -3.09289062 3.98804688 -4 4 C-4 3.34 -4 2.68 -4 2 C-2.68 2 -1.36 2 0 2 C0 1.34 0 0.68 0 0 Z " fill="#4E7FE1" transform="translate(83,26)"/>
<path d="M0 0 C2.99531402 2.54601692 4.24004049 5.34468457 5.75 8.9375 C6.19859375 9.97777344 6.6471875 11.01804687 7.109375 12.08984375 C8 15 8 15 7 19 C6.01 15.7 5.02 12.4 4 9 C3.34 9 2.68 9 2 9 C2.21076172 9.57468018 2.42152344 10.14936035 2.63867188 10.74145508 C5.01275163 17.79317021 5.53921569 24.27682421 5.5 31.6875 C5.49935547 32.82493652 5.49871094 33.96237305 5.49804688 35.13427734 C5.33760955 44.22874464 3.81798666 51.73678601 0 60 C-0.66 60 -1.32 60 -2 60 C-1.80664062 59.35933594 -1.61328125 58.71867187 -1.4140625 58.05859375 C-1.15367188 57.19363281 -0.89328125 56.32867187 -0.625 55.4375 C-0.36976562 54.59058594 -0.11453125 53.74367187 0.1484375 52.87109375 C0.42945312 51.92363281 0.71046875 50.97617188 1 50 C1.35578125 48.95328125 1.7115625 47.9065625 2.078125 46.828125 C3.25657786 41.93454957 3.38271568 37.32940831 3.375 32.3125 C3.37483887 31.33732422 3.37467773 30.36214844 3.37451172 29.35742188 C3.25709048 21.93639986 1.99195567 15.81379685 -1 9 C-1.68217187 7.00523536 -2.35261091 5.00632296 -3 3 C-1.515 3.99 -1.515 3.99 0 5 C0 5.66 0 6.32 0 7 C0.66 7 1.32 7 2 7 C1.34 6.01 0.68 5.02 0 4 C0 2.68 0 1.36 0 0 Z " fill="#22CA65" transform="translate(119,36)"/>
<path d="M0 0 C0.66 0.33 1.32 0.66 2 1 C2.79627596 17.43425114 0.83390122 34.18264438 -9.625 47.5625 C-12 50 -12 50 -15 51 C-15 50.01 -15 49.02 -15 48 C-14.01 48 -13.02 48 -12 48 C-12 46.68 -12 45.36 -12 44 C-11.01 44 -10.02 44 -9 44 C-8.67 42.68 -8.34 41.36 -8 40 C-8.66 40 -9.32 40 -10 40 C-9.67 39.34 -9.34 38.68 -9 38 C-8.34 38 -7.68 38 -7 38 C-6.34 36.35 -5.68 34.7 -5 33 C-4.34 33 -3.68 33 -3 33 C-2.94465088 32.39115967 -2.88930176 31.78231934 -2.83227539 31.1550293 C-1.88818359 20.77001953 -0.9440918 10.38500977 0 0 Z " fill="#5289EB" transform="translate(115,58)"/>
<path d="M0 0 C1.04260867 3.40848887 1.10118831 6.49709877 1.0625 10.05078125 C1.05476562 11.22447266 1.04703125 12.39816406 1.0390625 13.60742188 C1.01314437 16.06575651 0.98710389 18.52408987 0.9609375 20.98242188 C0.92294791 26.76633769 0.923803 32.30792681 2 38 C2.66 38 3.32 38 4 38 C4 35.03 4 32.06 4 29 C5.51514926 32.03029851 6.8619003 34.99064148 8.125 38.125 C8.47820313 38.99382812 8.83140625 39.86265625 9.1953125 40.7578125 C10 43 10 43 10 45 C9.34 45 8.68 45 8 45 C7.67 43.35 7.34 41.7 7 40 C6.34 40 5.68 40 5 40 C5.66 42.97 6.32 45.94 7 49 C3.69531645 45.69531645 2.88061127 43.49404375 1.375 39.125 C0.94960937 37.91070312 0.52421875 36.69640625 0.0859375 35.4453125 C-1.82278669 29.38957604 -2.18259039 23.99635108 -2.1875 17.6875 C-2.19974609 16.87087891 -2.21199219 16.05425781 -2.22460938 15.21289062 C-2.23753496 9.80568635 -1.51209673 5.19372356 0 0 Z " fill="#25CD5F" transform="translate(7,51)"/>
<path d="M0 0 C0.33 0 0.66 0 1 0 C1.04898438 1.26457031 1.09796875 2.52914062 1.1484375 3.83203125 C1.2234738 5.49220947 1.29902127 7.15236464 1.375 8.8125 C1.4059375 9.64587891 1.436875 10.47925781 1.46875 11.33789062 C1.50742188 12.14033203 1.54609375 12.94277344 1.5859375 13.76953125 C1.63306885 14.87711792 1.63306885 14.87711792 1.68115234 16.00708008 C1.90834614 18.31349588 1.90834614 18.31349588 4 21 C3.67 21.99 3.34 22.98 3 24 C2.01 23.67 1.02 23.34 0 23 C0 22.34 0 21.68 0 21 C-0.928125 21.2475 -0.928125 21.2475 -1.875 21.5 C-4.67288724 21.94766196 -7.29729326 22.16731852 -10.125 22.25 C-10.97320312 22.27578125 -11.82140625 22.3015625 -12.6953125 22.328125 C-15.48652613 21.93073187 -16.18785879 21.07785106 -18 19 C-20.10332891 18.28552357 -20.10332891 18.28552357 -22 18 C-22 17.34 -22 16.68 -22 16 C-20.35 16 -18.7 16 -17 16 C-16.67 17.32 -16.34 18.64 -16 20 C-13.36 20 -10.72 20 -8 20 C-7.67 19.01 -7.34 18.02 -7 17 C-5.02 16.34 -3.04 15.68 -1 15 C-0.67 10.05 -0.34 5.1 0 0 Z " fill="#4B7AE0" transform="translate(96,54)"/>
<path d="M0 0 C0.66 0 1.32 0 2 0 C2 4.29 2 8.58 2 13 C1.01 13.495 1.01 13.495 0 14 C2.97 14.66 5.94 15.32 9 16 C9.33 17.98 9.66 19.96 10 22 C12.31 22 14.62 22 17 22 C17 22.33 17 22.66 17 23 C10.84765625 23.09765625 10.84765625 23.09765625 9 23 C8.67 22.67 8.34 22.34 8 22 C8 20.35 8 18.7 8 17 C4.04 17 0.08 17 -4 17 C-4.33 18.98 -4.66 20.96 -5 23 C-7.97 23.33 -10.94 23.66 -14 24 C-13.505 22.515 -13.505 22.515 -13 21 C-10.69 21 -8.38 21 -6 21 C-6 19.68 -6 18.36 -6 17 C-6.99 16.67 -7.98 16.34 -9 16 C-7.3125 14 -7.3125 14 -5 12 C-3.35 12 -1.7 12 0 12 C0 8.04 0 4.08 0 0 Z " fill="#7470BF" transform="translate(62,55)"/>
<path d="M0 0 C0.66 0 1.32 0 2 0 C5 6.625 5 6.625 5 10 C5.66 10 6.32 10 7 10 C8.17700048 14.62459244 8.11408412 19.07866462 8.0625 23.8125 C8.05798828 24.60076172 8.05347656 25.38902344 8.04882812 26.20117188 C8.03711312 28.13414761 8.01917998 30.06708393 8 32 C7.67 32 7.34 32 7 32 C6.67 27.38 6.34 22.76 6 18 C5.67 18 5.34 18 5 18 C4.67 21.96 4.34 25.92 4 30 C3.67 30 3.34 30 3 30 C2.98018066 29.44650879 2.96036133 28.89301758 2.93994141 28.32275391 C2.45852994 14.04213829 2.45852994 14.04213829 0 0 Z " fill="#25CF54" transform="translate(121,45)"/>
<path d="M0 0 C3.57026711 0.59237616 5.45816451 1.97180604 8.125 4.375 C8.80820313 4.98085938 9.49140625 5.58671875 10.1953125 6.2109375 C13.16534283 9.15525329 14.31138258 11.67752845 15.125 15.6875 C15.29257813 16.49574219 15.46015625 17.30398437 15.6328125 18.13671875 C15.75398438 18.75160156 15.87515625 19.36648437 16 20 C14 20 14 20 12.34375 18.42578125 C9.08684267 14.69275823 6.76152218 11.65545147 5 7 C3.35305515 5.31384218 1.68873879 3.64429829 0 2 C0 1.34 0 0.68 0 0 Z " fill="#1DD14F" transform="translate(105,23)"/>
<path d="M0 0 C2.4375 0.8125 2.4375 0.8125 4.4375 2.8125 C4.6875 5.3125 4.6875 5.3125 4.4375 7.8125 C2.4375 9.8125 2.4375 9.8125 -0.5625 10.0625 C-3.5625 9.8125 -3.5625 9.8125 -5.5625 7.8125 C-5.93046448 4.94237704 -5.93759409 3.40475382 -4.375 0.9375 C-2.5625 -0.1875 -2.5625 -0.1875 0 0 Z " fill="#477AE3" transform="translate(84.5625,56.1875)"/>
<path d="M0 0 C0 0.99 0 1.98 0 3 C-2 5 -2 5 -5.375 5.875 C-9.0315312 6.67460006 -9.0315312 6.67460006 -10.9375 9.125 C-13.2925469 11.26595173 -13.93172135 11.30719274 -17 11.375 C-20.0829497 11.2142503 -22.43781612 10.84477239 -25 9 C-25.33 8.34 -25.66 7.68 -26 7 C-28.32156597 6.59270772 -30.6568787 6.25561323 -33 6 C-33.33 4.68 -33.66 3.36 -34 2 C-32.1838018 2.42188459 -30.37205927 2.86299165 -28.5625 3.3125 C-27.55316406 3.55613281 -26.54382812 3.79976563 -25.50390625 4.05078125 C-24.67761719 4.36402344 -23.85132813 4.67726563 -23 5 C-22.67 5.99 -22.34 6.98 -22 8 C-18.7 8 -15.4 8 -12 8 C-11.34 6.35 -10.68 4.7 -10 3 C-8.72125 2.87625 -7.4425 2.7525 -6.125 2.625 C-2.65209064 2.30957601 -2.65209064 2.30957601 0 0 Z " fill="#8E6CA9" transform="translate(81,101)"/>
<path d="M0 0 C2.64 0 5.28 0 8 0 C8 0.66 8 1.32 8 2 C6.2984375 2.433125 6.2984375 2.433125 4.5625 2.875 C3.386875 3.24625 2.21125 3.6175 1 4 C0.67 4.66 0.34 5.32 0 6 C-1.97888961 6.72693904 -3.97954558 7.39816251 -6 8 C-5.979375 9.2375 -5.95875 10.475 -5.9375 11.75 C-5.93231807 14.68815449 -6.16174327 17.17088352 -7 20 C-7 20.99 -7 21.98 -7 23 C-9.83966112 20.16033888 -9.40532854 17.36230671 -9.4375 13.5625 C-9.47037109 12.88123047 -9.50324219 12.19996094 -9.53710938 11.49804688 C-9.55859375 9.50390625 -9.55859375 9.50390625 -9 6 C-6.14465223 3.59273686 -4.73821022 3 -1 3 C-0.67 2.01 -0.34 1.02 0 0 Z " fill="#3791BB" transform="translate(80,47)"/>
<path d="M0 0 C3 2 3 2 4 5.3125 C4 9 4 9 1.9375 11.9375 C-1.47952121 14.33668511 -2.91783522 14.69483656 -7 14 C-9.375 13 -9.375 13 -11 11 C-11.56659452 8.22484315 -11.5609375 5.77577319 -11 3 C-8.05052049 -0.77533377 -4.51840767 -0.41076433 0 0 Z M-9 3 C-9.16053815 4.87321948 -9.16053815 4.87321948 -9.125 7 C-9.12757813 7.721875 -9.13015625 8.44375 -9.1328125 9.1875 C-9.19695276 11.02089415 -9.19695276 11.02089415 -8 12 C-6.48071962 12.07179964 -4.95832518 12.08392007 -3.4375 12.0625 C-2.19806641 12.04896484 -2.19806641 12.04896484 -0.93359375 12.03515625 C-0.29550781 12.02355469 0.34257812 12.01195312 1 12 C1.185625 10.72125 1.37125 9.4425 1.5625 8.125 C1.66691406 7.40570313 1.77132812 6.68640625 1.87890625 5.9453125 C2.1684297 3.91859333 2.1684297 3.91859333 1 2 C-0.47906892 1.97310784 -1.95827483 1.95365379 -3.4375 1.9375 C-4.26121094 1.92589844 -5.08492187 1.91429687 -5.93359375 1.90234375 C-7.99163938 1.76732652 -7.99163938 1.76732652 -9 3 Z " fill="#E8FDFE" transform="translate(214,41)"/>
<path d="M0 0 C2.4375 0.375 2.4375 0.375 5 1 C6.41564834 3.83129669 6.24224495 5.85081562 6 9 C4.5 12.375 4.5 12.375 3 15 C2.34 15 1.68 15 1 15 C0.75 8.375 0.75 8.375 3 5 C2.21625 5.185625 1.4325 5.37125 0.625 5.5625 C-2 6 -2 6 -4 5 C-3.67 4.01 -3.34 3.02 -3 2 C-2.34 2 -1.68 2 -1 2 C-0.67 1.34 -0.34 0.68 0 0 Z " fill="#EA6B22" transform="translate(74,79)"/>
<path d="M0 0 C1.32 0.33 2.64 0.66 4 1 C4.22142255 2.95689659 4.4267568 4.91561952 4.625 6.875 C4.74101563 7.96554688 4.85703125 9.05609375 4.9765625 10.1796875 C4.98429687 11.11039063 4.99203125 12.04109375 5 13 C3 15 3 15 0.375 15.125 C-0.40875 15.08375 -1.1925 15.0425 -2 15 C-2 14.34 -2 13.68 -2 13 C-4.31 13 -6.62 13 -9 13 C-9 12.67 -9 12.34 -9 12 C-7.329375 11.814375 -7.329375 11.814375 -5.625 11.625 C-1.96896323 11.3534187 -1.96896323 11.3534187 0 9 C0.24253813 6.78927023 0.24253813 6.78927023 0.125 4.375 C0.10695313 3.55773438 0.08890625 2.74046875 0.0703125 1.8984375 C0.04710938 1.27195313 0.02390625 0.64546875 0 0 Z " fill="#1CBA6F" transform="translate(90,55)"/>
<path d="M0 0 C7.8064573 1.49785298 14.24361427 7.85599573 20 13 C19.67 13.66 19.34 14.32 19 15 C18.401875 14.360625 17.80375 13.72125 17.1875 13.0625 C15.09189663 10.79689611 15.09189663 10.79689611 12 10 C12.51691406 10.54269531 13.03382812 11.08539063 13.56640625 11.64453125 C14.22511719 12.35996094 14.88382813 13.07539063 15.5625 13.8125 C16.55443359 14.87404297 16.55443359 14.87404297 17.56640625 15.95703125 C18.03949219 16.63121094 18.51257813 17.30539063 19 18 C18.67 18.99 18.34 19.98 18 21 C17.55269531 20.48050781 17.10539062 19.96101563 16.64453125 19.42578125 C13.21798969 15.47320346 9.75553321 11.64172918 6 8 C7.32 8 8.64 8 10 8 C9.278125 7.4225 8.55625 6.845 7.8125 6.25 C5.20833333 4.16666667 2.60416667 2.08333333 0 0 Z " fill="#21CF60" transform="translate(93,13)"/>
<path d="M0 0 C3.67554457 0.45944307 7.04412803 1.01217325 10.625 2 C16.29983308 3.50282141 22.16252526 3.6618536 28 4 C28 4.66 28 5.32 28 6 C5.32004033 6.2903551 5.32004033 6.2903551 0 2 C0 1.34 0 0.68 0 0 Z " fill="#0BE417" transform="translate(44,123)"/>
<path d="M0 0 C0.99 0 1.98 0 3 0 C1.45941767 5.01508715 -0.02931839 9.6147081 -3 14 C-3 11.83243208 -2.92845344 9.66446425 -2.8125 7.5 C-2.75151416 4.15623476 -2.75151416 4.15623476 -4 2.0625 C-7.21504517 0.35450726 -10.48805027 0.44882882 -14 1 C-16.4595774 2.33830958 -16.4595774 2.33830958 -18 4 C-17.06896676 1.67241689 -16.34617872 0.25642868 -14.3125 -1.25 C-9.13132645 -2.93038061 -4.85755723 -2.15891433 0 0 Z " fill="#CD6B54" transform="translate(74,84)"/>
<path d="M0 0 C1.875 1.5625 1.875 1.5625 3 3 C0.33333333 2.33333333 -2.33333333 1.66666667 -5 1 C-5.33 1.99 -5.66 2.98 -6 4 C-8.0625 4.6875 -8.0625 4.6875 -10 5 C-10 6.98 -10 8.96 -10 11 C-10.66 11 -11.32 11 -12 11 C-11.42655063 13.86724686 -11.1385485 14.8614515 -9 17 C-10.32 17 -11.64 17 -13 17 C-14.0093118 12.33193293 -14.36483009 9.28916961 -12.25 4.9375 C-11.92515625 4.24527344 -11.6003125 3.55304687 -11.265625 2.83984375 C-8.28218911 -1.49718805 -4.75778151 -1.31598212 0 0 Z " fill="#4A71DF" transform="translate(58,51)"/>
<path d="M0 0 C0 1.98 0 3.96 0 6 C-1.32 6 -2.64 6 -4 6 C-4.33 6.99 -4.66 7.98 -5 9 C-7.51570636 8.02617818 -8.73944098 7.53848865 -9.9375 5.0625 C-10 3 -10 3 -9 1.25 C-6.03327697 -0.6042019 -3.41502959 -0.19330356 0 0 Z " fill="#04ED06" transform="translate(92,9)"/>
<path d="M0 0 C1.65 0 3.3 0 5 0 C5 0.66 5 1.32 5 2 C5.99 2.33 6.98 2.66 8 3 C5.69 2.67 3.38 2.34 1 2 C1 2.66 1 3.32 1 4 C2.32 4.33 3.64 4.66 5 5 C4.67 6.65 4.34 8.3 4 10 C2.0625 9.625 2.0625 9.625 0 9 C-0.33 8.34 -0.66 7.68 -1 7 C-1.99 7.495 -1.99 7.495 -3 8 C-4.125 4.25 -4.125 4.25 -3 2 C-2.01 2 -1.02 2 0 2 C0 1.34 0 0.68 0 0 Z " fill="#C8C1A6" transform="translate(91,75)"/>
<path d="M0 0 C5.75 -0.125 5.75 -0.125 8 1 C7.125 6.875 7.125 6.875 6 8 C3.5 8.125 3.5 8.125 1 8 C0 7 0 7 -0.0625 3.4375 C-0.041875 2.303125 -0.02125 1.16875 0 0 Z " fill="#5B77EF" transform="translate(51,57)"/>
<path d="M0 0 C0.66 0.33 1.32 0.66 2 1 C2.42279968 5.31255674 2.43099539 7.37309762 -0.0625 11 C-3 13 -3 13 -6.6875 12.875 C-10 12 -10 12 -12 11 C-12 10.34 -12 9.68 -12 9 C-12.66 9 -13.32 9 -14 9 C-14 6.36 -14 3.72 -14 1 C-13.67 1 -13.34 1 -13 1 C-13 2.65 -13 4.3 -13 6 C-12.34 6 -11.68 6 -11 6 C-11 6.99 -11 7.98 -11 9 C-7.7 9.33 -4.4 9.66 -1 10 C-1 9.01 -1 8.02 -1 7 C-0.34 7 0.32 7 1 7 C0.67 4.69 0.34 2.38 0 0 Z " fill="#796CBD" transform="translate(70,87)"/>
<path d="M0 0 C0.33 0 0.66 0 1 0 C1.35820896 6.32835821 1.35820896 6.32835821 0 8.875 C-2.20238304 10.11384046 -3.56997392 10.22488888 -6.0625 10.4375 C-8.0115625 10.7159375 -8.0115625 10.7159375 -10 11 C-11.5899433 12.92064793 -11.5899433 12.92064793 -12 15 C-12.234375 12.70703125 -12.234375 12.70703125 -12 10 C-10.390625 8.19921875 -10.390625 8.19921875 -8.25 6.6875 C-7.55390625 6.17574219 -6.8578125 5.66398437 -6.140625 5.13671875 C-4 4 -4 4 0 4 C0 2.68 0 1.36 0 0 Z " fill="#DA6D3A" transform="translate(81,94)"/>
<path d="M0 0 C0 1.95844415 -0.01993518 3.91701846 -0.0625 5.875 C-0.0926055 8.96711627 -0.0926055 8.96711627 0.5625 11.8125 C0.706875 12.534375 0.85125 13.25625 1 14 C0.67 14.33 0.34 14.66 0 15 C-0.07179964 16.51928038 -0.08392007 18.04167482 -0.0625 19.5625 C-0.05347656 20.38878906 -0.04445312 21.21507813 -0.03515625 22.06640625 C-0.02355469 22.70449219 -0.01195312 23.34257813 0 24 C-0.66 24 -1.32 24 -2 24 C-3.76279117 20.47441767 -3.22713881 16.44604409 -3.25 12.5625 C-3.270625 11.69044922 -3.29125 10.81839844 -3.3125 9.91992188 C-3.31765625 9.08138672 -3.3228125 8.24285156 -3.328125 7.37890625 C-3.3374707 6.6113501 -3.34681641 5.84379395 -3.35644531 5.05297852 C-2.91341409 2.50130072 -1.96034922 1.62489012 0 0 Z " fill="#766DC4" transform="translate(47,79)"/>
<path d="M0 0 C0.66 0 1.32 0 2 0 C2.33 2.97 2.66 5.94 3 9 C5.97 9.99 8.94 10.98 12 12 C12 11.34 12 10.68 12 10 C13.32 9.67 14.64 9.34 16 9 C16 11 16 11 14.875 12.625 C12.24112056 14.55651159 10.18083044 14.21205536 7 14 C6.67 13.34 6.34 12.68 6 12 C3.69 12 1.38 12 -1 12 C-0.67 8.04 -0.34 4.08 0 0 Z " fill="#5D73D9" transform="translate(84,77)"/>
<path d="M0 0 C0.66 0 1.32 0 2 0 C1.98839844 0.78246094 1.97679688 1.56492187 1.96484375 2.37109375 C1.95582031 3.38300781 1.94679688 4.39492187 1.9375 5.4375 C1.92589844 6.44683594 1.91429688 7.45617187 1.90234375 8.49609375 C1.71387324 10.94021067 1.71387324 10.94021067 3 12 C3.04092937 14.33297433 3.04241723 16.66705225 3 19 C2.01 19 1.02 19 0 19 C-0.144375 17.948125 -0.28875 16.89625 -0.4375 15.8125 C-0.89276597 12.19179795 -0.89276597 12.19179795 -1.6875 9.5 C-2.12369011 6.01047911 -1.09922191 3.29766573 0 0 Z " fill="#866DB1" transform="translate(82,82)"/>
<path d="M0 0 C0.66 0 1.32 0 2 0 C2.33 1.65 2.66 3.3 3 5 C3.66 5 4.32 5 5 5 C5 6.32 5 7.64 5 9 C5.66 9 6.32 9 7 9 C9 12 9 12 9 16 C8.34 16 7.68 16 7 16 C5.2734375 13.76953125 5.2734375 13.76953125 3.375 10.8125 C2.42753906 9.36810547 2.42753906 9.36810547 1.4609375 7.89453125 C-0.0416253 4.91752847 -0.32317516 3.27364473 0 0 Z " fill="#0EE41B" transform="translate(12,91)"/>
<path d="M0 0 C0.66 0.33 1.32 0.66 2 1 C1.04934612 4.29072498 -0.01547441 7.18991176 -2 10 C-6.75784471 11.97716886 -12.09683735 11.13149907 -17 10 C-16.01 7.69 -15.02 5.38 -14 3 C-13.67 3 -13.34 3 -13 3 C-13 4.98 -13 6.96 -13 9 C-9.52346897 8.68039396 -6.27852858 8.23010815 -3 7 C-1.16506466 4.67000879 -0.76044651 2.93315083 0 0 Z " fill="#E4FAFE" transform="translate(382,107)"/>
<path d="M0 0 C2.0625 2.375 2.0625 2.375 3 5 C2.67 5.66 2.34 6.32 2 7 C1.34 5.68 0.68 4.36 0 3 C-2.31 3.33 -4.62 3.66 -7 4 C-7.66 5.65 -8.32 7.3 -9 9 C-9.66 9 -10.32 9 -11 9 C-11.35555556 3.66666667 -11.35555556 3.66666667 -10 1.125 C-6.78661034 -0.68253169 -3.57778998 -0.81820561 0 0 Z " fill="#626CE3" transform="translate(68,84)"/>
<path d="M0 0 C0 4.38968456 -2.12805101 5.76905739 -5 9 C-3.824375 8.2265625 -3.824375 8.2265625 -2.625 7.4375 C-1.75875 6.963125 -0.8925 6.48875 0 6 C0.66 6.33 1.32 6.66 2 7 C0.02 8.65 -1.96 10.3 -4 12 C-4.5775 11.649375 -5.155 11.29875 -5.75 10.9375 C-8.35801776 9.85082593 -9.39417629 10.06934867 -12 11 C-8.19588166 7.08060535 -4.18423892 3.50897269 0 0 Z " fill="#1EC55E" transform="translate(109,106)"/>
<path d="M0 0 C0.66 0.66 1.32 1.32 2 2 C2.66 1.67 3.32 1.34 4 1 C2.58832253 6.26170694 0.25149768 9.72171358 -3 14 C-3 10.30581799 -1.71820705 8.22163822 0 5 C-0.66 5 -1.32 5 -2 5 C-2.33 5.99 -2.66 6.98 -3 8 C-3.66 8 -4.32 8 -5 8 C-4.34 6.35 -3.68 4.7 -3 3 C-2.01 3 -1.02 3 0 3 C0 2.01 0 1.02 0 0 Z " fill="#19D851" transform="translate(119,93)"/>
<path d="M0 0 C0.81404297 0.61488281 0.81404297 0.61488281 1.64453125 1.2421875 C2.35996094 1.78101562 3.07539063 2.31984375 3.8125 2.875 C4.52019531 3.40867187 5.22789063 3.94234375 5.95703125 4.4921875 C7.60456297 5.70814781 9.29624211 6.86416141 11 8 C11 8.66 11 9.32 11 10 C11.5775 10.268125 12.155 10.53625 12.75 10.8125 C15.0325868 12.01719859 16.9737942 13.40798115 19 15 C11.26227607 14.51639225 4.9323656 7.42560216 0 2 C0 1.34 0 0.68 0 0 Z " fill="#1EBC69" transform="translate(23,105)"/>
<path d="M0 0 C0.33 0 0.66 0 1 0 C1 1.98 1 3.96 1 6 C-0.32 6.33 -1.64 6.66 -3 7 C-2.67 5.02 -2.34 3.04 -2 1 C-5.63 0.34 -9.26 -0.32 -13 -1 C-11.68 -1.33 -10.36 -1.66 -9 -2 C-8.360625 -2.2475 -7.72125 -2.495 -7.0625 -2.75 C-4.02106905 -3.1186583 -2.46628246 -1.66640707 0 0 Z " fill="#2D55CA" transform="translate(61,57)"/>
<path d="M0 0 C1.72945653 0.14235457 3.45855654 0.28904382 5.1875 0.4375 C6.63189453 0.55931641 6.63189453 0.55931641 8.10546875 0.68359375 C10.78649602 0.97666151 13.3662986 1.42703754 16 2 C16 2.66 16 3.32 16 4 C18.475 4.495 18.475 4.495 21 5 C21 5.66 21 6.32 21 7 C19.02 7 17.04 7 15 7 C15 6.01 15 5.02 15 4 C10.05 3.01 5.1 2.02 0 1 C0 0.67 0 0.34 0 0 Z " fill="#5D75F3" transform="translate(58,68)"/>
<path d="M0 0 C0.33 0 0.66 0 1 0 C1.103125 0.94875 1.20625 1.8975 1.3125 2.875 C1.68539295 6.29107501 1.68539295 6.29107501 5 8 C4.67 9.32 4.34 10.64 4 12 C3.01 12 2.02 12 1 12 C1 11.34 1 10.68 1 10 C-1.475 9.01 -1.475 9.01 -4 8 C-3.67 6.68 -3.34 5.36 -3 4 C-2.67 4.99 -2.34 5.98 -2 7 C-1.34 7.33 -0.68 7.66 0 8 C-0.185625 7.05125 -0.37125 6.1025 -0.5625 5.125 C-1 2 -1 2 0 0 Z " fill="#3C64D1" transform="translate(50,58)"/>
<path d="M0 0 C6.625 -0.125 6.625 -0.125 10 1 C9.67 1.99 9.34 2.98 9 4 C4.71 4 0.42 4 -4 4 C-4 3.34 -4 2.68 -4 2 C-2.68 2 -1.36 2 0 2 C0 1.34 0 0.68 0 0 Z " fill="#5170E0" transform="translate(83,26)"/>
<path d="M0 0 C3.50588356 0.56398996 4.98982392 1.66963773 7.25 4.375 C7.77078125 4.98085938 8.2915625 5.58671875 8.828125 6.2109375 C10 8 10 8 10 11 C9.01 11 8.02 11 7 11 C5.95355934 9.36209288 4.9601817 7.68991979 4 6 C3.278125 5.278125 2.55625 4.55625 1.8125 3.8125 C1.214375 3.214375 0.61625 2.61625 0 2 C0 1.34 0 0.68 0 0 Z " fill="#0DE41C" transform="translate(105,23)"/>
<path d="M0 0 C6.0546875 -0.1953125 6.0546875 -0.1953125 8 0 C10 2 10 2 10.1875 5.8125 C10.10139927 8.96952681 9.9212924 11.95973509 9 15 C8.01 15.495 8.01 15.495 7 16 C7.01160156 15.15695313 7.02320312 14.31390625 7.03515625 13.4453125 C7.04417969 12.34960938 7.05320312 11.25390625 7.0625 10.125 C7.07410156 9.03445312 7.08570312 7.94390625 7.09765625 6.8203125 C7.19744303 4.04822454 7.19744303 4.04822454 6 2 C2.97065509 1.34227572 2.97065509 1.34227572 0 1 C0 0.67 0 0.34 0 0 Z " fill="#CC6E54" transform="translate(72,78)"/>
<path d="M0 0 C0.99 0 1.98 0 3 0 C2.48041715 4.37934119 1.94324258 8.68803391 1 13 C0.67 13 0.34 13 0 13 C-0.33 11.02 -0.66 9.04 -1 7 C-1.66 7.66 -2.32 8.32 -3 9 C-2.44271087 5.65626525 -1.64826111 2.96687001 0 0 Z " fill="#18D93A" transform="translate(11,45)"/>
<path d="M0 0 C0.99 0 1.98 0 3 0 C3.144375 1.11375 3.28875 2.2275 3.4375 3.375 C3.78372035 6.82142047 3.78372035 6.82142047 5 9 C4.01 9 3.02 9 2 9 C1.34 10.65 0.68 12.3 0 14 C-1 12 -1 12 -0.5 9.625 C0.01785254 6.90627415 -0.30461112 5.60770829 -1 3 C-0.67 2.01 -0.34 1.02 0 0 Z " fill="#1DBF58" transform="translate(9,36)"/>
<path d="M0 0 C1.98 0.495 1.98 0.495 4 1 C4 4.3 4 7.6 4 11 C3.34 11 2.68 11 2 11 C1.67 11.99 1.34 12.98 1 14 C0.34 13.34 -0.32 12.68 -1 12 C-0.67 11.67 -0.34 11.34 0 11 C0.07226502 9.14712498 0.0838122 7.29166122 0.0625 5.4375 C0.05347656 4.42558594 0.04445313 3.41367187 0.03515625 2.37109375 C0.02355469 1.58863281 0.01195313 0.80617187 0 0 Z " fill="#10C35B" transform="translate(90,55)"/>
<path d="M0 0 C0.66 0 1.32 0 2 0 C4.68219822 5.36439644 5.3152595 9.01006953 5 15 C2.68994131 12.68994131 2.27825897 11.16916343 1.375 8.0625 C1.11460938 7.18722656 0.85421875 6.31195313 0.5859375 5.41015625 C0 3 0 3 0 0 Z " fill="#0AE518" transform="translate(121,45)"/>
<path d="M0 0 C1.051875 0.4125 2.10375 0.825 3.1875 1.25 C3.1875 1.91 3.1875 2.57 3.1875 3.25 C1.90875 3.394375 0.63 3.53875 -0.6875 3.6875 C-3.06942894 3.95642746 -4.65702691 4.17226346 -6.8125 5.25 C-7.4725 4.59 -8.1325 3.93 -8.8125 3.25 C-5.5802484 -0.08019862 -4.70297908 -0.92517621 0 0 Z " fill="#21BA6A" transform="translate(18.8125,31.75)"/>
<path d="M0 0 C0.99 0 1.98 0 3 0 C3 0.66 3 1.32 3 2 C5.475 2.99 5.475 2.99 8 4 C8 5.32 8 6.64 8 8 C6.02 8 4.04 8 2 8 C2.66 7.67 3.32 7.34 4 7 C4 6.01 4 5.02 4 4 C2.68 4 1.36 4 0 4 C0 2.68 0 1.36 0 0 Z " fill="#5572EC" transform="translate(48,68)"/>
<path d="M0 0 C0.33 0.66 0.66 1.32 1 2 C-0.32 2 -1.64 2 -3 2 C-3.33 2.66 -3.66 3.32 -4 4 C-6.28515625 4.8515625 -6.28515625 4.8515625 -9.0625 5.625 C-9.98160156 5.88539062 -10.90070313 6.14578125 -11.84765625 6.4140625 C-12.55792969 6.60742188 -13.26820312 6.80078125 -14 7 C-14.66 6.34 -15.32 5.68 -16 5 C-5.62642369 0.59225513 -5.62642369 0.59225513 0 0 Z " fill="#557DEF" transform="translate(82,26)"/>
<path d="M0 0 C6.15234375 0.5859375 6.15234375 0.5859375 8 1 C8.33 1.66 8.66 2.32 9 3 C5.7 3 2.4 3 -1 3 C-1 6.3 -1 9.6 -1 13 C-1.33 13 -1.66 13 -2 13 C-2.19491452 11.54263913 -2.38069358 10.08405407 -2.5625 8.625 C-2.66691406 7.81289063 -2.77132812 7.00078125 -2.87890625 6.1640625 C-3 4 -3 4 -2 2 C-1.34 2 -0.68 2 0 2 C0 1.34 0 0.68 0 0 Z " fill="#EBFDFF" transform="translate(174,56)"/>
<path d="M0 0 C-0.25 1.875 -0.25 1.875 -1 4 C-3.0625 5.25 -3.0625 5.25 -5 6 C-5 5.34 -5 4.68 -5 4 C-4.34 4 -3.68 4 -3 4 C-3 3.34 -3 2.68 -3 2 C-8.61 2 -14.22 2 -20 2 C-20 1.67 -20 1.34 -20 1 C-17.4167588 0.83178895 -14.83342301 0.66537483 -12.25 0.5 C-11.52039063 0.45230469 -10.79078125 0.40460937 -10.0390625 0.35546875 C-6.68189836 0.14183103 -3.36563724 0 0 0 Z " fill="#24B671" transform="translate(98,6)"/>
<path d="M0 0 C1.9375 2 1.9375 2 3 4 C2.67 4.66 2.34 5.32 2 6 C1.67 5.505 1.34 5.01 1 4.5 C-1.61915783 2.53563163 -3.85090676 2.58898033 -7.05859375 2.6953125 C-9.66017056 3.10360826 -11.15608554 4.15608554 -13 6 C-12.06896676 3.67241689 -11.34617872 2.25642868 -9.3125 0.75 C-6.03368188 -0.31340047 -3.42043417 -0.37313827 0 0 Z " fill="#A56D85" transform="translate(69,82)"/>
<path d="M0 0 C0.33 0 0.66 0 1 0 C1.57328074 4.69885464 2 9.26322436 2 14 C2.33 14.66 2.66 15.32 3 16 C1.68 16 0.36 16 -1 16 C-0.67 13.69 -0.34 11.38 0 9 C-0.66 9 -1.32 9 -2 9 C-2 8.01 -2 7.02 -2 6 C-1.34 6 -0.68 6 0 6 C0 4.02 0 2.04 0 0 Z " fill="#4D75ED" transform="translate(70,54)"/>
<path d="M0 0 C-0.61454696 3.99455527 -2.70646737 6.74466336 -5 10 C-5.99 9.67 -6.98 9.34 -8 9 C-3.8 0 -3.8 0 0 0 Z " fill="#0BE618" transform="translate(119,98)"/>
<path d="M0 0 C1.08667969 0.11085937 2.17335937 0.22171875 3.29296875 0.3359375 C4.12441406 0.43132813 4.95585937 0.52671875 5.8125 0.625 C5.4825 1.615 5.1525 2.605 4.8125 3.625 C4.8125 2.965 4.8125 2.305 4.8125 1.625 C1.1825 1.625 -2.4475 1.625 -6.1875 1.625 C-5.8575 4.265 -5.5275 6.905 -5.1875 9.625 C-5.8475 9.295 -6.5075 8.965 -7.1875 8.625 C-7.91825648 6.3109378 -8.58888258 3.97671131 -9.1875 1.625 C-5.54331659 -0.80445561 -4.25826636 -0.4578781 0 0 Z " fill="#EBFCFE" transform="translate(229.1875,57.375)"/>
<path d="M0 0 C0.99 0 1.98 0 3 0 C3 0.66 3 1.32 3 2 C3.99 2.33 4.98 2.66 6 3 C5.34 3 4.68 3 4 3 C4 3.66 4 4.32 4 5 C6.475 5.99 6.475 5.99 9 7 C8.01 7.495 8.01 7.495 7 8 C4.8359375 7.22265625 4.8359375 7.22265625 2.375 6.0625 C1.55773438 5.68222656 0.74046875 5.30195312 -0.1015625 4.91015625 C-1.04128906 4.45962891 -1.04128906 4.45962891 -2 4 C-0.68 3.67 0.64 3.34 2 3 C2 2.34 2 1.68 2 1 C1.34 0.67 0.68 0.34 0 0 Z " fill="#1AD045" transform="translate(40,120)"/>
<path d="M0 0 C0 0.99 0 1.98 0 3 C-2.3129482 5.3129482 -3.47904875 5.49580975 -6.625 6.125 C-7.44226563 6.29257813 -8.25953125 6.46015625 -9.1015625 6.6328125 C-10.04128906 6.81457031 -10.04128906 6.81457031 -11 7 C-10.67 5.68 -10.34 4.36 -10 3 C-8.72125 2.87625 -7.4425 2.7525 -6.125 2.625 C-2.65209064 2.30957601 -2.65209064 2.30957601 0 0 Z " fill="#996C94" transform="translate(81,101)"/>
<path d="M0 0 C2.09854073 2.09854073 2.88501458 3.67976721 4.0625 6.375 C4.40410156 7.14585938 4.74570312 7.91671875 5.09765625 8.7109375 C5.92068218 10.79878684 6.51546257 12.81208872 7 15 C2.70380386 11.04297724 0.13954637 8.13979328 -0.125 2.1875 C-0.08375 1.465625 -0.0425 0.74375 0 0 Z " fill="#4684D4" transform="translate(20,91)"/>
<path d="M0 0 C-0.33 0.99 -0.66 1.98 -1 3 C-1.33 2.34 -1.66 1.68 -2 1 C-5.96 1 -9.92 1 -14 1 C-14.33 2.32 -14.66 3.64 -15 5 C-15.33 4.01 -15.66 3.02 -16 2 C-15.67 1.34 -15.34 0.68 -15 0 C-10.05122578 -1.05390562 -4.88947792 -1.46684337 0 0 Z " fill="#E6F9FE" transform="translate(405,58)"/>
<path d="M0 0 C5.75 -0.125 5.75 -0.125 8 1 C7.625 3.9375 7.625 3.9375 7 7 C6.01 7.495 6.01 7.495 5 8 C5 6.02 5 4.04 5 2 C3.35 2 1.7 2 0 2 C0 1.34 0 0.68 0 0 Z " fill="#4E73DB" transform="translate(51,57)"/>
<path d="M0 0 C0.33 0 0.66 0 1 0 C1 2.64 1 5.28 1 8 C0.01 8 -0.98 8 -2 8 C-2.33 8.99 -2.66 9.98 -3 11 C-3.99 10.67 -4.98 10.34 -6 10 C-5.67 8.68 -5.34 7.36 -5 6 C-3.35 6 -1.7 6 0 6 C0 4.02 0 2.04 0 0 Z " fill="#E26B32" transform="translate(54,84)"/>
<path d="M0 0 C0.33 0.66 0.66 1.32 1 2 C0.07161713 3.31896465 -0.86805732 4.62998689 -1.8125 5.9375 C-2.59560547 7.03384766 -2.59560547 7.03384766 -3.39453125 8.15234375 C-5 10 -5 10 -8 11 C-8 10.01 -8 9.02 -8 8 C-7.01 8 -6.02 8 -5 8 C-5 6.68 -5 5.36 -5 4 C-4.01 4 -3.02 4 -2 4 C-1.34 2.68 -0.68 1.36 0 0 Z " fill="#498FE8" transform="translate(108,98)"/>
<path d="M0 0 C0.66 0 1.32 0 2 0 C2 3.3 2 6.6 2 10 C1.67 9.34 1.34 8.68 1 8 C0.34 8 -0.32 8 -1 8 C-1.04241723 5.66705225 -1.04092937 3.33297433 -1 1 C-0.67 0.67 -0.34 0.34 0 0 Z " fill="#517EE9" transform="translate(20,83)"/>
<path d="M0 0 C2.31 0.33 4.62 0.66 7 1 C7 3.31 7 5.62 7 8 C6.34 8 5.68 8 5 8 C4.731875 7.195625 4.46375 6.39125 4.1875 5.5625 C3.795625 4.716875 3.40375 3.87125 3 3 C2.01 2.67 1.02 2.34 0 2 C0 1.34 0 0.68 0 0 Z " fill="#EADA8E" transform="translate(92,77)"/>
<path d="M0 0 C3.37462715 0.54723683 5.08235 1.0549 8 3 C8 3.66 8 4.32 8 5 C8.99 5.33 9.98 5.66 11 6 C10.01 6.33 9.02 6.66 8 7 C7.01 6.34 6.02 5.68 5 5 C5 4.34 5 3.68 5 3 C3.35 2.67 1.7 2.34 0 2 C0 1.34 0 0.68 0 0 Z " fill="#0DE416" transform="translate(93,15)"/>
<path d="M0 0 C0.99 0.33 1.98 0.66 3 1 C2.67 2.32 2.34 3.64 2 5 C0.02 5 -1.96 5 -4 5 C-2.25 1.125 -2.25 1.125 0 0 Z " fill="#11E32A" transform="translate(101,115)"/>
<path d="M0 0 C4.455 0.99 4.455 0.99 9 2 C9.33 3.65 9.66 5.3 10 7 C9.34 6.34 8.68 5.68 8 5 C5.67724823 4.59952556 3.34260643 4.2602896 1 4 C0.67 2.68 0.34 1.36 0 0 Z " fill="#6F6AD0" transform="translate(47,103)"/>
<path d="M0 0 C0 0.66 0 1.32 0 2 C-5.625 5 -5.625 5 -9 5 C-9 4.01 -9 3.02 -9 2 C-2.25 0 -2.25 0 0 0 Z " fill="#09E713" transform="translate(95,121)"/>
<path d="M0 0 C1.65 0 3.3 0 5 0 C4.67 1.65 4.34 3.3 4 5 C2.68 4.67 1.36 4.34 0 4 C0 2.68 0 1.36 0 0 Z " fill="#6E7AAD" transform="translate(91,80)"/>
<path d="M0 0 C1.65 0 3.3 0 5 0 C5.33 1.32 5.66 2.64 6 4 C8.64 4 11.28 4 14 4 C14 4.33 14 4.66 14 5 C11.03 5 8.06 5 5 5 C4.67 4.34 4.34 3.68 4 3 C1.97536745 2.34786708 1.97536745 2.34786708 0 2 C0 1.34 0 0.68 0 0 Z " fill="#3F85CF" transform="translate(74,70)"/>
<path d="M0 0 C-0.33 0.66 -0.66 1.32 -1 2 C-1.99 2 -2.98 2 -4 2 C-4.33 2.99 -4.66 3.98 -5 5 C-5.66 5 -6.32 5 -7 5 C-6.625 2.5625 -6.625 2.5625 -6 0 C-3.50907189 -1.24546405 -2.58919267 -0.7767578 0 0 Z " fill="#2D68C0" transform="translate(61,65)"/>
<path d="M0 0 C0.33 0.99 0.66 1.98 1 3 C-2.625 6 -2.625 6 -6 6 C-4.95125002 3.37812506 -4.35068687 2.20628639 -1.875 0.75 C-1.25625 0.5025 -0.6375 0.255 0 0 Z " fill="#09E819" transform="translate(110,109)"/>
<path d="M0 0 C0.6875 1.6875 0.6875 1.6875 1 4 C-0.375 6.75 -0.375 6.75 -2 9 C-2.33 9 -2.66 9 -3 9 C-2.25 2.25 -2.25 2.25 0 0 Z " fill="#08E718" transform="translate(123,87)"/>
<path d="M0 0 C-1.37326602 4.11979807 -4.08595092 7.04297546 -8 9 C-6.68994234 5.06982701 -4.75047804 0 0 0 Z " fill="#EDFDFF" transform="translate(276,61)"/>
<path d="M0 0 C2.00720923 0.28674418 4.0085944 0.61866701 6 1 C2.25 3 2.25 3 0 3 C0 3.66 0 4.32 0 5 C-0.66 5 -1.32 5 -2 5 C-1.125 1.125 -1.125 1.125 0 0 Z " fill="#938CDC" transform="translate(58,69)"/>
<path d="M0 0 C2.0625 2.3125 2.0625 2.3125 4 5 C3.67 5.99 3.34 6.98 3 8 C2.01 7.67 1.02 7.34 0 7 C0 4.69 0 2.38 0 0 Z " fill="#5973DE" transform="translate(96,70)"/>
<path d="M0 0 C0.33 0 0.66 0 1 0 C1 1.98 1 3.96 1 6 C-0.32 6.33 -1.64 6.66 -3 7 C-2.67 5.35 -2.34 3.7 -2 2 C-1.34 2 -0.68 2 0 2 C0 1.34 0 0.68 0 0 Z " fill="#244EC4" transform="translate(61,57)"/>
<path d="M0 0 C1.5 1.1875 1.5 1.1875 3 3 C3.1875 5.6875 3.1875 5.6875 3 8 C-0.01327566 6.49336217 -0.61056618 3.96833589 -2 1 C-1.34 0.67 -0.68 0.34 0 0 Z " fill="#23A370" transform="translate(22,34)"/>
<path d="M0 0 C2.92879371 0.62759865 5.36095629 1.58622659 8 3 C8 3.99 8 4.98 8 6 C4.74456771 5.65120368 3.98126893 4.97866739 1.75 2.4375 C1.1725 1.633125 0.595 0.82875 0 0 Z " fill="#5583E4" transform="translate(34,111)"/>
<path d="M0 0 C2.475 0.99 2.475 0.99 5 2 C5 2.66 5 3.32 5 4 C5.66 4.33 6.32 4.66 7 5 C5.35 5 3.7 5 2 5 C1.34 3.35 0.68 1.7 0 0 Z " fill="#E26C2E" transform="translate(47,98)"/>
<path d="M0 0 C0.33 0 0.66 0 1 0 C1 1.65 1 3.3 1 5 C1.66 5 2.32 5 3 5 C3.33 6.65 3.66 8.3 4 10 C3.34 10 2.68 10 2 10 C2 9.34 2 8.68 2 8 C1.34 8 0.68 8 0 8 C0 5.36 0 2.72 0 0 Z " fill="#866DA9" transform="translate(56,88)"/>
<path d="M0 0 C0.33 0 0.66 0 1 0 C1.22036864 3.85645121 0.60355101 6.49223216 -1 10 C-1.33 10 -1.66 10 -2 10 C-2.25 3.375 -2.25 3.375 0 0 Z " fill="#08E60F" transform="translate(10,51)"/>
<path d="M0 0 C0.99 0 1.98 0 3 0 C3.66 2.31 4.32 4.62 5 7 C4.34 7 3.68 7 3 7 C0.70351351 4.4385343 0 3.52032428 0 0 Z " fill="#0DE417" transform="translate(116,36)"/>
</svg>
