<?xml version="1.0" encoding="UTF-8"?>
<svg version="1.1" xmlns="http://www.w3.org/2000/svg" width="404" height="129">
<path d="M0 0 C1.1446875 0.928125 1.1446875 0.928125 2.3125 1.875 C2.3125 2.535 2.3125 3.195 2.3125 3.875 C2.9725 3.875 3.6325 3.875 4.3125 3.875 C5.49609375 5.2734375 5.49609375 5.2734375 6.75 7.25 C7.16121094 7.87648438 7.57242188 8.50296875 7.99609375 9.1484375 C11.66702617 16.75173374 12.84353995 24.11657538 12.75 32.5 C12.74315186 33.45350342 12.73630371 34.40700684 12.72924805 35.3894043 C12.4603886 47.39745284 10.14310446 58.7684934 3.3125 68.875 C2.6525 69.865 1.9925 70.855 1.3125 71.875 C0.6525 71.875 -0.0075 71.875 -0.6875 71.875 C-1.1825 73.36 -1.1825 73.36 -1.6875 74.875 C-15.53299569 86.26318443 -33.4367982 88.00877502 -50.6875 86.875 C-54.55287551 86.25943669 -58.04388996 85.29059174 -61.6875 83.875 C-62.38875 83.61976562 -63.09 83.36453125 -63.8125 83.1015625 C-72.73957151 79.30058283 -79.09757597 71.70022992 -82.6875 62.875 C-85.60648892 53.26417932 -83.74650472 42.84875403 -79.6875 33.875 C-75.24869157 26.98230485 -68.6139794 22.30927912 -62.12109375 17.48828125 C-58.62910485 14.8749922 -55.3519079 12.04849478 -52.0625 9.1875 C-36.17617162 -4.45109963 -19.44940285 -12.14446281 0 0 Z M-51.6875 18.875 C-51.6875 19.865 -51.6875 20.855 -51.6875 21.875 C-53.3375 21.875 -54.9875 21.875 -56.6875 21.875 C-57.56617729 25.60937848 -57.77662219 29.04274573 -57.6875 32.875 C-56.4809375 33.308125 -56.4809375 33.308125 -55.25 33.75 C-52.6875 34.875 -52.6875 34.875 -51.6875 36.875 C-50.0375 36.545 -48.3875 36.215 -46.6875 35.875 C-46.6875 35.215 -46.6875 34.555 -46.6875 33.875 C-45.0375 33.875 -43.3875 33.875 -41.6875 33.875 C-40.4976032 29.56162408 -40.74621194 26.22845729 -41.6875 21.875 C-43.3375 21.875 -44.9875 21.875 -46.6875 21.875 C-46.6875 20.885 -46.6875 19.895 -46.6875 18.875 C-48.3375 18.875 -49.9875 18.875 -51.6875 18.875 Z " fill="#5371F6" transform="translate(100.6875,29.125)"/>
<path d="M0 0 C1.6640625 1.0390625 1.6640625 1.0390625 3.9765625 2.9140625 C3.9765625 3.5740625 3.9765625 4.2340625 3.9765625 4.9140625 C4.6365625 4.9140625 5.2965625 4.9140625 5.9765625 4.9140625 C7.16015625 6.3125 7.16015625 6.3125 8.4140625 8.2890625 C8.82527344 8.91554688 9.23648438 9.54203125 9.66015625 10.1875 C13.33108867 17.79079624 14.50760245 25.15563788 14.4140625 33.5390625 C14.40721436 34.49256592 14.40036621 35.44606934 14.39331055 36.4284668 C14.1244511 48.43651534 11.80716696 59.8075559 4.9765625 69.9140625 C4.3165625 70.9040625 3.6565625 71.8940625 2.9765625 72.9140625 C2.3165625 72.9140625 1.6565625 72.9140625 0.9765625 72.9140625 C0.4815625 74.3990625 0.4815625 74.3990625 -0.0234375 75.9140625 C-11.64548356 85.47341718 -25.81551641 88.12997948 -40.4609375 87.9765625 C-41.28787109 87.97205078 -42.11480469 87.96753906 -42.96679688 87.96289062 C-44.98570896 87.95122061 -47.00458324 87.93328968 -49.0234375 87.9140625 C-49.0234375 87.2540625 -49.0234375 86.5940625 -49.0234375 85.9140625 C-47.5384375 84.9240625 -47.5384375 84.9240625 -46.0234375 83.9140625 C-45.59417969 83.21796875 -45.16492187 82.521875 -44.72265625 81.8046875 C-43.0234375 79.9140625 -43.0234375 79.9140625 -40.10546875 79.5234375 C-39.02652344 79.56984375 -37.94757812 79.61625 -36.8359375 79.6640625 C-35.74925781 79.70015625 -34.66257812 79.73625 -33.54296875 79.7734375 C-32.71152344 79.81984375 -31.88007812 79.86625 -31.0234375 79.9140625 C-30.6934375 78.2640625 -30.3634375 76.6140625 -30.0234375 74.9140625 C-28.7859375 74.7284375 -27.5484375 74.5428125 -26.2734375 74.3515625 C-22.62803811 73.42082223 -22.06281914 72.96230501 -19.5234375 69.8515625 C-17.49806407 65.64091774 -17.65008688 61.48760765 -18.0234375 56.9140625 C-17.13140625 56.92566406 -16.239375 56.93726563 -15.3203125 56.94921875 C-13.56460938 56.96275391 -13.56460938 56.96275391 -11.7734375 56.9765625 C-10.03320312 56.99396484 -10.03320312 56.99396484 -8.2578125 57.01171875 C-4.85977201 57.02412507 -4.85977201 57.02412507 -1.0234375 55.9140625 C-0.6934375 52.2840625 -0.3634375 48.6540625 -0.0234375 44.9140625 C-0.6834375 44.9140625 -1.3434375 44.9140625 -2.0234375 44.9140625 C-6.0234375 40.56112132 -6.0234375 40.56112132 -6.0234375 36.9140625 C-5.3634375 36.9140625 -4.7034375 36.9140625 -4.0234375 36.9140625 C-4.30481808 34.62111014 -4.5988561 32.32970794 -4.8984375 30.0390625 C-5.06085938 28.76289062 -5.22328125 27.48671875 -5.390625 26.171875 C-5.72221223 22.84242023 -5.72221223 22.84242023 -8.0234375 20.9140625 C-8.8484375 20.8109375 -9.6734375 20.7078125 -10.5234375 20.6015625 C-11.3484375 20.3746875 -12.1734375 20.1478125 -13.0234375 19.9140625 C-13.6834375 18.2640625 -14.3434375 16.6140625 -15.0234375 14.9140625 C-18.6534375 15.5740625 -22.2834375 16.2340625 -26.0234375 16.9140625 C-26.0234375 17.5740625 -26.0234375 18.2340625 -26.0234375 18.9140625 C-26.7865625 19.2646875 -27.5496875 19.6153125 -28.3359375 19.9765625 C-32.25406197 22.80125688 -32.85165891 26.36984797 -34.0234375 30.9140625 C-35.3434375 30.5840625 -36.6634375 30.2540625 -38.0234375 29.9140625 C-38.0853125 28.9859375 -38.1471875 28.0578125 -38.2109375 27.1015625 C-38.69844658 23.72209761 -38.69844658 23.72209761 -41.5859375 22.1640625 C-42.3903125 21.7515625 -43.1946875 21.3390625 -44.0234375 20.9140625 C-44.0234375 20.2540625 -44.0234375 19.5940625 -44.0234375 18.9140625 C-44.96316406 19.03974609 -44.96316406 19.03974609 -45.921875 19.16796875 C-47.14777344 19.32072266 -47.14777344 19.32072266 -48.3984375 19.4765625 C-49.21054687 19.58097656 -50.02265625 19.68539062 -50.859375 19.79296875 C-53.0234375 19.9140625 -53.0234375 19.9140625 -55.0234375 18.9140625 C-55.0234375 17.9240625 -55.0234375 16.9340625 -55.0234375 15.9140625 C-54.3840625 15.7903125 -53.7446875 15.6665625 -53.0859375 15.5390625 C-52.4053125 15.3328125 -51.7246875 15.1265625 -51.0234375 14.9140625 C-50.6934375 14.2540625 -50.3634375 13.5940625 -50.0234375 12.9140625 C-49.0334375 12.9140625 -48.0434375 12.9140625 -47.0234375 12.9140625 C-46.8996875 11.9034375 -46.7759375 10.8928125 -46.6484375 9.8515625 C-44.99598853 4.14310242 -39.95214132 1.64922231 -35.0234375 -1.0859375 C-22.84208364 -7.03659887 -11.88804142 -6.38006856 0 0 Z " fill="#5171FB" transform="translate(99.0234375,28.0859375)"/>
<path d="M0 0 C1.5003479 0.07069702 1.5003479 0.07069702 3.03100586 0.14282227 C4.1105957 0.19116211 5.19018555 0.23950195 6.30249023 0.28930664 C8.00695312 0.37341797 8.00695312 0.37341797 9.74584961 0.45922852 C11.45611328 0.53753906 11.45611328 0.53753906 13.20092773 0.61743164 C16.02864984 0.74757785 18.85605961 0.8825573 21.68334961 1.02172852 C21.68334961 2.01172852 21.68334961 3.00172852 21.68334961 4.02172852 C20.36334961 4.68172852 19.04334961 5.34172852 17.68334961 6.02172852 C18.7700293 6.69268555 18.7700293 6.69268555 19.87866211 7.37719727 C34.52742452 16.53755669 46.10824925 28.18383481 50.49584961 45.39672852 C50.91182623 47.26736276 51.30908051 49.14230529 51.68334961 51.02172852 C51.86768555 51.83899414 52.05202148 52.65625977 52.24194336 53.49829102 C54.80556103 68.15401683 50.87141037 84.12857219 42.93334961 96.58422852 C31.90974435 112.21018898 18.21126871 121.17777817 -0.68383789 124.51782227 C-19.12056835 127.0751752 -35.65140483 120.9842596 -50.31665039 110.02172852 C-62.43114371 100.18596907 -69.34196354 85.30580474 -71.31665039 70.02172852 C-71.96248105 60.28133166 -71.25008903 52.47853103 -68.19165039 43.15454102 C-67.3648123 40.19416534 -67.15598107 38.00190378 -67.31665039 34.95922852 C-67.31665039 31.02172852 -67.31665039 31.02172852 -65.62915039 28.02172852 C-62.98559598 25.73541119 -61.80767368 25.02172852 -58.31665039 25.02172852 C-55.06665039 25.95922852 -55.06665039 25.95922852 -52.31665039 28.02172852 C-50.81057105 31.87429611 -51.0113263 35.06504637 -52.25415039 38.95922852 C-55.36005006 42.06512819 -57.99382014 41.80913031 -62.31665039 42.02172852 C-65.37690332 53.18800855 -65.64748038 63.52844951 -65.31665039 75.02172852 C-64.65665039 75.02172852 -63.99665039 75.02172852 -63.31665039 75.02172852 C-63.19547852 75.6134082 -63.07430664 76.20508789 -62.94946289 76.81469727 C-61.67461887 84.30142378 -61.67461887 84.30142378 -57.75415039 90.52172852 C-55.83071704 92.52878941 -55.68196454 94.31840378 -55.31665039 97.02172852 C-54.65665039 97.02172852 -53.99665039 97.02172852 -53.31665039 97.02172852 C-53.31665039 97.68172852 -53.31665039 98.34172852 -53.31665039 99.02172852 C-52.65665039 99.02172852 -51.99665039 99.02172852 -51.31665039 99.02172852 C-51.31665039 99.68172852 -51.31665039 100.34172852 -51.31665039 101.02172852 C-50.65665039 101.02172852 -49.99665039 101.02172852 -49.31665039 101.02172852 C-48.07419892 102.52574871 -46.83392009 104.03178862 -45.61743164 105.55688477 C-44.04346935 107.32936482 -42.52297773 108.18484573 -40.31665039 109.02172852 C-39.65665039 109.35172852 -38.99665039 109.68172852 -38.31665039 110.02172852 C-38.31665039 110.68172852 -38.31665039 111.34172852 -38.31665039 112.02172852 C-37.49165039 112.28985352 -36.66665039 112.55797852 -35.81665039 112.83422852 C-32.64576607 113.91006427 -29.54696071 115.08954124 -26.44165039 116.33813477 C-13.77893492 120.4116186 1.60842645 119.01824844 13.68334961 114.02172852 C14.41553711 113.73297852 15.14772461 113.44422852 15.90209961 113.14672852 C29.3543424 107.16795394 38.52569126 95.56642462 43.71850586 82.06860352 C46.18846133 74.26874412 47.28917582 66.18661357 46.68334961 58.02172852 C46.62663086 57.14387695 46.56991211 56.26602539 46.51147461 55.36157227 C44.83593532 40.54102836 36.49824521 27.1069571 24.99584961 17.86157227 C20.30305315 14.15615422 20.30305315 14.15615422 14.68334961 13.02172852 C15.17834961 15.99172852 15.17834961 15.99172852 15.68334961 19.02172852 C15.02334961 19.02172852 14.36334961 19.02172852 13.68334961 19.02172852 C13.68334961 18.36172852 13.68334961 17.70172852 13.68334961 17.02172852 C13.02334961 17.02172852 12.36334961 17.02172852 11.68334961 17.02172852 C10.05834961 15.64672852 10.05834961 15.64672852 8.68334961 14.02172852 C8.68334961 13.36172852 8.68334961 12.70172852 8.68334961 12.02172852 C8.02334961 12.02172852 7.36334961 12.02172852 6.68334961 12.02172852 C5.05834961 10.64672852 5.05834961 10.64672852 3.68334961 9.02172852 C3.68334961 8.36172852 3.68334961 7.70172852 3.68334961 7.02172852 C3.08522461 6.77422852 2.48709961 6.52672852 1.87084961 6.27172852 C-0.6031256 4.8580284 -1.75035295 3.37117468 -3.31665039 1.02172852 C-2.31665039 0.02172852 -2.31665039 0.02172852 0 0 Z M-62.62915039 29.02172852 C-64.59525348 30.98184888 -64.59525348 30.98184888 -64.69165039 34.08422852 C-64.60595275 37.14034093 -64.60595275 37.14034093 -62.31665039 39.02172852 C-59.48278872 39.38504411 -57.91142889 39.37859561 -55.44165039 37.89672852 C-54.05404318 35.94848433 -54.05404318 35.94848433 -54.31665039 32.95922852 C-55.03802561 29.87094008 -55.03802561 29.87094008 -57.62915039 28.45922852 C-60.31456848 27.77413593 -60.31456848 27.77413593 -62.62915039 29.02172852 Z " fill="#23D42B" transform="translate(73.316650390625,1.978271484375)"/>
<path d="M0 0 C4.125 -0.0825 8.25 -0.165 12.5 -0.25 C13.78455078 -0.28641602 15.06910156 -0.32283203 16.39257812 -0.36035156 C23.44194097 -0.42834479 28.04029578 0.14868171 34 4 C37.74407512 7.74407512 38.29712053 10.87729347 38.5 16 C38.31000458 21.11720994 37.62833663 24.18069828 34 28 C27.1197973 33.41632978 21.43211931 33.11242826 13 33 C13 38.61 13 44.22 13 50 C8.71 50 4.42 50 0 50 C0 33.5 0 17 0 0 Z M13 11 C13 14.63 13 18.26 13 22 C14.423125 22.061875 15.84625 22.12375 17.3125 22.1875 C18.11300781 22.22230469 18.91351563 22.25710937 19.73828125 22.29296875 C22.05657503 22.17305163 22.05657503 22.17305163 23.8046875 20.71484375 C25.36393892 18.85161875 25.36393892 18.85161875 24.8125 15.375 C24.4103125 13.704375 24.4103125 13.704375 24 12 C20.57067929 10.28533964 16.78283935 10.94595944 13 11 Z " fill="#031A31" transform="translate(157,44)"/>
<path d="M0 0 C4.62 0 9.24 0 14 0 C15.11375 2.660625 15.11375 2.660625 16.25 5.375 C16.66765625 6.37273438 17.0853125 7.37046875 17.515625 8.3984375 C19.37841688 12.91815885 21.18443987 17.46109969 23 22 C25.64 14.74 28.28 7.48 31 0 C35.62 0 40.24 0 45 0 C44.1474414 4.26279299 43.08404635 7.49859442 41.41015625 11.4609375 C41.1497757 12.08045792 40.88939514 12.69997833 40.62112427 13.33827209 C39.77293783 15.35253066 38.91790942 17.36379952 38.0625 19.375 C37.47604536 20.7629869 36.88986578 22.15109004 36.30395508 23.53930664 C31.29035809 35.3975422 26.17566707 47.21162962 21 59 C16.38 59 11.76 59 7 59 C7.391875 57.7625 7.78375 56.525 8.1875 55.25 C8.58026123 54.00053589 8.58026123 54.00053589 8.98095703 52.72583008 C10 50 10 50 11.48388672 47.4050293 C14.01601321 42.75760581 15.33460803 39.58591025 14.21899414 34.29833984 C12.76113972 30.24307538 10.86319559 26.41152952 8.9375 22.5625 C8.30134098 21.21607422 7.66914429 19.86776887 7.04101562 18.51757812 C5.88428285 16.04183814 4.70309887 13.58523808 3.49975586 11.13110352 C0 3.82451571 0 3.82451571 0 0 Z " fill="#031A31" transform="translate(356,54)"/>
<path d="M0 0 C4.93592444 2.19898737 7.93273225 5.63489045 10.48046875 10.34765625 C12.52675662 16.48651985 12.5861884 23.8478239 9.85546875 29.78515625 C6.70737498 35.13580325 2.36990229 38.37291266 -3.51953125 40.34765625 C-11.73473532 41.2806514 -17.39334588 40.06718752 -24.26953125 35.53515625 C-28.73070887 31.19790023 -30.29640903 26.19246455 -30.76953125 20.16015625 C-30.34099298 13.62494759 -29.13393093 8.35496069 -24.08203125 3.91015625 C-16.97877561 -1.66756798 -8.74312384 -2.26372354 0 0 Z M-14.45703125 11.66015625 C-17.15446819 15.17499832 -17.04102153 17.58545326 -16.98828125 21.91015625 C-16.43487295 24.78787943 -15.49889956 26.2105122 -13.51953125 28.34765625 C-11.16290865 29.43570771 -11.16290865 29.43570771 -8.51953125 29.34765625 C-5.03318524 27.72609996 -3.67650931 26.58312333 -1.51953125 23.34765625 C-1.17530566 19.63001991 -1.2845049 16.98360991 -2.58203125 13.47265625 C-4.45969381 11.05580327 -4.45969381 11.05580327 -7.89453125 10.28515625 C-11.50399089 10.11039982 -11.50399089 10.11039982 -14.45703125 11.66015625 Z " fill="#031A31" transform="translate(293.51953125,54.65234375)"/>
<path d="M0 0 C0.763125 0.61875 1.52625 1.2375 2.3125 1.875 C2.3125 2.535 2.3125 3.195 2.3125 3.875 C2.9725 3.875 3.6325 3.875 4.3125 3.875 C5.49609375 5.2734375 5.49609375 5.2734375 6.75 7.25 C7.16121094 7.87648438 7.57242188 8.50296875 7.99609375 9.1484375 C11.66702617 16.75173374 12.84353995 24.11657538 12.75 32.5 C12.74315186 33.45350342 12.73630371 34.40700684 12.72924805 35.3894043 C12.4603886 47.39745284 10.14310446 58.7684934 3.3125 68.875 C2.6525 69.865 1.9925 70.855 1.3125 71.875 C0.6525 71.875 -0.0075 71.875 -0.6875 71.875 C-1.1825 73.36 -1.1825 73.36 -1.6875 74.875 C-13.30954606 84.43435468 -27.47957891 87.09091698 -42.125 86.9375 C-42.95193359 86.93298828 -43.77886719 86.92847656 -44.63085938 86.92382812 C-46.64977146 86.91215811 -48.66864574 86.89422718 -50.6875 86.875 C-50.6875 86.215 -50.6875 85.555 -50.6875 84.875 C-49.2025 83.885 -49.2025 83.885 -47.6875 82.875 C-47.25824219 82.17890625 -46.82898437 81.4828125 -46.38671875 80.765625 C-44.6875 78.875 -44.6875 78.875 -41.76953125 78.484375 C-40.69058594 78.53078125 -39.61164062 78.5771875 -38.5 78.625 C-37.41332031 78.66109375 -36.32664062 78.6971875 -35.20703125 78.734375 C-34.37558594 78.78078125 -33.54414062 78.8271875 -32.6875 78.875 C-32.3575 77.225 -32.0275 75.575 -31.6875 73.875 C-30.45 73.689375 -29.2125 73.50375 -27.9375 73.3125 C-24.29210061 72.38175973 -23.72688164 71.92324251 -21.1875 68.8125 C-19.16212657 64.60185524 -19.31414938 60.44854515 -19.6875 55.875 C-18.79546875 55.88660156 -17.9034375 55.89820313 -16.984375 55.91015625 C-15.22867188 55.92369141 -15.22867188 55.92369141 -13.4375 55.9375 C-11.69726562 55.95490234 -11.69726562 55.95490234 -9.921875 55.97265625 C-7.27772872 55.89282092 -5.18923909 55.66143778 -2.6875 54.875 C-2.3575 52.235 -2.0275 49.595 -1.6875 46.875 C0.2925 46.38 0.2925 46.38 2.3125 45.875 C1.9825 47.525 1.6525 49.175 1.3125 50.875 C1.9725 50.875 2.6325 50.875 3.3125 50.875 C3.8075 49.885 3.8075 49.885 4.3125 48.875 C4.9725 50.855 5.6325 52.835 6.3125 54.875 C10.14553242 48.0413095 9.86415767 41.12617613 10 33.4375 C10.03416016 32.13361328 10.06832031 30.82972656 10.10351562 29.48632812 C10.18566153 26.28263802 10.2549241 23.07921021 10.3125 19.875 C9.6525 19.875 8.9925 19.875 8.3125 19.875 C8.14234375 19.11574219 7.9721875 18.35648438 7.796875 17.57421875 C7.55453125 16.58035156 7.3121875 15.58648437 7.0625 14.5625 C6.71445313 13.08330078 6.71445313 13.08330078 6.359375 11.57421875 C5.16183981 8.48654407 3.95283398 7.73523531 1.3125 5.875 C1.3125 4.885 1.3125 3.895 1.3125 2.875 C0.44625 2.7203125 0.44625 2.7203125 -0.4375 2.5625 C-2.6875 1.875 -2.6875 1.875 -4.4375 0.375 C-7.75151563 -1.83434375 -10.74128934 -1.79614911 -14.6875 -2.125 C-14.6875 -2.785 -14.6875 -3.445 -14.6875 -4.125 C-20.2975 -3.465 -25.9075 -2.805 -31.6875 -2.125 C-31.6875 -1.465 -31.6875 -0.805 -31.6875 -0.125 C-32.80125 0.2875 -33.915 0.7 -35.0625 1.125 C-37.68070695 2.23046516 -38.52243089 2.62380787 -40.125 5.0625 C-40.310625 5.660625 -40.49625 6.25875 -40.6875 6.875 C-43.6575 6.38 -43.6575 6.38 -46.6875 5.875 C-34.30408932 -8.10627013 -15.56499806 -9.7189894 0 0 Z " fill="#5271F7" transform="translate(100.6875,29.125)"/>
<path d="M0 0 C4.62 0 9.24 0 14 0 C14.49371094 1.64871094 14.98742187 3.29742187 15.49609375 4.99609375 C16.14306236 7.14327943 16.79020684 9.29041213 17.4375 11.4375 C17.92573242 13.07041992 17.92573242 13.07041992 18.42382812 14.73632812 C18.73642578 15.77080078 19.04902344 16.80527344 19.37109375 17.87109375 C19.65911865 18.82943115 19.94714355 19.78776855 20.24389648 20.77514648 C20.7989128 22.94623784 20.7989128 22.94623784 22 24 C22.20681396 23.30849854 22.41362793 22.61699707 22.62670898 21.90454102 C23.56034724 18.78952946 24.49885583 15.67600659 25.4375 12.5625 C25.76298828 11.47388672 26.08847656 10.38527344 26.42382812 9.26367188 C26.73642578 8.22919922 27.04902344 7.19472656 27.37109375 6.12890625 C27.65911865 5.17056885 27.94714355 4.21223145 28.24389648 3.22485352 C29 1 29 1 30 0 C32.18639453 -0.07258946 34.37500389 -0.08373783 36.5625 -0.0625 C38.35880859 -0.04896484 38.35880859 -0.04896484 40.19140625 -0.03515625 C41.11824219 -0.02355469 42.04507813 -0.01195312 43 0 C42.41679953 5.31528307 41.15192128 9.90705298 39.27734375 14.90234375 C39.01240616 15.6249086 38.74746857 16.34747345 38.47450256 17.0919342 C37.63527171 19.37622268 36.78656724 21.65685189 35.9375 23.9375 C35.36330002 25.49520979 34.78972605 27.05315049 34.21679688 28.61132812 C32.81956686 32.41074229 31.40955276 36.20505025 30 40 C24.39 40 18.78 40 13 40 C11.14423783 34.78704172 9.29136742 29.57324006 7.44580078 24.35668945 C6.81695753 22.58200096 6.18643221 20.80790756 5.55419922 19.03442383 C4.64629451 16.48673206 3.74443926 13.93696891 2.84375 11.38671875 C2.55939087 10.59287277 2.27503174 9.79902679 1.98205566 8.98112488 C0.88922583 5.87171447 0 3.32146321 0 0 Z " fill="#031A31" transform="translate(218,54)"/>
<path d="M0 0 C1.97909398 -0.02686553 3.95828971 -0.04633375 5.9375 -0.0625 C7.03964844 -0.07410156 8.14179688 -0.08570313 9.27734375 -0.09765625 C12 0 12 0 13 1 C13.07179964 2.51928038 13.08392007 4.04167482 13.0625 5.5625 C13.05347656 6.38878906 13.04445313 7.21507812 13.03515625 8.06640625 C13.02355469 8.70449219 13.01195312 9.34257813 13 10 C14.134375 9.979375 15.26875 9.95875 16.4375 9.9375 C20 10 20 10 21 11 C21.0979057 12.49738124 21.12974864 13.99942892 21.125 15.5 C21.12886719 16.72203125 21.12886719 16.72203125 21.1328125 17.96875 C21 20 21 20 20 21 C17.69 21 15.38 21 13 21 C13 26.94 13 32.88 13 39 C15.64 39 18.28 39 21 39 C21 42.63 21 46.26 21 50 C7.03096751 50.86110474 7.03096751 50.86110474 3.1875 47.625 C0.22749846 44.07299815 -0.12366615 42.51791038 -0.09765625 37.9921875 C-0.09443359 37.00605469 -0.09121094 36.01992187 -0.08789062 35.00390625 C-0.07951172 33.97136719 -0.07113281 32.93882813 -0.0625 31.875 C-0.05798828 30.83472656 -0.05347656 29.79445313 -0.04882812 28.72265625 C-0.03701952 26.14838038 -0.02055075 23.57421854 0 21 C-1.65 21 -3.3 21 -5 21 C-5 17.37 -5 13.74 -5 10 C-3.35 10 -1.7 10 0 10 C0 6.7 0 3.4 0 0 Z " fill="#031931" transform="translate(313,44)"/>
<path d="M0 0 C2.87734548 -0.61016474 5.00936293 -0.33229301 8 0 C10 2 10 2 10 6 C10.61488281 5.94199219 11.22976562 5.88398437 11.86328125 5.82421875 C14.31928249 5.68712139 16.56280788 5.65429899 19 6 C21.46095022 8.61009872 21.92809761 10.20907374 22.25 13.75 C22 16 22 16 21 17 C20.83333333 19.5 20.83333333 19.5 21 22 C21.33 22.33 21.66 22.66 22 23 C22.04063832 24.66617115 22.042721 26.33388095 22 28 C21.34 28 20.68 28 20 28 C20 28.99 20 29.98 20 31 C19.34 31 18.68 31 18 31 C18 31.66 18 32.32 18 33 C14.535 33.495 14.535 33.495 11 34 C10.87625 34.639375 10.7525 35.27875 10.625 35.9375 C10.315625 36.9584375 10.315625 36.9584375 10 38 C7.6203388 39.1898306 6.08514265 39.13349966 3.4375 39.125 C2.22900391 39.12886719 2.22900391 39.12886719 0.99609375 39.1328125 C-1 39 -1 39 -2 38 C-2.14193337 34.99668982 -2.04236378 32.00782866 -2 29 C1.3 29 4.6 29 8 29 C8 28.34 8 27.68 8 27 C8.48726562 26.55785156 8.97453125 26.11570312 9.4765625 25.66015625 C11.45067555 23.50887921 11.40346055 22.31675938 11.375 19.4375 C11.38273437 18.65246094 11.39046875 17.86742188 11.3984375 17.05859375 C11.20121094 16.03958984 11.20121094 16.03958984 11 15 C10.01 14.34 9.02 13.68 8 13 C8 12.34 8 11.68 8 11 C3.47118371 10.82239936 0.06668506 10.90856197 -4 13 C-6.35601529 14.92142442 -6.35601529 14.92142442 -6.25 18.3125 C-6.01603075 21.76354643 -5.38247919 23.88942183 -4 27 C-4 27.99 -4 28.98 -4 30 C-7.96 30.495 -7.96 30.495 -12 31 C-14.14967472 27.55888571 -14.07680055 25.28374856 -13.5625 21.3125 C-13.34018735 19.54569949 -13.14375387 17.77492022 -13 16 C-13.33 15.67 -13.66 15.34 -14 15 C-13.4 8.4 -13.4 8.4 -11 6 C-9.0509375 5.8453125 -9.0509375 5.8453125 -7.0625 5.6875 C-4.91083865 5.54566385 -4.91083865 5.54566385 -3 5 C-2.505 4.154375 -2.01 3.30875 -1.5 2.4375 C-1.005 1.633125 -0.51 0.82875 0 0 Z " fill="#D16D48" transform="translate(58,68)"/>
<path d="M0 0 C4.29 0 8.58 0 13 0 C13 17.49 13 34.98 13 53 C8.71 53 4.42 53 0 53 C0 35.51 0 18.02 0 0 Z " fill="#031931" transform="translate(339,41)"/>
<path d="M0 0 C3 2 3 2 3.875 5.8125 C4.10788236 8.65884001 3.95169175 10.15136586 3.0625 12.9375 C-0.04339967 16.04339967 -2.67716975 15.78740179 -7 16 C-10.06025293 27.16628003 -10.33082999 37.506721 -10 49 C-9.34 49 -8.68 49 -8 49 C-7.87882813 49.59167969 -7.75765625 50.18335938 -7.6328125 50.79296875 C-6.35796848 58.27969526 -6.35796848 58.27969526 -2.4375 64.5 C-0.51406665 66.50706089 -0.36531415 68.29667526 0 71 C0.66 71 1.32 71 2 71 C2 71.66 2 72.32 2 73 C2.66 73 3.32 73 4 73 C4 73.66 4 74.32 4 75 C4.66 75 5.32 75 6 75 C7.24245147 76.5040202 8.4827303 78.01006011 9.69921875 79.53515625 C11.27318104 81.3076363 12.79367267 82.16311722 15 83 C15.66 83.33 16.32 83.66 17 84 C17 84.66 17 85.32 17 86 C17.825 86.268125 18.65 86.53625 19.5 86.8125 C22.05301578 87.67870178 24.55098031 88.59029883 27.0625 89.5625 C30.01858905 90.68592732 32.86369084 91.50995169 36 92 C36 92.66 36 93.32 36 94 C33.03 93.34 30.06 92.68 27 92 C27.79299706 94.17038477 27.79299706 94.17038477 29.84765625 94.6328125 C30.57855469 94.79523438 31.30945312 94.95765625 32.0625 95.125 C32.79597656 95.29257813 33.52945313 95.46015625 34.28515625 95.6328125 C35.13400391 95.81457031 35.13400391 95.81457031 36 96 C36 96.33 36 96.66 36 97 C24.47183108 98.3100192 13.78933605 90.62718497 5 84 C-7.11104381 74.15248461 -14.02428748 59.29201492 -16 44 C-16.64583066 34.25960315 -15.93343864 26.45680251 -12.875 17.1328125 C-12.04816191 14.17243683 -11.83933068 11.98017526 -12 8.9375 C-12 5 -12 5 -10.125 2 C-6.50585564 -1.40625351 -4.76190546 -1.06899919 0 0 Z M-7.3125 3 C-9.27860309 4.96012036 -9.27860309 4.96012036 -9.375 8.0625 C-9.28930236 11.11861241 -9.28930236 11.11861241 -7 13 C-4.16613833 13.3633156 -2.59477849 13.3568671 -0.125 11.875 C1.26260721 9.92675581 1.26260721 9.92675581 1 6.9375 C0.27862478 3.84921156 0.27862478 3.84921156 -2.3125 2.4375 C-4.99791809 1.75240741 -4.99791809 1.75240741 -7.3125 3 Z " fill="#20D629" transform="translate(18,28)"/>
<path d="M0 0 C4.29 0 8.58 0 13 0 C13 13.2 13 26.4 13 40 C8.71 40 4.42 40 0 40 C0 26.8 0 13.6 0 0 Z " fill="#031A31" transform="translate(201,54)"/>
<path d="M0 0 C2.875 -0.125 2.875 -0.125 6 0 C8 2 8 2 8 5 C8.804375 5.144375 9.60875 5.28875 10.4375 5.4375 C13 6 13 6 14 7 C14.09909302 9.33160055 14.12970504 11.66629942 14.125 14 C14.12886719 15.918125 14.12886719 15.918125 14.1328125 17.875 C14 21 14 21 13 22 C11.33382885 22.04063832 9.66611905 22.042721 8 22 C7.67 22.99 7.34 23.98 7 25 C0.72409326 26.35362694 0.72409326 26.35362694 -2.6875 24.6875 C-3.450625 24.130625 -4.21375 23.57375 -5 23 C-6.32502633 22.31697186 -7.65719358 21.64737404 -9 21 C-8.85899143 18.72886197 -8.71203245 16.45809275 -8.5625 14.1875 C-8.48128906 12.92292969 -8.40007812 11.65835938 -8.31640625 10.35546875 C-8 7 -8 7 -7 4 C-5.01276732 3.29618843 -3.01222047 2.6288189 -1 2 C-0.67 1.34 -0.34 0.68 0 0 Z " fill="#24AE86" transform="translate(78,44)"/>
<path d="M0 0 C0 0.99 0 1.98 0 3 C0.99 3.33 1.98 3.66 3 4 C3 4.66 3 5.32 3 6 C3.66 6 4.32 6 5 6 C5 9.63 5 13.26 5 17 C0.05954236 18.97618305 -1.73748288 19.13762799 -6.8125 18.625 C-7.97394531 18.51414062 -9.13539062 18.40328125 -10.33203125 18.2890625 C-11.21246094 18.19367188 -12.09289062 18.09828125 -13 18 C-12.88140625 18.56847656 -12.7628125 19.13695313 -12.640625 19.72265625 C-11.92565936 24.00530043 -11.58870231 27.05698824 -13.75 30.9375 C-16 34 -16 34 -19 36 C-22.1875 36.125 -22.1875 36.125 -25 36 C-25.33 36.99 -25.66 37.98 -26 39 C-25.67 37.35 -25.34 35.7 -25 34 C-22.69 34 -20.38 34 -18 34 C-18 33.34 -18 32.68 -18 32 C-17.34 32 -16.68 32 -16 32 C-16 31.01 -16 30.02 -16 29 C-15.34 29 -14.68 29 -14 29 C-14.33 28.113125 -14.66 27.22625 -15 26.3125 C-15.91559277 23.27959895 -16.26817004 21.12865051 -16 18 C-15.67 17.67 -15.34 17.34 -15 17 C-14.70857754 13.40578965 -14.95790785 11.00381138 -17 8 C-19.18541552 7.3006486 -19.18541552 7.3006486 -21.625 7.25 C-22.85089844 7.16492188 -22.85089844 7.16492188 -24.1015625 7.078125 C-24.72804688 7.05234375 -25.35453125 7.0265625 -26 7 C-26 5.68 -26 4.36 -26 3 C-24.87980469 3.11859375 -23.75960937 3.2371875 -22.60546875 3.359375 C-21.13291041 3.49068594 -19.66024802 3.62083379 -18.1875 3.75 C-17.44951172 3.83121094 -16.71152344 3.91242188 -15.95117188 3.99609375 C-13.52276885 4.23958271 -13.52276885 4.23958271 -10 4 C-8.09267974 2.17182901 -8.09267974 2.17182901 -7 0 C-2.71641791 -1.35820896 -2.71641791 -1.35820896 0 0 Z " fill="#5B72E0" transform="translate(94,67)"/>
<path d="M0 0 C1.23037303 2.46074606 1 4.2797563 1 7 C1.33 7.33 1.66 7.66 2 8 C2.13773149 11.03009267 2.05985229 13.71403907 1.4375 16.6875 C0.77798502 19.1457356 0.77798502 19.1457356 2 22 C4.64 22 7.28 22 10 22 C9.2575 20.2365625 9.2575 20.2365625 8.5 18.4375 C7.03358589 14.47327048 6.42687282 11.25751617 7 7 C8.6589652 4.25910098 10.01017846 3.30614974 13.05859375 2.36328125 C17.08464681 1.62324789 20.10603652 1.50227329 23.5625 3.875 C26.43937076 7.56329585 26.59149242 9.39106002 26.40625 13.9140625 C26 16 26 16 24 19 C23.34 19 22.68 19 22 19 C22 19.66 22 20.32 22 21 C18.7 21 15.4 21 12 21 C12 23.64 12 26.28 12 29 C11.649375 28.525625 11.29875 28.05125 10.9375 27.5625 C8.96533124 25.67642489 8.96533124 25.67642489 5.5625 25.6875 C2 25 2 25 -0.5 22.5 C-2.24941822 18.41802416 -2.0414324 16.12601051 -1.26171875 11.85546875 C-1.13216797 10.93701172 -1.13216797 10.93701172 -1 10 C-1.33 9.67 -1.66 9.34 -2 9 C-2.26293056 4.96839809 -2.29404844 3.44107266 0 0 Z " fill="#DB6D3E" transform="translate(44,76)"/>
<path d="M0 0 C2.87734548 -0.61016474 5.00936293 -0.33229301 8 0 C10 2 10 2 10.1875 5.0625 C10 8 10 8 9 9 C7.6056801 9.10567477 6.20928326 9.18448923 4.8125 9.25 C-0.33653731 9.79286975 -2.63674825 11.03308768 -6 15 C-6.6640472 19.64833039 -5.87782962 22.77488335 -4 27 C-4 27.99 -4 28.98 -4 30 C-7.96 30.495 -7.96 30.495 -12 31 C-14.14967472 27.55888571 -14.07680055 25.28374856 -13.5625 21.3125 C-13.34018735 19.54569949 -13.14375387 17.77492022 -13 16 C-13.33 15.67 -13.66 15.34 -14 15 C-13.4 8.4 -13.4 8.4 -11 6 C-9.0509375 5.8453125 -9.0509375 5.8453125 -7.0625 5.6875 C-4.91083865 5.54566385 -4.91083865 5.54566385 -3 5 C-2.505 4.154375 -2.01 3.30875 -1.5 2.4375 C-1.005 1.633125 -0.51 0.82875 0 0 Z " fill="#E76A2A" transform="translate(58,68)"/>
<path d="M0 0 C0.763125 0.61875 1.52625 1.2375 2.3125 1.875 C2.3125 2.535 2.3125 3.195 2.3125 3.875 C2.9725 3.875 3.6325 3.875 4.3125 3.875 C5.49609375 5.2734375 5.49609375 5.2734375 6.75 7.25 C7.16121094 7.87648438 7.57242188 8.50296875 7.99609375 9.1484375 C11.66702617 16.75173374 12.84353995 24.11657538 12.75 32.5 C12.74315186 33.45350342 12.73630371 34.40700684 12.72924805 35.3894043 C12.4603886 47.39745284 10.14310446 58.7684934 3.3125 68.875 C2.6525 69.865 1.9925 70.855 1.3125 71.875 C0.6525 71.875 -0.0075 71.875 -0.6875 71.875 C-1.1825 73.36 -1.1825 73.36 -1.6875 74.875 C-2.6775 75.205 -3.6675 75.535 -4.6875 75.875 C-4.3575 75.276875 -4.0275 74.67875 -3.6875 74.0625 C-2.47962012 71.82113529 -2.47962012 71.82113529 -2.6875 68.875 C-1.6975 69.205 -0.7075 69.535 0.3125 69.875 C0.8075 68.39 0.8075 68.39 1.3125 66.875 C1.9725 66.875 2.6325 66.875 3.3125 66.875 C3.6425 64.895 3.9725 62.915 4.3125 60.875 C4.9725 60.875 5.6325 60.875 6.3125 60.875 C6.44527344 60.02035156 6.57804687 59.16570312 6.71484375 58.28515625 C6.89144531 57.18042969 7.06804687 56.07570312 7.25 54.9375 C7.42402344 53.83535156 7.59804687 52.73320313 7.77734375 51.59765625 C8.3125 48.875 8.3125 48.875 9.3125 47.875 C9.4709265 45.8041528 9.56374422 43.72821971 9.62890625 41.65234375 C9.69174805 39.76225586 9.69174805 39.76225586 9.75585938 37.83398438 C9.79567596 36.49349264 9.83538814 35.1529978 9.875 33.8125 C9.91818042 32.46808477 9.96179456 31.1236834 10.00585938 29.77929688 C10.11235358 26.4779766 10.2143646 23.17657764 10.3125 19.875 C9.6525 19.875 8.9925 19.875 8.3125 19.875 C8.14234375 19.11574219 7.9721875 18.35648438 7.796875 17.57421875 C7.55453125 16.58035156 7.3121875 15.58648437 7.0625 14.5625 C6.71445313 13.08330078 6.71445313 13.08330078 6.359375 11.57421875 C5.16183981 8.48654407 3.95283398 7.73523531 1.3125 5.875 C1.3125 4.885 1.3125 3.895 1.3125 2.875 C0.44625 2.7203125 0.44625 2.7203125 -0.4375 2.5625 C-2.6875 1.875 -2.6875 1.875 -4.4375 0.375 C-7.75151563 -1.83434375 -10.74128934 -1.79614911 -14.6875 -2.125 C-14.6875 -2.785 -14.6875 -3.445 -14.6875 -4.125 C-20.2975 -3.465 -25.9075 -2.805 -31.6875 -2.125 C-31.6875 -1.465 -31.6875 -0.805 -31.6875 -0.125 C-32.80125 0.2875 -33.915 0.7 -35.0625 1.125 C-37.68070695 2.23046516 -38.52243089 2.62380787 -40.125 5.0625 C-40.310625 5.660625 -40.49625 6.25875 -40.6875 6.875 C-43.6575 6.38 -43.6575 6.38 -46.6875 5.875 C-34.30408932 -8.10627013 -15.56499806 -9.7189894 0 0 Z " fill="#5A78D4" transform="translate(100.6875,29.125)"/>
<path d="M0 0 C-3.47644028 7.69783204 -10.21206759 11.01451437 -17.8203125 13.96484375 C-27.70165009 17.18174112 -41.20983976 19.54098193 -51.0625 15.0625 C-51.701875 14.711875 -52.34125 14.36125 -53 14 C-53.7425 13.62875 -54.485 13.2575 -55.25 12.875 C-56.11625 12.441875 -56.11625 12.441875 -57 12 C-57 11.34 -57 10.68 -57 10 C-52.545 10.99 -52.545 10.99 -48 12 C-47.67 11.34 -47.34 10.68 -47 10 C-45.76765625 10.02320312 -44.5353125 10.04640625 -43.265625 10.0703125 C-29.09374128 10.26106855 -15.61338653 10.40161101 -3.84375 1.33984375 C-2 0 -2 0 0 0 Z " fill="#12DA1A" transform="translate(102,110)"/>
<path d="M0 0 C0 0.33 0 0.66 0 1 C-1.98 1 -3.96 1 -6 1 C-6.66 2.32 -7.32 3.64 -8 5 C-9.65 5 -11.3 5 -13 5 C-13.33 10.61 -13.66 16.22 -14 22 C-11.69 22.99 -9.38 23.98 -7 25 C-6.67 25.33 -6.34 25.66 -6 26 C-2.48254713 25.74751373 -2.48254713 25.74751373 1 25 C1.33 24.34 1.66 23.68 2 23 C3.65 22.67 5.3 22.34 7 22 C7 17.38 7 12.76 7 8 C5.35 7.34 3.7 6.68 2 6 C2 5.67 2 5.34 2 5 C6.44837341 4.63932107 6.44837341 4.63932107 8.625 6.0625 C10.6987091 8.98454463 10.52528715 11.65125994 10.6875 15.1875 C10.78611328 17.09595703 10.78611328 17.09595703 10.88671875 19.04296875 C10.94279297 20.50669922 10.94279297 20.50669922 11 22 C7.77208445 24.1519437 6.71599191 24.20086443 3 24 C2.690625 24.639375 2.38125 25.27875 2.0625 25.9375 C1 28 1 28 0 29 C-2.27289982 28.96177529 -4.5446711 28.84398253 -6.8125 28.6875 C-8.05644531 28.60886719 -9.30039063 28.53023437 -10.58203125 28.44921875 C-13.60543362 28.0518573 -15.44231408 27.57842078 -18 26 C-18 24.68 -18 23.36 -18 22 C-20.31 22 -22.62 22 -25 22 C-24.01 18.535 -24.01 18.535 -23 15 C-21.68 15.33 -20.36 15.66 -19 16 C-18.83564453 15.07767578 -18.83564453 15.07767578 -18.66796875 14.13671875 C-18.50941406 13.32847656 -18.35085937 12.52023438 -18.1875 11.6875 C-18.03667969 10.88699219 -17.88585937 10.08648437 -17.73046875 9.26171875 C-16.90822527 6.71584187 -16.13313096 5.59597449 -14 4 C-13.01 4 -12.02 4 -11 4 C-11 3.34 -11 2.68 -11 2 C-7.36576791 -0.32590854 -4.22911669 -0.16265833 0 0 Z " fill="#5072F2" transform="translate(84,43)"/>
<path d="M0 0 C1.5003479 0.07069702 1.5003479 0.07069702 3.03100586 0.14282227 C4.1105957 0.19116211 5.19018555 0.23950195 6.30249023 0.28930664 C7.43879883 0.34538086 8.57510742 0.40145508 9.74584961 0.45922852 C11.45611328 0.53753906 11.45611328 0.53753906 13.20092773 0.61743164 C16.02864984 0.74757785 18.85605961 0.8825573 21.68334961 1.02172852 C21.68334961 2.01172852 21.68334961 3.00172852 21.68334961 4.02172852 C19.70334961 5.01172852 19.70334961 5.01172852 17.68334961 6.02172852 C18.82223633 6.71008789 18.82223633 6.71008789 19.98413086 7.41235352 C20.97799805 8.02594727 21.97186523 8.63954102 22.99584961 9.27172852 C24.47504883 10.17665039 24.47504883 10.17665039 25.98413086 11.09985352 C28.51257849 12.9001375 30.00988261 14.44013437 31.68334961 17.02172852 C28.10738429 15.30974512 24.88330728 13.2351361 21.58569336 11.04516602 C19.60305539 9.78484037 19.60305539 9.78484037 16.68334961 10.02172852 C18.00334961 11.34172852 19.32334961 12.66172852 20.68334961 14.02172852 C18.70334961 13.36172852 16.72334961 12.70172852 14.68334961 12.02172852 C15.01334961 14.33172852 15.34334961 16.64172852 15.68334961 19.02172852 C15.02334961 19.02172852 14.36334961 19.02172852 13.68334961 19.02172852 C13.68334961 18.36172852 13.68334961 17.70172852 13.68334961 17.02172852 C13.02334961 17.02172852 12.36334961 17.02172852 11.68334961 17.02172852 C10.05834961 15.64672852 10.05834961 15.64672852 8.68334961 14.02172852 C8.68334961 13.36172852 8.68334961 12.70172852 8.68334961 12.02172852 C8.02334961 12.02172852 7.36334961 12.02172852 6.68334961 12.02172852 C5.05834961 10.64672852 5.05834961 10.64672852 3.68334961 9.02172852 C3.68334961 8.36172852 3.68334961 7.70172852 3.68334961 7.02172852 C3.08522461 6.77422852 2.48709961 6.52672852 1.87084961 6.27172852 C-0.6031256 4.8580284 -1.75035295 3.37117468 -3.31665039 1.02172852 C-2.31665039 0.02172852 -2.31665039 0.02172852 0 0 Z " fill="#29D632" transform="translate(73.316650390625,1.978271484375)"/>
<path d="M0 0 C2.6923481 2.18753283 2.93936827 3.58423955 3.4375 7 C3 10 3 10 1.5625 12.375 C-2.10493887 14.70069294 -5.76008978 14.86672198 -10 14 C-11.78125 12.7578125 -11.78125 12.7578125 -13 11 C-13.21484375 8.80859375 -13.21484375 8.80859375 -12.9375 6.4375 C-12.86402344 5.65246094 -12.79054687 4.86742188 -12.71484375 4.05859375 C-12 2 -12 2 -10.1953125 0.74609375 C-6.53907452 -0.4965067 -3.87063114 -0.36863154 0 0 Z " fill="#586FEF" transform="translate(66,80)"/>
<path d="M0 0 C2.875 -0.125 2.875 -0.125 6 0 C8 2 8 2 8 5 C8.804375 5.144375 9.60875 5.28875 10.4375 5.4375 C13 6 13 6 14 7 C14.07271741 9.35313555 14.08370868 11.70833668 14.0625 14.0625 C14.05347656 15.35285156 14.04445313 16.64320312 14.03515625 17.97265625 C14.02355469 18.97167969 14.01195313 19.97070312 14 21 C12.02 20.67 10.04 20.34 8 20 C8.66 16.7 9.32 13.4 10 10 C5.97313257 7.98656628 4.35847821 7.45519022 0 8 C-1.35308313 9.31328657 -2.68870078 10.64499081 -4 12 C-6.25 11.75 -6.25 11.75 -8 11 C-7.67 8.69 -7.34 6.38 -7 4 C-6.030625 3.71125 -5.06125 3.4225 -4.0625 3.125 C-0.89335797 2.35785318 -0.89335797 2.35785318 0 0 Z " fill="#1EB870" transform="translate(78,44)"/>
<path d="M0 0 C2.5 2.125 2.5 2.125 4 5 C4 8.52397438 3.68152223 10.24275308 1.3125 12.875 C-1.70753221 14.34420486 -3.67631657 14.41546043 -7 14 C-9.375 13 -9.375 13 -11 11 C-11.56659452 8.22484315 -11.5609375 5.77577319 -11 3 C-8.07140737 -0.74859857 -4.493323 -0.64190329 0 0 Z " fill="#061B30" transform="translate(211,37)"/>
<path d="M0 0 C3 2 3 2 3.875 5.8125 C4.10788236 8.65884001 3.95169175 10.15136586 3.0625 12.9375 C-0.04339967 16.04339967 -2.67716975 15.78740179 -7 16 C-7.99 20.62 -8.98 25.24 -10 30 C-10.33 30 -10.66 30 -11 30 C-10.22095672 18.47835991 -10.22095672 18.47835991 -8 13 C-8.66 13 -9.32 13 -10 13 C-10.12375 13.969375 -10.2475 14.93875 -10.375 15.9375 C-10.58125 16.948125 -10.7875 17.95875 -11 19 C-11.66 19.33 -12.32 19.66 -13 20 C-12.9278125 19.41992188 -12.855625 18.83984375 -12.78125 18.2421875 C-12.35713336 14.67253913 -11.97981778 11.34982515 -12.1875 7.75 C-11.93740927 4.0820027 -10.51918139 2.59327497 -8 0 C-5.08931154 -1.45534423 -3.1172005 -0.69977971 0 0 Z M-7.3125 3 C-9.27860309 4.96012036 -9.27860309 4.96012036 -9.375 8.0625 C-9.28930236 11.11861241 -9.28930236 11.11861241 -7 13 C-4.16613833 13.3633156 -2.59477849 13.3568671 -0.125 11.875 C1.26260721 9.92675581 1.26260721 9.92675581 1 6.9375 C0.27862478 3.84921156 0.27862478 3.84921156 -2.3125 2.4375 C-4.99791809 1.75240741 -4.99791809 1.75240741 -7.3125 3 Z " fill="#48C857" transform="translate(18,28)"/>
<path d="M0 0 C1.65 0 3.3 0 5 0 C5 0.66 5 1.32 5 2 C6.32 2.33 7.64 2.66 9 3 C9 5.64 9 8.28 9 11 C7.68 11.33 6.36 11.66 5 12 C5 12.66 5 13.32 5 14 C2.23723823 13.47731534 -0.3260876 12.89130413 -3 12 C-3.74926071 8.33694766 -4.2380014 5.57644848 -3 2 C-2.01 2 -1.02 2 0 2 C0 1.34 0 0.68 0 0 Z " fill="#D3CAA6" transform="translate(88,71)"/>
<path d="M0 0 C2.62527189 -0.05382106 5.24944713 -0.09358313 7.875 -0.125 C8.62136719 -0.14175781 9.36773437 -0.15851563 10.13671875 -0.17578125 C12.09194461 -0.1933959 14.04742021 -0.10320189 16 0 C16.66 0.66 17.32 1.32 18 2 C17.01 2.495 17.01 2.495 16 3 C15.87625 3.61875 15.7525 4.2375 15.625 4.875 C14.80178529 7.67393003 13.39815356 8.45280415 11 10 C8.69 9.01 6.38 8.02 4 7 C4 6.34 4 5.68 4 5 C2.68 4.34 1.36 3.68 0 3 C0 2.01 0 1.02 0 0 Z " fill="#04ED05" transform="translate(73,4)"/>
<path d="M0 0 C3 0.25 3 0.25 5 2.25 C5.32752234 4.96454956 5.1308425 7.50230759 5 10.25 C4 11.25 4 11.25 0.5625 11.4375 C-3 11.25 -3 11.25 -5 9.25 C-5.25 5.75 -5.25 5.75 -5 2.25 C-3 0.25 -3 0.25 0 0 Z " fill="#3690BE" transform="translate(81,50.75)"/>
<path d="M0 0 C-2.44370366 5.54624899 -6.87265909 8.58177273 -11.8125 11.875 C-16.24149732 13.43817552 -20.35138267 13.24804875 -25 13 C-25 12.34 -25 11.68 -25 11 C-23.92621094 10.62488281 -22.85242188 10.24976562 -21.74609375 9.86328125 C-15.96286196 7.79716302 -5.12258154 0 0 0 Z " fill="#1BDA24" transform="translate(102,110)"/>
<path d="M0 0 C0.33 0.99 0.66 1.98 1 3 C4.3 3 7.6 3 11 3 C11.18175781 3.69867188 11.36351563 4.39734375 11.55078125 5.1171875 C11.92783203 6.48230469 11.92783203 6.48230469 12.3125 7.875 C12.67794922 9.23238281 12.67794922 9.23238281 13.05078125 10.6171875 C13.86669852 13.32113319 13.86669852 13.32113319 17 15 C15.68 15 14.36 15 13 15 C13.11859375 15.56847656 13.2371875 16.13695313 13.359375 16.72265625 C14.07434064 21.00530043 14.41129769 24.05698824 12.25 27.9375 C10 31 10 31 7 33 C3.8125 33.125 3.8125 33.125 1 33 C0.67 33.99 0.34 34.98 0 36 C0.33 34.35 0.66 32.7 1 31 C3.31 31 5.62 31 8 31 C8 30.34 8 29.68 8 29 C8.66 29 9.32 29 10 29 C10 28.01 10 27.02 10 26 C10.66 26 11.32 26 12 26 C11.67 25.113125 11.34 24.22625 11 23.3125 C10.08440723 20.27959895 9.73182996 18.12865051 10 15 C10.33 14.67 10.66 14.34 11 14 C11.29142246 10.40578965 11.04209215 8.00381138 9 5 C6.81458448 4.3006486 6.81458448 4.3006486 4.375 4.25 C3.14910156 4.16492188 3.14910156 4.16492188 1.8984375 4.078125 C1.27195312 4.05234375 0.64546875 4.0265625 0 4 C0 2.68 0 1.36 0 0 Z " fill="#776EBF" transform="translate(68,70)"/>
<path d="M0 0 C0.33 0 0.66 0 1 0 C1.33 6.27 1.66 12.54 2 19 C2.66 19 3.32 19 4 19 C4.12117187 19.59167969 4.24234375 20.18335937 4.3671875 20.79296875 C5.64203152 28.27969526 5.64203152 28.27969526 9.5625 34.5 C11.48593335 36.50706089 11.63468585 38.29667526 12 41 C12.66 41 13.32 41 14 41 C14 41.66 14 42.32 14 43 C14.66 43 15.32 43 16 43 C16 43.66 16 44.32 16 45 C16.66 45 17.32 45 18 45 C18.66 46.32 19.32 47.64 20 49 C18.68 48.67 17.36 48.34 16 48 C16 47.34 16 46.68 16 46 C15.34 46 14.68 46 14 46 C5.89610873 38.29294877 0.33646086 25.15605474 -0.07226562 14.03344727 C-0.09787117 11.89612308 -0.08762202 9.76230382 -0.0625 7.625 C-0.05798828 6.88894531 -0.05347656 6.15289062 -0.04882812 5.39453125 C-0.03715142 3.59631842 -0.01922011 1.79814803 0 0 Z " fill="#32CE3A" transform="translate(6,58)"/>
<path d="M0 0 C0 0.33 0 0.66 0 1 C-3.63 1.66 -7.26 2.32 -11 3 C-11.20625 4.44375 -11.4125 5.8875 -11.625 7.375 C-11.79902344 8.59316406 -11.79902344 8.59316406 -11.9765625 9.8359375 C-11.98429687 10.55007812 -11.99203125 11.26421875 -12 12 C-9.58513057 14.41486943 -8.87292211 14.2961925 -5.5625 14.3125 C-4.78003906 14.32925781 -3.99757813 14.34601563 -3.19140625 14.36328125 C-0.94448811 14.15491463 -0.94448811 14.15491463 0.7734375 12.7421875 C2.29153493 10.58590899 2.31575963 9.42044581 2.1875 6.8125 C2.125625 5.554375 2.06375 4.29625 2 3 C2.66 3.33 3.32 3.66 4 4 C4.05422947 5.4370809 4.09289723 6.87475462 4.125 8.3125 C4.14820312 9.11300781 4.17140625 9.91351563 4.1953125 10.73828125 C4 13 4 13 2 16 C-2.73632654 17.34593452 -6.93294577 17.37440499 -11.5625 15.75 C-14 14 -14 14 -15 11 C-15.56647399 4.76878613 -15.56647399 4.76878613 -13.25 1.625 C-8.70104319 -1.6603577 -5.44786417 -0.94289957 0 0 Z " fill="#BA6E67" transform="translate(66,79)"/>
<path d="M0 0 C0.66 0.33 1.32 0.66 2 1 C2.02698189 2.62490954 2.04638757 4.24994633 2.0625 5.875 C2.07410156 6.77992187 2.08570312 7.68484375 2.09765625 8.6171875 C2 11 2 11 1 13 C3.97 13.495 3.97 13.495 7 14 C7 14.99 7 15.98 7 17 C5.741875 17.061875 4.48375 17.12375 3.1875 17.1875 C0.97534949 17.3862962 0.97534949 17.3862962 -1 18 C-1.495 18.825 -1.99 19.65 -2.5 20.5 C-4 23 -4 23 -5.87890625 23.515625 C-7.91396008 23.73405654 -9.95737014 23.87030922 -12 24 C-12.66 24.33 -13.32 24.66 -14 25 C-13.505 23.515 -13.505 23.515 -13 22 C-10.36 22 -7.72 22 -5 22 C-5 21.236875 -5 20.47375 -5 19.6875 C-5 17.125 -5 14.5625 -5 12 C-3.35 12 -1.7 12 0 12 C-0.2784375 10.63875 -0.2784375 10.63875 -0.5625 9.25 C-0.96371196 6.26956829 -0.89371766 4.78045493 0 2 C0 1.34 0 0.68 0 0 Z " fill="#836DAE" transform="translate(59,51)"/>
<path d="M0 0 C0.33 0.99 0.66 1.98 1 3 C1.66 3.33 2.32 3.66 3 4 C1.52202738 7.67056937 -0.47615477 9.41085783 -3.625 11.75 C-4.44226563 12.36359375 -5.25953125 12.9771875 -6.1015625 13.609375 C-6.72804688 14.06828125 -7.35453125 14.5271875 -8 15 C-8 12 -8 12 -6 9.8125 C-5.01 8.9153125 -5.01 8.9153125 -4 8 C-4.53367187 8.38671875 -5.06734375 8.7734375 -5.6171875 9.171875 C-19.20118511 18.66657229 -19.20118511 18.66657229 -25.29296875 17.59765625 C-25.85628906 17.40042969 -26.41960937 17.20320313 -27 17 C-25.81857422 16.63261719 -25.81857422 16.63261719 -24.61328125 16.2578125 C-16.38189394 13.43283934 -4.15512498 8.31024996 0 0 Z " fill="#28CC33" transform="translate(106,102)"/>
<path d="M0 0 C1.35665057 2.71330113 1 4.98001855 1 8 C1.185625 8.845625 1.37125 9.69125 1.5625 10.5625 C2 13 2 13 1.375 15.5 C0.78366903 18.08633877 0.78366903 18.08633877 2 20.75 C4.73875499 23.83109936 7.00411987 23.43917472 11 24 C11.5775 24.845625 12.155 25.69125 12.75 26.5625 C14.7572753 29.26457088 14.7572753 29.26457088 17.6875 29.328125 C20.47346689 29.31391088 23.22274804 29.21547645 26 29 C26 29.66 26 30.32 26 31 C24.06280622 31.05406122 22.12518079 31.09282025 20.1875 31.125 C19.10855469 31.14820312 18.02960937 31.17140625 16.91796875 31.1953125 C14 31 14 31 11 29 C11 28.01 11 27.02 11 26 C9.39125 26.0928125 9.39125 26.0928125 7.75 26.1875 C3.873181 25.99365905 2.63493932 25.73628314 0 23 C-0.93290869 20.20127394 -1.12859447 18.48011055 -1.1328125 15.5859375 C-1.13410156 14.74289063 -1.13539062 13.89984375 -1.13671875 13.03125 C-1.13285156 12.1546875 -1.12898438 11.278125 -1.125 10.375 C-1.12886719 9.49070312 -1.13273437 8.60640625 -1.13671875 7.6953125 C-1.13542969 6.85484375 -1.13414063 6.014375 -1.1328125 5.1484375 C-1.13168457 4.37677246 -1.13055664 3.60510742 -1.12939453 2.81005859 C-1 1 -1 1 0 0 Z " fill="#716BCD" transform="translate(42,77)"/>
<path d="M0 0 C3.3 0 6.6 0 10 0 C10 2.64 10 5.28 10 8 C6.7 8 3.4 8 0 8 C0 5.36 0 2.72 0 0 Z " fill="#E96A27" transform="translate(56,97)"/>
<path d="M0 0 C1.66611905 -0.042721 3.33382885 -0.04063832 5 0 C6 1 6 1 6.09765625 4.16015625 C6.08605469 5.44792969 6.07445313 6.73570313 6.0625 8.0625 C6.05347656 9.35285156 6.04445313 10.64320312 6.03515625 11.97265625 C6.02355469 12.97167969 6.01195313 13.97070312 6 15 C3.03 14.505 3.03 14.505 0 14 C0.66 10.7 1.32 7.4 2 4 C1.34 4 0.68 4 0 4 C0 2.68 0 1.36 0 0 Z " fill="#17BE65" transform="translate(86,50)"/>
<path d="M0 0 C4.44837341 -0.36067893 4.44837341 -0.36067893 6.625 1.0625 C8.6987091 3.98454463 8.52528715 6.65125994 8.6875 10.1875 C8.78611328 12.09595703 8.78611328 12.09595703 8.88671875 14.04296875 C8.92410156 15.01878906 8.96148437 15.99460937 9 17 C5.77208445 19.1519437 4.71599191 19.20086443 1 19 C0.690625 19.639375 0.38125 20.27875 0.0625 20.9375 C-1 23 -1 23 -2 24 C-3.99958364 24.04080783 -6.00045254 24.04254356 -8 24 C-8 23.34 -8 22.68 -8 22 C-6.865625 21.71125 -5.73125 21.4225 -4.5625 21.125 C-3.386875 20.75375 -2.21125 20.3825 -1 20 C-0.67 19.34 -0.34 18.68 0 18 C1.65 17.67 3.3 17.34 5 17 C5 12.38 5 7.76 5 3 C2.525 2.01 2.525 2.01 0 1 C0 0.67 0 0.34 0 0 Z " fill="#3990BD" transform="translate(86,48)"/>
<path d="M0 0 C2.35677128 2.19734264 4.03510759 4.46583086 5.75 7.1875 C10.80453452 15.19078512 10.80453452 15.19078512 18 21 C18.33 19.68 18.66 18.36 19 17 C20.32 17.66 21.64 18.32 23 19 C23 19.99 23 20.98 23 22 C22.01 22 21.02 22 20 22 C20.33 22.99 20.66 23.98 21 25 C11.13808614 21.55940138 4.90100175 11.79834092 0 3 C0 2.01 0 1.02 0 0 Z " fill="#34C93E" transform="translate(8,90)"/>
<path d="M0 0 C1.2684375 0.12375 1.2684375 0.12375 2.5625 0.25 C4.5625 3.25 4.5625 3.25 4.1875 5.9375 C3.98125 6.700625 3.775 7.46375 3.5625 8.25 C1.25 8.9375 1.25 8.9375 -1.4375 9.25 C-3.3125 8.125 -3.3125 8.125 -4.4375 6.25 C-3.88016338 0.39796547 -3.88016338 0.39796547 0 0 Z " fill="#5B6DB9" transform="translate(51.4375,52.75)"/>
<path d="M0 0 C0.99 0 1.98 0 3 0 C3.309375 1.11375 3.61875 2.2275 3.9375 3.375 C5.21741324 8.10623759 5.21741324 8.10623759 9 11 C7.68 11 6.36 11 5 11 C4.01 15.62 3.02 20.24 2 25 C1.67 25 1.34 25 1 25 C1.77904328 13.47835991 1.77904328 13.47835991 4 8 C3.34 8 2.68 8 2 8 C1.87625 8.969375 1.7525 9.93875 1.625 10.9375 C1.41875 11.948125 1.2125 12.95875 1 14 C0.01 14.495 0.01 14.495 -1 15 C-0.9278125 14.41992188 -0.855625 13.83984375 -0.78125 13.2421875 C-0.2533613 8.79912426 0.11496626 4.48368422 0 0 Z " fill="#35D23E" transform="translate(6,33)"/>
<path d="M0 0 C-0.99 0.495 -0.99 0.495 -2 1 C-2 1.66 -2 2.32 -2 3 C0.31 3 2.62 3 5 3 C1.5647952 5.29013653 0.014669 5.17842973 -4 5 C-4 4.67 -4 4.34 -4 4 C-10.6 3.67 -17.2 3.34 -24 3 C-24 2.34 -24 1.68 -24 1 C-20.93758173 0.83170223 -17.87508013 0.66530338 -14.8125 0.5 C-13.94818359 0.45230469 -13.08386719 0.40460938 -12.19335938 0.35546875 C-8.12442913 0.13721196 -4.07665227 -0.06752219 0 0 Z " fill="#2EC93C" transform="translate(79,120)"/>
<path d="M0 0 C2.375 0.25 2.375 0.25 5 1 C7.09862498 3.89810116 7 5.28378861 7 9 C6.01 9 5.02 9 4 9 C3.34 8.34 2.68 7.68 2 7 C0.01178687 6.60235737 -1.98944339 6.26224651 -4 6 C-4 4.68 -4 3.36 -4 2 C-2.68 2 -1.36 2 0 2 C0 1.34 0 0.68 0 0 Z " fill="#E86A28" transform="translate(72,75)"/>
<path d="M0 0 C7.1645655 5.68224161 7.56518115 15.50947728 8.86328125 23.9609375 C9 27 9 27 7 30 C6.85900879 29.35973877 6.71801758 28.71947754 6.57275391 28.05981445 C5.92787193 25.14305711 5.27650137 22.22778562 4.625 19.3125 C4.29242188 17.80139648 4.29242188 17.80139648 3.953125 16.25976562 C3.73398438 15.28330078 3.51484375 14.30683594 3.2890625 13.30078125 C3.09006348 12.40528564 2.89106445 11.50979004 2.68603516 10.5871582 C2.04676579 7.95282136 2.04676579 7.95282136 0.91943359 5.35620117 C0 3 0 3 0 0 Z " fill="#0DE710" transform="translate(116,36)"/>
<path d="M0 0 C3.05072097 -0.28780387 5.95880164 -0.43137565 9 0 C11.49325015 2.64435622 11.94763101 4.21446509 12.1875 7.8125 C12.0946875 8.8953125 12.0946875 8.8953125 12 10 C10.97546089 7.95092179 9.97648247 5.94120617 9.125 3.8125 C8.13720728 1.79922538 8.13720728 1.79922538 5.875 1.25 C5.25625 1.1675 4.6375 1.085 4 1 C4 1.66 4 2.32 4 3 C2.68 3 1.36 3 0 3 C0 4.32 0 5.64 0 7 C0.99 7.33 1.98 7.66 3 8 C3 10.31 3 12.62 3 15 C2.67 15 2.34 15 2 15 C1.896875 14.05125 1.79375 13.1025 1.6875 12.125 C1.31460705 8.70892499 1.31460705 8.70892499 -2 7 C-2 6.34 -2 5.68 -2 5 C-4.97 5 -7.94 5 -11 5 C-10.67 4.34 -10.34 3.68 -10 3 C-7.67711188 2.60689586 -5.38154824 2.49250305 -3.03125 2.34375 C-2.02578125 2.17359375 -2.02578125 2.17359375 -1 2 C-0.67 1.34 -0.34 0.68 0 0 Z " fill="#D06D4F" transform="translate(68,74)"/>
<path d="M0 0 C2.80581263 2.38494073 4.27615602 5.17759273 6.015625 8.35546875 C7.11593185 10.19367979 8.45303088 11.53037934 10 13 C10 13.66 10 14.32 10 15 C10.66 15 11.32 15 12 15 C12 15.66 12 16.32 12 17 C13.32 17.33 14.64 17.66 16 18 C16 19.32 16 20.64 16 22 C8.91208709 18.92908806 3.15809009 10.92742342 0 4 C0 2.68 0 1.36 0 0 Z " fill="#0DE615" transform="translate(10,89)"/>
<path d="M0 0 C4.62569296 0.56069006 8.10205205 2.60057666 12 5 C12.928125 5.556875 13.85625 6.11375 14.8125 6.6875 C15.8953125 7.3371875 15.8953125 7.3371875 17 8 C17.66 8.33 18.32 8.66 19 9 C19 9.66 19 10.32 19 11 C17.1875 11.6875 17.1875 11.6875 15 12 C13.97591432 11.0246803 12.98165594 10.01801357 12 9 C10.88625 8.566875 9.7725 8.13375 8.625 7.6875 C4.29400186 5.6713457 2.78070272 3.79186735 0 0 Z " fill="#1ED724" transform="translate(89,11)"/>
<path d="M0 0 C2 1 4 2 6 3 C6.7425 3.04125 7.485 3.0825 8.25 3.125 C12.42796819 4.45435351 14.40849896 7.58919279 17 11 C16.67 11.66 16.34 12.32 16 13 C15.38125 12.195625 14.7625 11.39125 14.125 10.5625 C12.25835959 7.96125481 12.25835959 7.96125481 10 7 C10.7734375 8.175625 10.7734375 8.175625 11.5625 9.375 C12.036875 10.24125 12.51125 11.1075 13 12 C12.67 12.66 12.34 13.32 12 14 C10.18472893 12.04417252 8.37271109 10.08550123 6.5625 8.125 C6.04623047 7.56941406 5.52996094 7.01382812 4.99804688 6.44140625 C1.11328125 2.2265625 1.11328125 2.2265625 0 0 Z " fill="#29CE34" transform="translate(99,19)"/>
<path d="M0 0 C0.99 0.33 1.98 0.66 3 1 C3 4.63 3 8.26 3 12 C5.475 12.99 5.475 12.99 8 14 C8 14.66 8 15.32 8 16 C9.65 15.67 11.3 15.34 13 15 C13 15.66 13 16.32 13 17 C7.34388537 17.56561146 3.77357872 15.71391278 -1 13 C-1.02686553 11.02090602 -1.04633375 9.04171029 -1.0625 7.0625 C-1.07410156 5.96035156 -1.08570313 4.85820313 -1.09765625 3.72265625 C-1 1 -1 1 0 0 Z " fill="#546CD9" transform="translate(41,50)"/>
<path d="M0 0 C4.62 0 9.24 0 14 0 C13.07988583 4.60057086 11.89559434 7.79672559 10 12 C9.67 12 9.34 12 9 12 C8.91773332 8.95613276 9.02391783 6.92824652 10 4 C10.66 4 11.32 4 12 4 C12 3.01 12 2.02 12 1 C8.7 1.33 5.4 1.66 2 2 C1.67 3.32 1.34 4.64 1 6 C0.0398183 7.68991979 -0.95355934 9.36209288 -2 11 C-3.478746 6.563762 -1.74833678 4.26594174 0 0 Z " fill="#0C1D2C" transform="translate(387,54)"/>
<path d="M0 0 C0.66 0 1.32 0 2 0 C2.33 1.32 2.66 2.64 3 4 C5.97 4.33 8.94 4.66 12 5 C11.67 6.65 11.34 8.3 11 10 C9.35 9.67 7.7 9.34 6 9 C6 8.34 6 7.68 6 7 C3.69 6.34 1.38 5.68 -1 5 C-0.67 3.35 -0.34 1.7 0 0 Z " fill="#13C160" transform="translate(72,59)"/>
<path d="M0 0 C0 0.33 0 0.66 0 1 C-1.98 1 -3.96 1 -6 1 C-6.66 2.32 -7.32 3.64 -8 5 C-9.65 5 -11.3 5 -13 5 C-13.66 9.95 -14.32 14.9 -15 20 C-15.33 20 -15.66 20 -16 20 C-16.05423638 18.08364783 -16.09289963 16.16685075 -16.125 14.25 C-16.14820312 13.18265625 -16.17140625 12.1153125 -16.1953125 11.015625 C-16.00487687 8.07529894 -15.52670104 6.47638122 -14 4 C-13.01 4 -12.02 4 -11 4 C-11 3.34 -11 2.68 -11 2 C-7.36576791 -0.32590854 -4.22911669 -0.16265833 0 0 Z " fill="#3A89CB" transform="translate(84,43)"/>
<path d="M0 0 C0.66 0 1.32 0 2 0 C2.12375 0.969375 2.2475 1.93875 2.375 2.9375 C2.58125 3.948125 2.7875 4.95875 3 6 C3.66 6.33 4.32 6.66 5 7 C5 8.65 5 10.3 5 12 C4.01 12 3.02 12 2 12 C1.67 12.99 1.34 13.98 1 15 C1 14.01 1 13.02 1 12 C0.34 12 -0.32 12 -1 12 C-1.33 10.02 -1.66 8.04 -2 6 C-1.34 6 -0.68 6 0 6 C0 4.02 0 2.04 0 0 Z " fill="#EA6926" transform="translate(73,84)"/>
<path d="M0 0 C0.042721 1.66611905 0.04063832 3.33382885 0 5 C-1 6 -1 6 -4.0625 6.0625 C-5.031875 6.041875 -6.00125 6.02125 -7 6 C-7.33 4.02 -7.66 2.04 -8 0 C-5.13822943 -1.43088528 -3.06624227 -0.59991697 0 0 Z " fill="#4F73F2" transform="translate(85,55)"/>
<path d="M0 0 C1.23037303 2.46074606 1 4.2797563 1 7 C1.33 7.33 1.66 7.66 2 8 C2.13583612 10.98839461 2.08005977 13.63528327 1.4375 16.5625 C0.94131571 19.32695534 1.30570637 21.29996922 2 24 C-0.35463618 22.15724125 -0.98190819 21.06935196 -1.75 18.125 C-1.98975142 15.12810724 -1.66378333 12.90405207 -1 10 C-1.33 9.67 -1.66 9.34 -2 9 C-2.26293056 4.96839809 -2.29404844 3.44107266 0 0 Z " fill="#A96D82" transform="translate(44,76)"/>
<path d="M0 0 C1.65 0.33 3.3 0.66 5 1 C5 3.64 5 6.28 5 9 C4.67 9 4.34 9 4 9 C4 6.69 4 4.38 4 2 C3.34 2 2.68 2 2 2 C2 3.65 2 5.3 2 7 C0.35 7.33 -1.3 7.66 -3 8 C-3.33 6.35 -3.66 4.7 -4 3 C-2.68 2.67 -1.36 2.34 0 2 C0 1.34 0 0.68 0 0 Z " fill="#C2BEA7" transform="translate(92,73)"/>
<path d="M0 0 C2.97 0.495 2.97 0.495 6 1 C6 4.63 6 8.26 6 12 C1.59323155 13.76270738 -0.45463586 14.50504046 -5 14 C-5.66 13.01 -6.32 12.02 -7 11 C-4.69 11.66 -2.38 12.32 0 13 C0 12.34 0 11.68 0 11 C0.99 10.67 1.98 10.34 3 10 C3.061875 8.72125 3.12375 7.4425 3.1875 6.125 C3.22230469 5.40570313 3.25710937 4.68640625 3.29296875 3.9453125 C3.19628906 3.30335937 3.09960938 2.66140625 3 2 C2.01 1.34 1.02 0.68 0 0 Z " fill="#6475C9" transform="translate(93,72)"/>
<path d="M0 0 C0.99 0.33 1.98 0.66 3 1 C-7.37357631 7.70387244 -7.37357631 7.70387244 -13 8 C-13 7.01 -13 6.02 -13 5 C-12.01 5 -11.02 5 -10 5 C-9.67 3.68 -9.34 2.36 -9 1 C-8.443125 1.391875 -7.88625 1.78375 -7.3125 2.1875 C-6.549375 2.455625 -5.78625 2.72375 -5 3 C-3.30485863 2.04906703 -1.63631892 1.04892238 0 0 Z " fill="#5775DB" transform="translate(93,105)"/>
<path d="M0 0 C0.99 0 1.98 0 3 0 C1.20575184 4.56717713 -1.94547026 7.02461719 -6.3203125 9.1015625 C-9.22232143 10.07453926 -11.50959492 10.26698417 -14.5625 10.25 C-15.49191406 10.25515625 -16.42132813 10.2603125 -17.37890625 10.265625 C-20.0554462 9.99438101 -21.70438282 9.36116595 -24 8 C-23.04738281 8.01160156 -22.09476562 8.02320312 -21.11328125 8.03515625 C-19.85902344 8.04417969 -18.60476563 8.05320312 -17.3125 8.0625 C-16.07113281 8.07410156 -14.82976562 8.08570312 -13.55078125 8.09765625 C-10.53764546 8.01478673 -7.91724661 7.70839449 -5 7 C-5 6.34 -5 5.68 -5 5 C-4.01 4.67 -3.02 4.34 -2 4 C-0.79117904 1.99983534 -0.79117904 1.99983534 0 0 Z " fill="#0A1A28" transform="translate(299,85)"/>
<path d="M0 0 C0.33 0.99 0.66 1.98 1 3 C0.01 4.485 0.01 4.485 -1 6 C-1.99 6 -2.98 6 -4 6 C-4.33 6.99 -4.66 7.98 -5 9 C-6.32 9 -7.64 9 -9 9 C-9 9.99 -9 10.98 -9 12 C-10.32 11.67 -11.64 11.34 -13 11 C-11.21079529 9.3514184 -9.4187995 7.70606879 -7.625 6.0625 C-6.86316406 5.35963867 -6.86316406 5.35963867 -6.0859375 4.64257812 C-2.2265625 1.11328125 -2.2265625 1.11328125 0 0 Z " fill="#5A6EDE" transform="translate(53,35)"/>
<path d="M0 0 C0.66 0 1.32 0 2 0 C0.66958425 10.15317287 0.66958425 10.15317287 -2.125 13.6875 C-2.74375 14.120625 -3.3625 14.55375 -4 15 C-4.97110486 11.97878489 -5.13617383 9.99536737 -4 7 C-3.34 6.67 -2.68 6.34 -2 6 C-1.27306096 4.02111039 -0.60183749 2.02045442 0 0 Z " fill="#17E11A" transform="translate(8,41)"/>
<path d="M0 0 C3.00775285 0.81459973 4.11821903 1.4080021 6 3.8125 C3.66482841 4.56309087 2.33771114 4.90460304 -0.0625 4.25 C-0.701875 4.105625 -1.34125 3.96125 -2 3.8125 C-2.99 4.4725 -3.98 5.1325 -5 5.8125 C-5.99 5.8125 -6.98 5.8125 -8 5.8125 C-6.24244291 1.75659901 -4.75222326 -0.29701395 0 0 Z " fill="#4BCC4E" transform="translate(15,27.1875)"/>
<path d="M0 0 C5.28 0 10.56 0 16 0 C16 0.33 16 0.66 16 1 C11.545 1.495 11.545 1.495 7 2 C6.67 3.65 6.34 5.3 6 7 C5.34 7 4.68 7 4 7 C4 6.34 4 5.68 4 5 C2.68 4.34 1.36 3.68 0 3 C0 2.01 0 1.02 0 0 Z " fill="#21DB24" transform="translate(73,4)"/>
<path d="M0 0 C0.33 0.66 0.66 1.32 1 2 C-0.11375 2.4125 -1.2275 2.825 -2.375 3.25 C-4.99320695 4.35546516 -5.83493089 4.74880787 -7.4375 7.1875 C-7.623125 7.785625 -7.80875 8.38375 -8 9 C-10.97 8.505 -10.97 8.505 -14 8 C-9.43252898 3.30908382 -6.56366418 0.87515522 0 0 Z " fill="#5971E3" transform="translate(68,27)"/>
<path d="M0 0 C2 1 2 1 4 4 C4 4.99 4 5.98 4 7 C4.66 7 5.32 7 6 7 C6 7.66 6 8.32 6 9 C6.66 9 7.32 9 8 9 C8 9.66 8 10.32 8 11 C8.66 11 9.32 11 10 11 C10.66 12.32 11.32 13.64 12 15 C10.68 14.67 9.36 14.34 8 14 C8 13.34 8 12.68 8 12 C7.34 12 6.68 12 6 12 C4.23828125 10.13671875 4.23828125 10.13671875 2.3125 7.6875 C1.66925781 6.88699219 1.02601562 6.08648437 0.36328125 5.26171875 C-0.08660156 4.51535156 -0.53648438 3.76898438 -1 3 C-0.67 2.01 -0.34 1.02 0 0 Z " fill="#1FD14D" transform="translate(14,92)"/>
<path d="M0 0 C0.66 0.33 1.32 0.66 2 1 C2.05422947 2.4370809 2.09289723 3.87475462 2.125 5.3125 C2.14820312 6.11300781 2.17140625 6.91351563 2.1953125 7.73828125 C2 10 2 10 0 13 C-2.3828125 13.51171875 -2.3828125 13.51171875 -5.125 13.6875 C-6.49011719 13.78611328 -6.49011719 13.78611328 -7.8828125 13.88671875 C-8.93082031 13.94279297 -8.93082031 13.94279297 -10 14 C-10.33 13.34 -10.66 12.68 -11 12 C-9.741875 11.896875 -8.48375 11.79375 -7.1875 11.6875 C-4.77437885 11.36290317 -3.16087138 11.08546292 -1 9.9375 C0.6663199 6.70900519 0.17649121 3.58865469 0 0 Z " fill="#A36C8B" transform="translate(68,82)"/>
<path d="M0 0 C1.85625 0.061875 1.85625 0.061875 3.75 0.125 C0.24461443 2.08801592 -3.38351728 3.08402388 -7.25 4.125 C-7.25 6.765 -7.25 9.405 -7.25 12.125 C-7.91 11.795 -8.57 11.465 -9.25 11.125 C-9.18993922 9.66552295 -9.1011311 8.20720728 -9 6.75 C-8.95359375 5.93789062 -8.9071875 5.12578125 -8.859375 4.2890625 C-8.25 2.125 -8.25 2.125 -6.46875 0.84375 C-4.15742709 0.09501159 -2.41909889 -0.08063663 0 0 Z " fill="#716DC6" transform="translate(62.25,79.875)"/>
<path d="M0 0 C1.5003479 0.07069702 1.5003479 0.07069702 3.03100586 0.14282227 C4.1105957 0.19116211 5.19018555 0.23950195 6.30249023 0.28930664 C7.43879883 0.34538086 8.57510742 0.40145508 9.74584961 0.45922852 C11.45611328 0.53753906 11.45611328 0.53753906 13.20092773 0.61743164 C16.02864984 0.74757785 18.85605961 0.8825573 21.68334961 1.02172852 C21.68334961 2.01172852 21.68334961 3.00172852 21.68334961 4.02172852 C20.69334961 4.35172852 19.70334961 4.68172852 18.68334961 5.02172852 C18.68334961 4.03172852 18.68334961 3.04172852 18.68334961 2.02172852 C12.41334961 2.02172852 6.14334961 2.02172852 -0.31665039 2.02172852 C-0.64665039 2.68172852 -0.97665039 3.34172852 -1.31665039 4.02172852 C-1.97665039 3.03172852 -2.63665039 2.04172852 -3.31665039 1.02172852 C-2.31665039 0.02172852 -2.31665039 0.02172852 0 0 Z " fill="#4DC156" transform="translate(73.316650390625,1.978271484375)"/>
<path d="M0 0 C-0.43197635 4.7517398 -1.32769295 6.92000054 -5 10 C-5.99 9.34 -6.98 8.68 -8 8 C-6.78549285 4.35647855 -4.23741046 0 0 0 Z " fill="#17E11D" transform="translate(114,97)"/>
<path d="M0 0 C0.66 0 1.32 0 2 0 C1.39009109 3.55780196 0.4216319 6.6828589 -1 10 C-1.99 9.34 -2.98 8.68 -4 8 C-3.34 6.68 -2.68 5.36 -2 4 C-3.65 4.66 -5.3 5.32 -7 6 C-7 5.01 -7 4.02 -7 3 C-2.25 1.875 -2.25 1.875 0 3 C0 2.01 0 1.02 0 0 Z " fill="#EC6921" transform="translate(52,77)"/>
<path d="M0 0 C3.63 0 7.26 0 11 0 C11 0.66 11 1.32 11 2 C11.99 2.33 12.98 2.66 14 3 C12.68 3.33 11.36 3.66 10 4 C10 3.01 10 2.02 10 1 C8.35 1 6.7 1 5 1 C5 1.99 5 2.98 5 4 C3.35 4 1.7 4 0 4 C0 2.68 0 1.36 0 0 Z " fill="#586ECE" transform="translate(44,47)"/>
<path d="M0 0 C-1.15173355 2.46800047 -2.04783565 4.04783565 -4 6 C-6.125 5.625 -6.125 5.625 -8 5 C-8 3.68 -8 2.36 -8 1 C-2.25 0 -2.25 0 0 0 Z " fill="#13C163" transform="translate(78,50)"/>
<path d="M0 0 C4.75481646 0.57634139 7.97048212 2.55068521 12 5 C12 5.66 12 6.32 12 7 C6.47371099 5.80805531 3.82180842 4.4008703 0 0 Z " fill="#0DE612" transform="translate(89,11)"/>
<path d="M0 0 C1.32 0.33 2.64 0.66 4 1 C3.67 1.66 3.34 2.32 3 3 C2.01 3.33 1.02 3.66 0 4 C-0.33 5.98 -0.66 7.96 -1 10 C-1.66 10 -2.32 10 -3 10 C-3 7.36 -3 4.72 -3 2 C-2.01 2 -1.02 2 0 2 C0 1.34 0 0.68 0 0 Z " fill="#E9DA90" transform="translate(89,72)"/>
<path d="M0 0 C1.91015625 0.23046875 1.91015625 0.23046875 3.91015625 2.23046875 C3.53515625 4.35546875 3.53515625 4.35546875 2.91015625 6.23046875 C2.91015625 5.24046875 2.91015625 4.25046875 2.91015625 3.23046875 C1.26015625 2.90046875 -0.38984375 2.57046875 -2.08984375 2.23046875 C-2.08984375 2.89046875 -2.08984375 3.55046875 -2.08984375 4.23046875 C-2.74984375 4.23046875 -3.40984375 4.23046875 -4.08984375 4.23046875 C-4.08984375 3.57046875 -4.08984375 2.91046875 -4.08984375 2.23046875 C-5.07984375 1.90046875 -6.06984375 1.57046875 -7.08984375 1.23046875 C-5.19495423 -0.66442077 -2.51845229 0.05027763 0 0 Z " fill="#D56C45" transform="translate(64.08984375,67.76953125)"/>
<path d="M0 0 C0.33 0 0.66 0 1 0 C0.47606294 5.86809507 -0.76108858 10.54873741 -3 16 C-3.66 16 -4.32 16 -5 16 C-4.19429304 12.50577615 -3.08208283 9.14682647 -1.9375 5.75 C-1.57527344 4.67234375 -1.21304688 3.5946875 -0.83984375 2.484375 C-0.56269531 1.66453125 -0.28554687 0.8446875 0 0 Z " fill="#2FD63B" transform="translate(119,77)"/>
<path d="M0 0 C1.65 0 3.3 0 5 0 C5 2.64 5 5.28 5 8 C4.67 6.68 4.34 5.36 4 4 C1.5 5 1.5 5 0 9 C0 6.03 0 3.06 0 0 Z " fill="#1EB874" transform="translate(70,55)"/>
<path d="M0 0 C1.65 0 3.3 0 5 0 C5.5625 1.9375 5.5625 1.9375 6 4 C5 5 5 5 2.4375 5.0625 C1.2309375 5.0315625 1.2309375 5.0315625 0 5 C0 3.35 0 1.7 0 0 Z " fill="#5570F0" transform="translate(49,55)"/>
<path d="M0 0 C2 2 2 2 2 4 C2.66 4.33 3.32 4.66 4 5 C4 5.66 4 6.32 4 7 C2.35 7 0.7 7 -1 7 C-1.66 5.35 -2.32 3.7 -3 2 C-2.01 2 -1.02 2 0 2 C0 1.34 0 0.68 0 0 Z " fill="#12E31C" transform="translate(31,110)"/>
<path d="M0 0 C0.66 0.33 1.32 0.66 2 1 C2.02698189 2.62490954 2.04638757 4.24994633 2.0625 5.875 C2.07410156 6.77992187 2.08570313 7.68484375 2.09765625 8.6171875 C2 11 2 11 1 13 C-2.0625 13.625 -2.0625 13.625 -5 14 C-5 13.34 -5 12.68 -5 12 C-3.35 12 -1.7 12 0 12 C-0.2784375 10.63875 -0.2784375 10.63875 -0.5625 9.25 C-0.96371196 6.26956829 -0.89371766 4.78045493 0 2 C0 1.34 0 0.68 0 0 Z " fill="#5B6FC2" transform="translate(59,51)"/>
<path d="M0 0 C2.475 0.99 2.475 0.99 5 2 C5 2.99 5 3.98 5 5 C4.01 5 3.02 5 2 5 C2.33 5.99 2.66 6.98 3 8 C2.01 7.67 1.02 7.34 0 7 C-1.04449911 3.86650268 -0.93423645 3.01031744 0 0 Z " fill="#1ED141" transform="translate(26,107)"/>
<path d="M0 0 C0.99 0 1.98 0 3 0 C3 0.99 3 1.98 3 3 C2.30132812 3.09796875 1.60265625 3.1959375 0.8828125 3.296875 C-0.02726562 3.44640625 -0.93734375 3.5959375 -1.875 3.75 C-2.77992187 3.88921875 -3.68484375 4.0284375 -4.6171875 4.171875 C-7.16214243 4.77983843 -7.16214243 4.77983843 -8.3203125 7.078125 C-8.54460937 7.71234375 -8.76890625 8.3465625 -9 9 C-9.042721 7.33388095 -9.04063832 5.66617115 -9 4 C-8 3 -8 3 -6.15234375 2.90234375 C-4.1015625 2.93489583 -2.05078125 2.96744792 0 3 C0 2.01 0 1.02 0 0 Z " fill="#D46D48" transform="translate(75,96)"/>
<path d="M0 0 C1.65 0 3.3 0 5 0 C4.67 1.65 4.34 3.3 4 5 C2.68 4.67 1.36 4.34 0 4 C0 2.68 0 1.36 0 0 Z " fill="#6D7AAF" transform="translate(88,76)"/>
<path d="M0 0 C1.32 0.33 2.64 0.66 4 1 C3.01 1 2.02 1 1 1 C0.690625 1.639375 0.38125 2.27875 0.0625 2.9375 C-1 5 -1 5 -2 6 C-3.99958364 6.04080783 -6.00045254 6.04254356 -8 6 C-8 5.34 -8 4.68 -8 4 C-6.865625 3.71125 -5.73125 3.4225 -4.5625 3.125 C-3.386875 2.75375 -2.21125 2.3825 -1 2 C-0.67 1.34 -0.34 0.68 0 0 Z " fill="#3E87CB" transform="translate(86,66)"/>
<path d="M0 0 C2.5654594 2.5654594 2.54046087 4.47686668 3 8 C2.34 8 1.68 8 1 8 C1 7.34 1 6.68 1 6 C0.34 6 -0.32 6 -1 6 C-2.625 4 -2.625 4 -4 2 C-2.68 2 -1.36 2 0 2 C0 1.34 0 0.68 0 0 Z " fill="#39C25B" transform="translate(86,13)"/>
<path d="M0 0 C-0.99 1.485 -0.99 1.485 -2 3 C-5.625 3.1875 -5.625 3.1875 -9 3 C-9 2.34 -9 1.68 -9 1 C-6.04335481 -0.4783226 -3.25770263 -0.06032783 0 0 Z " fill="#0CE813" transform="translate(86,120)"/>
<path d="M0 0 C1.31554985 0.4495045 2.62738358 0.90989716 3.9375 1.375 C5.03384766 1.75785156 5.03384766 1.75785156 6.15234375 2.1484375 C8 3 8 3 9 5 C6.36 4.34 3.72 3.68 1 3 C0.67 3.66 0.34 4.32 0 5 C-0.99 4.67 -1.98 4.34 -3 4 C-3 3.34 -3 2.68 -3 2 C-2.01 2 -1.02 2 0 2 C0 1.34 0 0.68 0 0 Z " fill="#5679D3" transform="translate(69,65)"/>
<path d="M0 0 C4.29 0 8.58 0 13 0 C12.67 1.98 12.34 3.96 12 6 C11.77570313 5.35546875 11.55140625 4.7109375 11.3203125 4.046875 C10.17110544 1.75611148 10.17110544 1.75611148 7.6171875 1.390625 C6.25980469 1.32101563 6.25980469 1.32101563 4.875 1.25 C3.96492187 1.19328125 3.05484375 1.1365625 2.1171875 1.078125 C1.41851562 1.05234375 0.71984375 1.0265625 0 1 C0 0.67 0 0.34 0 0 Z " fill="#12202F" transform="translate(248,54)"/>
<path d="M0 0 C3.78786597 0.5260925 6.17152224 1.38103911 9 4 C9 4.66 9 5.32 9 6 C5.06326356 4.68775452 2.77280706 3.08089673 0 0 Z " fill="#587EC7" transform="translate(29,106)"/>
<path d="M0 0 C0.33 0.99 0.66 1.98 1 3 C1.66 3.33 2.32 3.66 3 4 C2.34 5.32 1.68 6.64 1 8 C0.67 7.01 0.34 6.02 0 5 C-1.65 5.33 -3.3 5.66 -5 6 C-3.35 4.02 -1.7 2.04 0 0 Z " fill="#29CD2F" transform="translate(106,102)"/>
<path d="M0 0 C1.35445256 2.70890512 1 4.99005875 1 8 C1.43941523 10.26566343 1.43941523 10.26566343 2 12 C1.01 12.33 0.02 12.66 -1 13 C-1.02686553 11.02090602 -1.04633375 9.04171029 -1.0625 7.0625 C-1.07410156 5.96035156 -1.08570313 4.85820313 -1.09765625 3.72265625 C-1 1 -1 1 0 0 Z " fill="#616DDD" transform="translate(42,77)"/>
<path d="M0 0 C1.98 0.66 3.96 1.32 6 2 C6 2.66 6 3.32 6 4 C7.65 3.67 9.3 3.34 11 3 C11 3.66 11 4.32 11 5 C6.78121808 5.19622241 3.82989106 4.80230168 0 3 C0 2.01 0 1.02 0 0 Z " fill="#5970C9" transform="translate(43,62)"/>
<path d="M0 0 C0.33 0 0.66 0 1 0 C1.66 2.31 2.32 4.62 3 7 C5.97 7.495 5.97 7.495 9 8 C9 8.33 9 8.66 9 9 C6.03 9 3.06 9 0 9 C0 6.03 0 3.06 0 0 Z " fill="#24AB89" transform="translate(75,54)"/>
<path d="M0 0 C3.125 -0.1875 3.125 -0.1875 6 0 C6.66 1.32 7.32 2.64 8 4 C6.906875 3.835 5.81375 3.67 4.6875 3.5 C1.12474127 2.93281816 1.12474127 2.93281816 -2 3 C-1.34 2.01 -0.68 1.02 0 0 Z " fill="#2DA693" transform="translate(78,44)"/>
<path d="M0 0 C-1.36983503 3.16115776 -1.9890638 3.9927092 -5 6 C-5.99 6 -6.98 6 -8 6 C-8 5.34 -8 4.68 -8 4 C-2.58823529 0 -2.58823529 0 0 0 Z " fill="#09EA0C" transform="translate(102,110)"/>
<path d="M0 0 C1.65 0 3.3 0 5 0 C4.67 1.98 4.34 3.96 4 6 C3.34 6 2.68 6 2 6 C2 5.34 2 4.68 2 4 C1.34 4 0.68 4 0 4 C0 2.68 0 1.36 0 0 Z " fill="#14E519" transform="translate(75,5)"/>
<path d="M0 0 C2.76276177 0.52268466 5.3260876 1.10869587 8 2 C8 2.66 8 3.32 8 4 C5.69 3.67 3.38 3.34 1 3 C0.67 2.01 0.34 1.02 0 0 Z " fill="#0DE70F" transform="translate(36,117)"/>
<path d="M0 0 C3.3 0 6.6 0 10 0 C10 1.65 10 3.3 10 5 C9.649375 4.525625 9.29875 4.05125 8.9375 3.5625 C6.15836457 1.32126175 3.4855283 1.32882342 0 1 C0 0.67 0 0.34 0 0 Z " fill="#B06D75" transform="translate(46,100)"/>
<path d="M0 0 C2.475 0.495 2.475 0.495 5 1 C5 1.99 5 2.98 5 4 C3.35 3.67 1.7 3.34 0 3 C0 2.01 0 1.02 0 0 Z " fill="#14C358" transform="translate(79,46)"/>
<path d="M0 0 C3.465 1.485 3.465 1.485 7 3 C6.34 3.66 5.68 4.32 5 5 C2.875 4.625 2.875 4.625 1 4 C0.67 2.68 0.34 1.36 0 0 Z " fill="#38CB42" transform="translate(14,27)"/>
</svg>
